STARTFONT 2.1
FONT -hp-batang-bold-r-normal--24-240-75-75-c-260-ksc5601.1987-1
SIZE 24 75 75
FONTBOUNDINGBOX 24 24 0 -2

STARTPROPERTIES 23
FONTNAME_REGISTRY ""
FOUNDRY "HP"
FAMILY_NAME "Batang"
WEIGHT_NAME "Bold"
SLANT "R"
SETWIDTH_NAME "Normal"
ADD_STYLE_NAME ""
PIXEL_SIZE 24
POINT_SIZE 240
RESOLUTION_X 75
RESOLUTION_Y 75
SPACING "C"
AVERAGE_WIDTH 240
CHARSET_REGISTRY "KSC5601.1987"
CHARSET_ENCODING "1"
COPYRIGHT "Copyright (c) 1994 Samsung Hewlett-Packard Company."
WEIGHT 48040
X_HEIGHT 22
QUAD_WIDTH 24
_HP_ASXVERSION "@(#) ASX 3.00 $Revision: 13.9 $ bat24h"
DEFAULT_CHAR 0
FONT_DESCENT 2
FONT_ASCENT 22
ENDPROPERTIES

CHARS 8226

STARTCHAR kor_A1A1
ENCODING 41377
SWIDTH 903 0
DWIDTH 24 0
BBX 24 24 0 -2
BITMAP
000000
000000
000000
000000
000000
000000
000000
000000
000000
000000
000000
000000
000000
000000
000000
000000
000000
000000
000000
000000
000000
000000
000000
000000
ENDCHAR

STARTCHAR kor_A1A2
ENCODING 41378
SWIDTH 903 0
DWIDTH 24 0
BBX 24 24 0 -2
BITMAP
000000
00001C
00000E
00000F
000007
000007
000000
000000
000000
000000
000000
000000
000000
000000
000000
000000
000000
000000
000000
000000
000000
000000
000000
000000
ENDCHAR

STARTCHAR kor_A1A3
ENCODING 41379
SWIDTH 903 0
DWIDTH 24 0
BBX 24 24 0 -2
BITMAP
000000
000038
00006C
0000C6
0000C6
00006C
000038
000000
000000
000000
000000
000000
000000
000000
000000
000000
000000
000000
000000
000000
000000
000000
000000
000000
ENDCHAR

STARTCHAR kor_A1A4
ENCODING 41380
SWIDTH 903 0
DWIDTH 24 0
BBX 24 24 0 -2
BITMAP
000000
000000
000000
000000
000000
000000
000000
000000
000000
000000
001C00
003E00
003E00
001C00
000000
000000
000000
000000
000000
000000
000000
000000
000000
000000
ENDCHAR

STARTCHAR kor_A1A5
ENCODING 41381
SWIDTH 903 0
DWIDTH 24 0
BBX 24 24 0 -2
BITMAP
000000
000000
000000
000000
000000
000000
000000
000000
000000
000000
01C0E0
03E1F0
03E1F0
01C0E0
000000
000000
000000
000000
000000
000000
000000
000000
000000
000000
ENDCHAR

STARTCHAR kor_A1A6
ENCODING 41382
SWIDTH 903 0
DWIDTH 24 0
BBX 24 24 0 -2
BITMAP
000000
000000
000000
000000
000000
000000
000000
000000
000000
000000
1C1C1C
3E3E3E
3E3E3E
1C1C1C
000000
000000
000000
000000
000000
000000
000000
000000
000000
000000
ENDCHAR

STARTCHAR kor_A1A7
ENCODING 41383
SWIDTH 903 0
DWIDTH 24 0
BBX 24 24 0 -2
BITMAP
000000
03C1E0
03C1E0
03C1E0
000000
000000
000000
000000
000000
000000
000000
000000
000000
000000
000000
000000
000000
000000
000000
000000
000000
000000
000000
000000
ENDCHAR

STARTCHAR kor_A1A8
ENCODING 41384
SWIDTH 903 0
DWIDTH 24 0
BBX 24 24 0 -2
BITMAP
000000
000000
000000
000000
000000
000000
000000
000000
000000
01EF00
01CE00
039C00
031800
063000
000000
000000
000000
000000
000000
000000
000000
000000
000000
000000
ENDCHAR

STARTCHAR kor_A1A9
ENCODING 41385
SWIDTH 903 0
DWIDTH 24 0
BBX 24 24 0 -2
BITMAP
000000
000000
000000
000000
000000
000000
000000
000000
000000
000000
000000
00FF80
00FF80
000000
000000
000000
000000
000000
000000
000000
000000
000000
000000
000000
ENDCHAR

STARTCHAR kor_A1AA
ENCODING 41386
SWIDTH 903 0
DWIDTH 24 0
BBX 24 24 0 -2
BITMAP
000000
000000
000000
000000
000000
000000
000000
000000
000000
000000
000000
7FFFFF
7FFFFF
000000
000000
000000
000000
000000
000000
000000
000000
000000
000000
000000
ENDCHAR

STARTCHAR kor_A1AB
ENCODING 41387
SWIDTH 903 0
DWIDTH 24 0
BBX 24 24 0 -2
BITMAP
000000
007700
007700
007700
007700
007700
007700
007700
007700
007700
007700
007700
007700
007700
007700
007700
007700
007700
007700
007700
007700
007700
007700
000000
ENDCHAR

STARTCHAR kor_A1AC
ENCODING 41388
SWIDTH 903 0
DWIDTH 24 0
BBX 24 24 0 -2
BITMAP
000000
700000
380000
1C0000
0E0000
070000
038000
01C000
00E000
007000
003800
001C00
000E00
000700
000380
0001C0
0000E0
000070
000038
00001C
00000E
000007
000000
000000
ENDCHAR

STARTCHAR kor_A1AD
ENCODING 41389
SWIDTH 903 0
DWIDTH 24 0
BBX 24 24 0 -2
BITMAP
000000
000000
000000
000000
000000
000000
000000
000000
000000
0F8000
39F000
607C00
001F03
0007CE
0000F8
000000
000000
000000
000000
000000
000000
000000
000000
000000
ENDCHAR

STARTCHAR kor_A1AE
ENCODING 41390
SWIDTH 903 0
DWIDTH 24 0
BBX 24 24 0 -2
BITMAP
000000
000018
000030
000070
000070
000078
000078
000000
000000
000000
000000
000000
000000
000000
000000
000000
000000
000000
000000
000000
000000
000000
000000
000000
ENDCHAR

STARTCHAR kor_A1AF
ENCODING 41391
SWIDTH 903 0
DWIDTH 24 0
BBX 24 24 0 -2
BITMAP
000000
0F0000
0F0000
070000
070000
060000
0C0000
000000
000000
000000
000000
000000
000000
000000
000000
000000
000000
000000
000000
000000
000000
000000
000000
000000
ENDCHAR

STARTCHAR kor_A1B0
ENCODING 41392
SWIDTH 903 0
DWIDTH 24 0
BBX 24 24 0 -2
BITMAP
000000
000318
000630
000E70
000E70
000F78
000F78
000000
000000
000000
000000
000000
000000
000000
000000
000000
000000
000000
000000
000000
000000
000000
000000
000000
ENDCHAR

STARTCHAR kor_A1B1
ENCODING 41393
SWIDTH 903 0
DWIDTH 24 0
BBX 24 24 0 -2
BITMAP
000000
0F7800
0F7800
073800
073800
063000
0C6000
000000
000000
000000
000000
000000
000000
000000
000000
000000
000000
000000
000000
000000
000000
000000
000000
000000
ENDCHAR

STARTCHAR kor_A1B2
ENCODING 41394
SWIDTH 903 0
DWIDTH 24 0
BBX 24 24 0 -2
BITMAP
000000
000038
0000E0
000380
000E00
000C00
000C00
000C00
000C00
000C00
000C00
000C00
000C00
000C00
000C00
000C00
000C00
000C00
000C00
000E00
000380
0000E0
000038
000000
ENDCHAR

STARTCHAR kor_A1B3
ENCODING 41395
SWIDTH 903 0
DWIDTH 24 0
BBX 24 24 0 -2
BITMAP
000000
0E0000
038000
00E000
003800
001800
001800
001800
001800
001800
001800
001800
001800
001800
001800
001800
001800
001800
001800
003800
00E000
038000
0E0000
000000
ENDCHAR

STARTCHAR kor_A1B4
ENCODING 41396
SWIDTH 903 0
DWIDTH 24 0
BBX 24 24 0 -2
BITMAP
000000
000000
000003
000007
00000E
00001C
000038
000070
0000E0
0001C0
000380
000700
000380
0001C0
0000E0
000070
000038
00001C
00000E
000007
000003
000000
000000
000000
ENDCHAR

STARTCHAR kor_A1B5
ENCODING 41397
SWIDTH 903 0
DWIDTH 24 0
BBX 24 24 0 -2
BITMAP
000000
000000
600000
700000
380000
1C0000
0E0000
070000
038000
01C000
00E000
007000
00E000
01C000
038000
070000
0E0000
1C0000
380000
700000
600000
000000
000000
000000
ENDCHAR

STARTCHAR kor_A1B6
ENCODING 41398
SWIDTH 903 0
DWIDTH 24 0
BBX 24 24 0 -2
BITMAP
000000
0000E7
0000E7
0001CE
0001CE
00039C
00039C
000738
000738
000E70
000E70
001CE0
001CE0
000E70
000E70
000738
000738
00039C
00039C
0001CE
0001CE
0000E7
0000E7
000000
ENDCHAR

STARTCHAR kor_A1B7
ENCODING 41399
SWIDTH 903 0
DWIDTH 24 0
BBX 24 24 0 -2
BITMAP
000000
738000
738000
39C000
39C000
1CE000
1CE000
0E7000
0E7000
073800
073800
039C00
039C00
073800
073800
0E7000
0E7000
1CE000
1CE000
39C000
39C000
738000
738000
000000
ENDCHAR

STARTCHAR kor_A1B8
ENCODING 41400
SWIDTH 903 0
DWIDTH 24 0
BBX 24 24 0 -2
BITMAP
000000
0000FF
0000C0
0000C0
0000C0
0000C0
0000C0
0000C0
0000C0
0000C0
0000C0
0000C0
0000C0
0000C0
0000C0
0000C0
0000C0
0000C0
0000C0
000000
000000
000000
000000
000000
ENDCHAR

STARTCHAR kor_A1B9
ENCODING 41401
SWIDTH 903 0
DWIDTH 24 0
BBX 24 24 0 -2
BITMAP
000000
000000
000000
000000
000000
018000
018000
018000
018000
018000
018000
018000
018000
018000
018000
018000
018000
018000
018000
018000
018000
018000
7F8000
000000
ENDCHAR

STARTCHAR kor_A1BA
ENCODING 41402
SWIDTH 903 0
DWIDTH 24 0
BBX 24 24 0 -2
BITMAP
000000
0000FF
0000C3
0000BF
0000B0
0000B0
0000B0
0000B0
0000B0
0000B0
0000B0
0000B0
0000B0
0000B0
0000B0
0000B0
0000B0
0000B0
0000B0
0000F0
000000
000000
000000
000000
ENDCHAR

STARTCHAR kor_A1BB
ENCODING 41403
SWIDTH 903 0
DWIDTH 24 0
BBX 24 24 0 -2
BITMAP
000000
000000
000000
000000
000000
078000
058000
058000
058000
058000
058000
058000
058000
058000
058000
058000
058000
058000
058000
058000
7D8000
618000
7F8000
000000
ENDCHAR

STARTCHAR kor_A1BC
ENCODING 41404
SWIDTH 903 0
DWIDTH 24 0
BBX 24 24 0 -2
BITMAP
000000
00007F
00007E
00007C
00007C
000078
000078
000070
000070
000070
000070
000070
000070
000070
000070
000070
000070
000078
000078
00007C
00007C
00007E
00007F
000000
ENDCHAR

STARTCHAR kor_A1BD
ENCODING 41405
SWIDTH 903 0
DWIDTH 24 0
BBX 24 24 0 -2
BITMAP
000000
7F0000
3F0000
1F0000
1F0000
0F0000
0F0000
070000
070000
070000
070000
070000
070000
070000
070000
070000
070000
0F0000
0F0000
1F0000
1F0000
3F0000
7F0000
000000
ENDCHAR

STARTCHAR kor_A1BE
ENCODING 41406
SWIDTH 903 0
DWIDTH 24 0
BBX 24 24 0 -2
BITMAP
000000
000000
000000
001800
001800
001800
001800
001800
001800
001800
1FFFF8
001800
001800
001800
001800
001800
001800
001800
000000
000000
1FFFF8
000000
000000
000000
ENDCHAR

STARTCHAR kor_A1BF
ENCODING 41407
SWIDTH 903 0
DWIDTH 24 0
BBX 24 24 0 -2
BITMAP
000000
000000
000000
000000
0C0018
060030
030060
0180C0
00C180
006300
003600
001C00
001C00
003600
006300
00C180
0180C0
030060
060030
0C0018
000000
000000
000000
000000
ENDCHAR

STARTCHAR kor_A1C0
ENCODING 41408
SWIDTH 903 0
DWIDTH 24 0
BBX 24 24 0 -2
BITMAP
000000
000000
000000
000000
003C00
003C00
003C00
000000
000000
000000
000000
1FFFFC
000000
000000
000000
000000
003C00
003C00
003C00
000000
000000
000000
000000
000000
ENDCHAR

STARTCHAR kor_A1C1
ENCODING 41409
SWIDTH 903 0
DWIDTH 24 0
BBX 24 24 0 -2
BITMAP
000000
000000
000000
000000
000300
000300
000300
000600
000600
1FFFFC
000C00
000C00
001800
001800
1FFFFC
003000
003000
006000
006000
006000
000000
000000
000000
000000
ENDCHAR

STARTCHAR kor_A1C2
ENCODING 41410
SWIDTH 903 0
DWIDTH 24 0
BBX 24 24 0 -2
BITMAP
000000
000000
000070
0001C0
000F00
003800
01E000
070000
1C0000
070000
01E000
003800
000F00
0001C0
000070
000000
000000
000000
1FFFF8
000000
000000
000000
000000
000000
ENDCHAR

STARTCHAR kor_A1C3
ENCODING 41411
SWIDTH 903 0
DWIDTH 24 0
BBX 24 24 0 -2
BITMAP
000000
000000
0E0000
038000
00F000
001C00
000780
0000E0
000038
0000E0
000780
001C00
00F000
038000
0E0000
000000
000000
000000
1FFFFC
000000
000000
000000
000000
000000
ENDCHAR

STARTCHAR kor_A1C4
ENCODING 41412
SWIDTH 903 0
DWIDTH 24 0
BBX 24 24 0 -2
BITMAP
000000
000000
000000
000000
000000
000000
0780F0
1DE3BC
38770E
303606
703E07
601C03
601C03
703E07
303606
38770E
1DE3BC
0780F0
000000
000000
000000
000000
000000
000000
ENDCHAR

STARTCHAR kor_A1C5
ENCODING 41413
SWIDTH 903 0
DWIDTH 24 0
BBX 24 24 0 -2
BITMAP
000000
000000
000000
000000
000000
000000
001C00
003E00
003E00
001C00
000000
000000
000000
000000
000000
000000
070070
0F80F8
0F80F8
070070
000000
000000
000000
000000
ENDCHAR

STARTCHAR kor_A1C6
ENCODING 41414
SWIDTH 903 0
DWIDTH 24 0
BBX 24 24 0 -2
BITMAP
000000
1E0000
3F0000
738000
738000
738000
3F0000
1E0000
000000
000000
000000
000000
000000
000000
000000
000000
000000
000000
000000
000000
000000
000000
000000
000000
ENDCHAR

STARTCHAR kor_A1C7
ENCODING 41415
SWIDTH 903 0
DWIDTH 24 0
BBX 24 24 0 -2
BITMAP
000000
000000
03C000
038000
070000
060000
0C0000
000000
000000
000000
000000
000000
000000
000000
000000
000000
000000
000000
000000
000000
000000
000000
000000
000000
ENDCHAR

STARTCHAR kor_A1C8
ENCODING 41416
SWIDTH 903 0
DWIDTH 24 0
BBX 24 24 0 -2
BITMAP
000000
000000
1EF000
1CE000
39C000
318000
630000
000000
000000
000000
000000
000000
000000
000000
000000
000000
000000
000000
000000
000000
000000
000000
000000
000000
ENDCHAR

STARTCHAR kor_A1C9
ENCODING 41417
SWIDTH 903 0
DWIDTH 24 0
BBX 24 24 0 -2
BITMAP
000000
000000
000000
1C0780
361CEC
63703C
62E01C
35C00C
1DC00C
038000
038000
038000
038000
038000
038000
01C000
01C006
00E00C
007018
003870
000FC0
000000
000000
000000
ENDCHAR

STARTCHAR kor_A1CA
ENCODING 41418
SWIDTH 903 0
DWIDTH 24 0
BBX 24 24 0 -2
BITMAP
000000
001C00
003600
006300
006300
003600
001C00
000000
001C00
001C00
003E00
002E00
006700
006700
00C380
00C380
0181C0
01FFC0
0300E0
0300E0
060070
1F81FC
000000
000000
ENDCHAR

STARTCHAR kor_A1CB
ENCODING 41419
SWIDTH 903 0
DWIDTH 24 0
BBX 24 24 0 -2
BITMAP
000000
000000
000000
000000
000000
000000
000000
000180
000180
003F00
00E3C0
01C6E0
01C6E0
038C00
038C00
039800
039800
01B060
01B0C0
00E380
007E00
00C000
00C000
000000
ENDCHAR

STARTCHAR kor_A1CC
ENCODING 41420
SWIDTH 903 0
DWIDTH 24 0
BBX 24 24 0 -2
BITMAP
000000
000000
001F00
0071C0
00C0E0
01C0F0
01C0F0
01C0E0
01C000
00E000
00E000
1FFF00
00E000
007000
007000
0F7000
19F000
30780C
30EC38
19CFF0
0F03C0
000000
000000
000000
ENDCHAR

STARTCHAR kor_A1CD
ENCODING 41421
SWIDTH 903 0
DWIDTH 24 0
BBX 24 24 0 -2
BITMAP
000000
000000
3FC0FE
0F0038
070030
038060
038060
01C0C0
3FFFFE
00E180
007300
007300
003600
3FFFFE
001C00
001C00
001C00
001C00
001C00
001C00
007F00
000000
000000
000000
ENDCHAR

STARTCHAR kor_A1CE
ENCODING 41422
SWIDTH 903 0
DWIDTH 24 0
BBX 24 24 0 -2
BITMAP
000000
000C00
001E00
002B00
006D80
00CCC0
018C60
030C30
060C18
0C0C0C
000C00
001E00
007380
00C0C0
00C0C0
018060
018060
018060
00C0C0
00C0C0
007380
001E00
000000
000000
ENDCHAR

STARTCHAR kor_A1CF
ENCODING 41423
SWIDTH 903 0
DWIDTH 24 0
BBX 24 24 0 -2
BITMAP
000000
003C00
00E700
018180
018180
0300C0
0300C0
0300C0
018180
018180
00E700
003C00
001800
001800
0FFFF0
001800
001800
001800
001800
001800
001800
001800
000000
000000
ENDCHAR

STARTCHAR kor_A1D0
ENCODING 41424
SWIDTH 903 0
DWIDTH 24 0
BBX 24 24 0 -2
BITMAP
000000
000000
000000
000030
000060
0000C0
000180
000300
000600
000C00
001800
003000
006000
00C000
018000
030000
060000
0C0000
180000
3FFFFC
000000
000000
000000
000000
ENDCHAR

STARTCHAR kor_A1D1
ENCODING 41425
SWIDTH 903 0
DWIDTH 24 0
BBX 24 24 0 -2
BITMAP
000000
000000
000000
001800
001800
001800
001800
001800
001800
001800
001800
001800
001800
001800
001800
001800
001800
001800
001800
1FFFFC
000000
000000
000000
000000
ENDCHAR

STARTCHAR kor_A1D2
ENCODING 41426
SWIDTH 903 0
DWIDTH 24 0
BBX 24 24 0 -2
BITMAP
000000
03FFE0
1FFFFC
78000F
000000
000000
000000
000000
000000
000000
000000
000000
000000
000000
000000
000000
000000
000000
000000
000000
000000
000000
000000
000000
ENDCHAR

STARTCHAR kor_A1D3
ENCODING 41427
SWIDTH 903 0
DWIDTH 24 0
BBX 24 24 0 -2
BITMAP
000000
000000
000780
001FE0
0038E0
006070
000030
000030
000030
003E70
00E360
01C160
0381E0
0381C0
0701C0
0701C0
070380
070380
030700
038E00
00F800
000000
000000
000000
ENDCHAR

STARTCHAR kor_A1D4
ENCODING 41428
SWIDTH 903 0
DWIDTH 24 0
BBX 24 24 0 -2
BITMAP
000000
000000
3FFFFC
1FFFF8
1C0018
0E0030
0E0030
070060
070060
0380C0
0380C0
01C180
01C180
00E300
00E300
007600
007600
003C00
003C00
001800
001800
000000
000000
000000
ENDCHAR

STARTCHAR kor_A1D5
ENCODING 41429
SWIDTH 903 0
DWIDTH 24 0
BBX 24 24 0 -2
BITMAP
000000
000000
000000
000000
000000
000000
1FFFFC
000000
000000
000000
000000
1FFFFC
000000
000000
000000
000000
1FFFFC
000000
000000
000000
000000
000000
000000
000000
ENDCHAR

STARTCHAR kor_A1D6
ENCODING 41430
SWIDTH 903 0
DWIDTH 24 0
BBX 24 24 0 -2
BITMAP
000000
000000
000000
000000
078000
078000
078000
000000
000000
1FFFFC
000000
000000
000000
000000
1FFFFC
000000
000000
0000F0
0000F0
0000F0
000000
000000
000000
000000
ENDCHAR

STARTCHAR kor_A1D7
ENCODING 41431
SWIDTH 903 0
DWIDTH 24 0
BBX 24 24 0 -2
BITMAP
000000
000000
007F00
01C1C0
0380E0
0380E0
01C000
00F000
003E00
00EF80
0183C0
0380E0
0380E0
01E0C0
00FB80
003E00
000780
0001C0
0380E0
0380E0
01C1C0
007F00
000000
000000
ENDCHAR

STARTCHAR kor_A1D8
ENCODING 41432
SWIDTH 903 0
DWIDTH 24 0
BBX 24 24 0 -2
BITMAP
000000
000000
000000
181C0C
0C3E18
063E30
031C60
0180C0
00C180
006300
0E3638
1F1C7C
1F1C7C
0E3638
006300
00C180
0180C0
031C60
063E30
0C3E18
181C0C
000000
000000
000000
ENDCHAR

STARTCHAR kor_A1D9
ENCODING 41433
SWIDTH 903 0
DWIDTH 24 0
BBX 24 24 0 -2
BITMAP
000000
000000
000000
000000
000C00
001E00
001E00
001E00
003700
003700
003700
1FF3FE
0F003C
078078
01C0E0
00E1C0
00E1C0
01DEC0
01B6E0
01F3E0
01C0E0
038070
000000
000000
ENDCHAR

STARTCHAR kor_A1DA
ENCODING 41434
SWIDTH 903 0
DWIDTH 24 0
BBX 24 24 0 -2
BITMAP
000000
000000
000000
000000
001800
003C00
003C00
003C00
003E00
007E00
007E00
3FFFFC
1FFFF8
07FFE0
01FFC0
00FF80
00FF80
01FF80
01E780
03C3C0
0381C0
0700E0
000000
000000
ENDCHAR

STARTCHAR kor_A1DB
ENCODING 41435
SWIDTH 903 0
DWIDTH 24 0
BBX 24 24 0 -2
BITMAP
000000
000000
003F00
00FFC0
01E1E0
038070
070038
0E001C
0E001C
1C000E
1C000E
1C000E
1C000E
1C000E
1C000E
0E001C
0E001C
070038
038070
01E1E0
00FFC0
003F00
000000
000000
ENDCHAR

STARTCHAR kor_A1DC
ENCODING 41436
SWIDTH 903 0
DWIDTH 24 0
BBX 24 24 0 -2
BITMAP
000000
000000
003F00
00FFC0
01FFE0
03FFF0
07FFF8
0FFFFC
0FFFFC
1FFFFE
1FFFFE
1FFFFE
1FFFFE
1FFFFE
1FFFFE
0FFFFC
0FFFFC
07FFF8
07FFF8
03FFF0
00FFC0
003F00
000000
000000
ENDCHAR

STARTCHAR kor_A1DD
ENCODING 41437
SWIDTH 903 0
DWIDTH 24 0
BBX 24 24 0 -2
BITMAP
000000
007F00
01C1C0
070070
0C0018
183E0C
18E38C
3180C6
330066
630063
660033
660033
660033
660033
630063
330066
3180C6
18E38C
183E0C
0C0018
070070
01C1C0
007F00
000000
ENDCHAR

STARTCHAR kor_A1DE
ENCODING 41438
SWIDTH 903 0
DWIDTH 24 0
BBX 24 24 0 -2
BITMAP
000000
000000
000C00
001E00
003700
007380
00E1C0
01C0E0
038070
070038
0E001C
1C000E
1C000E
0E001C
070038
038070
01C0E0
00E1C0
007380
003700
001E00
000C00
000000
000000
ENDCHAR

STARTCHAR kor_A1DF
ENCODING 41439
SWIDTH 903 0
DWIDTH 24 0
BBX 24 24 0 -2
BITMAP
000000
000000
000C00
001E00
003F00
007F80
00FFC0
01FFE0
03FFF0
07FFF8
0FFFFC
1FFFFE
1FFFFE
0FFFFC
07FFF8
03FFF0
01FFE0
00FFC0
007F80
003F00
001E00
000C00
000000
000000
ENDCHAR

STARTCHAR kor_A1E0
ENCODING 41440
SWIDTH 903 0
DWIDTH 24 0
BBX 24 24 0 -2
BITMAP
000000
000000
000000
000000
0FFFF8
0C0018
0C0018
0C0018
0C0018
0C0018
0C0018
0C0018
0C0018
0C0018
0C0018
0C0018
0C0018
0C0018
0C0018
0FFFF8
000000
000000
000000
000000
ENDCHAR

STARTCHAR kor_A1E1
ENCODING 41441
SWIDTH 903 0
DWIDTH 24 0
BBX 24 24 0 -2
BITMAP
000000
000000
000000
000000
0FFFF8
0FFFF8
0FFFF8
0FFFF8
0FFFF8
0FFFF8
0FFFF8
0FFFF8
0FFFF8
0FFFF8
0FFFF8
0FFFF8
0FFFF8
0FFFF8
0FFFF8
0FFFF8
000000
000000
000000
000000
ENDCHAR

STARTCHAR kor_A1E2
ENCODING 41442
SWIDTH 903 0
DWIDTH 24 0
BBX 24 24 0 -2
BITMAP
000000
000000
000000
001800
002C00
002C00
006600
006600
00C300
00C300
018180
018180
0300C0
0300C0
060060
0C0030
0C0030
180018
180018
30000C
7FFFFE
000000
000000
000000
ENDCHAR

STARTCHAR kor_A1E3
ENCODING 41443
SWIDTH 903 0
DWIDTH 24 0
BBX 24 24 0 -2
BITMAP
000000
000000
000000
001800
003C00
003C00
007E00
007E00
00FF00
00FF00
01FF80
01FF80
03FFC0
03FFC0
07FFE0
0FFFF0
0FFFF0
1FFFF8
1FFFF8
3FFFFC
7FFFFE
000000
000000
000000
ENDCHAR

STARTCHAR kor_A1E4
ENCODING 41444
SWIDTH 903 0
DWIDTH 24 0
BBX 24 24 0 -2
BITMAP
000000
000000
000000
7FFFFE
30000C
180018
180018
0C0030
0C0030
060060
0300C0
0300C0
018180
018180
00C300
00C300
006600
006600
002C00
002C00
001800
000000
000000
000000
ENDCHAR

STARTCHAR kor_A1E5
ENCODING 41445
SWIDTH 903 0
DWIDTH 24 0
BBX 24 24 0 -2
BITMAP
000000
000000
000000
7FFFFE
3FFFFC
1FFFF8
1FFFF8
0FFFF0
0FFFF0
07FFE0
03FFC0
03FFC0
01FF80
01FF80
00FF00
00FF00
007E00
007E00
003C00
003C00
001800
000000
000000
000000
ENDCHAR

STARTCHAR kor_A1E6
ENCODING 41446
SWIDTH 903 0
DWIDTH 24 0
BBX 24 24 0 -2
BITMAP
000000
000000
000000
000000
000000
000000
000000
0000C0
000060
000038
00001C
7FFFFF
00001C
000038
000060
0000C0
000000
000000
000000
000000
000000
000000
000000
000000
ENDCHAR

STARTCHAR kor_A1E7
ENCODING 41447
SWIDTH 903 0
DWIDTH 24 0
BBX 24 24 0 -2
BITMAP
000000
000000
000000
000000
000000
000000
000000
018000
030000
0E0000
1C0000
7FFFFF
1C0000
0E0000
030000
018000
000000
000000
000000
000000
000000
000000
000000
000000
ENDCHAR

STARTCHAR kor_A1E8
ENCODING 41448
SWIDTH 903 0
DWIDTH 24 0
BBX 24 24 0 -2
BITMAP
000000
001800
001800
003C00
007E00
005600
00DB00
019980
001800
001800
001800
001800
001800
001800
001800
001800
001800
001800
001800
001800
001800
001800
001800
000000
ENDCHAR

STARTCHAR kor_A1E9
ENCODING 41449
SWIDTH 903 0
DWIDTH 24 0
BBX 24 24 0 -2
BITMAP
000000
001800
001800
001800
001800
001800
001800
001800
001800
001800
001800
001800
001800
001800
001800
001800
019980
00DB00
005600
007E00
003C00
001800
001800
000000
ENDCHAR

STARTCHAR kor_A1EA
ENCODING 41450
SWIDTH 903 0
DWIDTH 24 0
BBX 24 24 0 -2
BITMAP
000000
000000
000000
000000
000000
000000
030060
060030
0C0018
18000C
300006
7FFFFF
300006
18000C
0C0018
060030
030060
000000
000000
000000
000000
000000
000000
000000
ENDCHAR

STARTCHAR kor_A1EB
ENCODING 41451
SWIDTH 903 0
DWIDTH 24 0
BBX 24 24 0 -2
BITMAP
000000
000000
000000
000000
000000
000000
1FFFFC
1FFFFC
1FFFFC
1FFFFC
000000
000000
000000
000000
1FFFFC
1FFFFC
1FFFFC
1FFFFC
000000
000000
000000
000000
000000
000000
ENDCHAR

STARTCHAR kor_A1EC
ENCODING 41452
SWIDTH 903 0
DWIDTH 24 0
BBX 24 24 0 -2
BITMAP
000000
000000
000000
000000
00060C
000E1C
003C78
0070E0
01E3C0
038700
0F1E00
1E3C00
0F1E00
038700
01E3C0
0070E0
003C78
000E1C
00060C
000000
000000
000000
000000
000000
ENDCHAR

STARTCHAR kor_A1ED
ENCODING 41453
SWIDTH 903 0
DWIDTH 24 0
BBX 24 24 0 -2
BITMAP
000000
000000
000000
000000
183000
1C3800
0F1E00
038700
01E3C0
0070E0
003C78
001E3C
003C78
0070E0
01E3C0
038700
0F1E00
1C3800
183000
000000
000000
000000
000000
000000
ENDCHAR

STARTCHAR kor_A1EE
ENCODING 41454
SWIDTH 903 0
DWIDTH 24 0
BBX 24 24 0 -2
BITMAP
000000
0007FF
000600
000600
000C00
000C00
000C00
001800
001800
001800
003000
003000
003000
0C6000
1C6000
3E6000
6EC000
0EC000
06C000
078000
078000
030000
030000
000000
ENDCHAR

STARTCHAR kor_A1EF
ENCODING 41455
SWIDTH 903 0
DWIDTH 24 0
BBX 24 24 0 -2
BITMAP
000000
000000
000000
000000
000000
000000
07C0F0
1EE3BC
38070E
300E06
700C07
601C03
601803
703807
303006
38700E
1DE3BC
0781F0
000000
000000
000000
000000
000000
000000
ENDCHAR

STARTCHAR kor_A1F0
ENCODING 41456
SWIDTH 903 0
DWIDTH 24 0
BBX 24 24 0 -2
BITMAP
000000
000000
000000
000000
000000
000000
0780F8
1DE3DE
387706
303600
703E00
601C00
601C00
703E00
303600
387706
1DE3DE
0780F8
000000
000000
000000
000000
000000
000000
ENDCHAR

STARTCHAR kor_A1F1
ENCODING 41457
SWIDTH 903 0
DWIDTH 24 0
BBX 24 24 0 -2
BITMAP
000000
000000
000000
000000
000000
0380E0
07C1F0
07C1F0
0380E0
000000
000000
000000
000000
001C00
003E00
003E00
001C00
000000
000000
000000
000000
000000
000000
000000
ENDCHAR

STARTCHAR kor_A1F2
ENCODING 41458
SWIDTH 903 0
DWIDTH 24 0
BBX 24 24 0 -2
BITMAP
000000
000E00
001F00
003700
003000
003000
003000
003800
003800
003800
001C00
001C00
001C00
001C00
000E00
000E00
000E00
000600
000600
000600
007600
007C00
003800
000000
ENDCHAR

STARTCHAR kor_A1F3
ENCODING 41459
SWIDTH 903 0
DWIDTH 24 0
BBX 24 24 0 -2
BITMAP
000000
00E0E0
01F1F0
037370
030300
030300
030300
038380
038380
038380
01C1C0
01C1C0
01C1C0
01C1C0
00E0E0
00E0E0
00E0E0
006060
006060
006060
076760
07C7C0
038380
000000
ENDCHAR

STARTCHAR kor_A1F4
ENCODING 41460
SWIDTH 903 0
DWIDTH 24 0
BBX 24 24 0 -2
BITMAP
000000
000000
000000
000000
000000
007FF0
01E000
038000
030000
070000
060000
07FFF0
060000
070000
030000
038000
01E000
007FF0
000000
000000
000000
000000
000000
000000
ENDCHAR

STARTCHAR kor_A1F5
ENCODING 41461
SWIDTH 903 0
DWIDTH 24 0
BBX 24 24 0 -2
BITMAP
000000
000000
000000
000000
000000
07FF00
0003C0
0000E0
000060
000070
000030
07FFF0
000030
000070
000060
0000E0
0003C0
07FF00
000000
000000
000000
000000
000000
000000
ENDCHAR

STARTCHAR kor_A1F6
ENCODING 41462
SWIDTH 903 0
DWIDTH 24 0
BBX 24 24 0 -2
BITMAP
000000
000000
000000
000000
01FFFC
078000
0E0000
0C0000
1C0000
180000
180000
1C0000
0C0000
0E0000
078000
01FFFC
000000
000000
000000
1FFFFC
000000
000000
000000
000000
ENDCHAR

STARTCHAR kor_A1F7
ENCODING 41463
SWIDTH 903 0
DWIDTH 24 0
BBX 24 24 0 -2
BITMAP
000000
000000
000000
000000
1FFFC0
0000F0
000038
000018
00001C
00000C
00000C
00001C
000018
000038
0000F0
1FFFC0
000000
000000
000000
1FFFFC
000000
000000
000000
000000
ENDCHAR

STARTCHAR kor_A1F8
ENCODING 41464
SWIDTH 903 0
DWIDTH 24 0
BBX 24 24 0 -2
BITMAP
000000
000000
000000
000000
000000
00FFFC
03C000
070000
0E0000
0C0000
1C0000
180000
180000
1C0000
0C0000
0E0000
070000
03C000
00FFFC
000000
000000
000000
000000
000000
ENDCHAR

STARTCHAR kor_A1F9
ENCODING 41465
SWIDTH 903 0
DWIDTH 24 0
BBX 24 24 0 -2
BITMAP
000000
000000
000000
000000
000000
1FFF80
0001E0
000070
000038
000018
00001C
00000C
00000C
00001C
000018
000038
000070
0001E0
1FFF80
000000
000000
000000
000000
000000
ENDCHAR

STARTCHAR kor_A1FA
ENCODING 41466
SWIDTH 903 0
DWIDTH 24 0
BBX 24 24 0 -2
BITMAP
000000
000000
000000
060030
060030
060030
060030
060030
060030
060030
060030
060030
060030
060030
060030
070070
030060
0380E0
01C1C0
00F780
003E00
000000
000000
000000
ENDCHAR

STARTCHAR kor_A1FB
ENCODING 41467
SWIDTH 903 0
DWIDTH 24 0
BBX 24 24 0 -2
BITMAP
000000
000000
000000
003E00
00F780
01C1C0
0380E0
030060
070070
060030
060030
060030
060030
060030
060030
060030
060030
060030
060030
060030
060030
000000
000000
000000
ENDCHAR

STARTCHAR kor_A1FC
ENCODING 41468
SWIDTH 903 0
DWIDTH 24 0
BBX 24 24 0 -2
BITMAP
000000
000000
000000
001800
001800
002C00
002C00
006600
006600
00C300
00C300
018180
018180
0300C0
0300C0
060060
060060
0C0030
0C0030
180018
180018
000000
000000
000000
ENDCHAR

STARTCHAR kor_A1FD
ENCODING 41469
SWIDTH 903 0
DWIDTH 24 0
BBX 24 24 0 -2
BITMAP
000000
000000
000000
180018
180018
0C0030
0C0030
060060
060060
0300C0
0300C0
018180
018180
00C300
00C300
006600
006600
002C00
002C00
001800
001800
000000
000000
000000
ENDCHAR

STARTCHAR kor_A1FE
ENCODING 41470
SWIDTH 903 0
DWIDTH 24 0
BBX 24 24 0 -2
BITMAP
000000
000000
000000
000000
000000
000000
000000
000000
000000
000000
1FFFFC
00000C
00000C
00000C
00000C
00000C
00000C
000000
000000
000000
000000
000000
000000
000000
ENDCHAR

STARTCHAR kor_A2A1
ENCODING 41633
SWIDTH 903 0
DWIDTH 24 0
BBX 24 24 0 -2
BITMAP
000000
000000
000000
000000
000180
0000C0
000060
000030
7FFFF8
00000C
000006
000003
000006
00000C
7FFFF8
000030
000060
0000C0
000180
000000
000000
000000
000000
000000
ENDCHAR

STARTCHAR kor_A2A2
ENCODING 41634
SWIDTH 903 0
DWIDTH 24 0
BBX 24 24 0 -2
BITMAP
000000
000000
000000
000000
000000
0180C0
030060
060030
0FFFF8
18000C
300006
600003
300006
18000C
0FFFF8
060030
030060
0180C0
000000
000000
000000
000000
000000
000000
ENDCHAR

STARTCHAR kor_A2A3
ENCODING 41635
SWIDTH 903 0
DWIDTH 24 0
BBX 24 24 0 -2
BITMAP
000000
000000
30000C
30000C
180018
180018
0C0030
0C0030
060060
07FFE0
0300C0
0300C0
018180
018180
00C300
00C300
006600
006600
002C00
002C00
001800
001800
000000
000000
ENDCHAR

STARTCHAR kor_A2A4
ENCODING 41636
SWIDTH 903 0
DWIDTH 24 0
BBX 24 24 0 -2
BITMAP
000000
000000
000000
07FFF0
000030
000030
000030
000030
000030
000030
000030
07FFF0
000030
000030
000030
000030
000030
000030
000030
07FFF0
000000
000000
000000
000000
ENDCHAR

STARTCHAR kor_A2A5
ENCODING 41637
SWIDTH 903 0
DWIDTH 24 0
BBX 24 24 0 -2
BITMAP
000F00
001E00
003800
006000
000000
000000
000000
000000
000000
000000
000000
000000
000000
000000
000000
000000
000000
000000
000000
000000
000000
000000
000000
000000
ENDCHAR

STARTCHAR kor_A2A6
ENCODING 41638
SWIDTH 903 0
DWIDTH 24 0
BBX 24 24 0 -2
BITMAP
00F1C0
01FF80
038F00
000000
000000
000000
000000
000000
000000
000000
000000
000000
000000
000000
000000
000000
000000
000000
000000
000000
000000
000000
000000
000000
ENDCHAR

STARTCHAR kor_A2A7
ENCODING 41639
SWIDTH 903 0
DWIDTH 24 0
BBX 24 24 0 -2
BITMAP
00E700
006E00
003C00
001800
000000
000000
000000
000000
000000
000000
000000
000000
000000
000000
000000
000000
000000
000000
000000
000000
000000
000000
000000
000000
ENDCHAR

STARTCHAR kor_A2A8
ENCODING 41640
SWIDTH 903 0
DWIDTH 24 0
BBX 24 24 0 -2
BITMAP
00E380
007F00
003E00
000000
000000
000000
000000
000000
000000
000000
000000
000000
000000
000000
000000
000000
000000
000000
000000
000000
000000
000000
000000
000000
ENDCHAR

STARTCHAR kor_A2A9
ENCODING 41641
SWIDTH 903 0
DWIDTH 24 0
BBX 24 24 0 -2
BITMAP
0079E0
00F3C0
01C700
030C00
000000
000000
000000
000000
000000
000000
000000
000000
000000
000000
000000
000000
000000
000000
000000
000000
000000
000000
000000
000000
ENDCHAR

STARTCHAR kor_A2AA
ENCODING 41642
SWIDTH 903 0
DWIDTH 24 0
BBX 24 24 0 -2
BITMAP
003C00
006600
006600
003C00
000000
000000
000000
000000
000000
000000
000000
000000
000000
000000
000000
000000
000000
000000
000000
000000
000000
000000
000000
000000
ENDCHAR

STARTCHAR kor_A2AB
ENCODING 41643
SWIDTH 903 0
DWIDTH 24 0
BBX 24 24 0 -2
BITMAP
003C00
003C00
003C00
000000
000000
000000
000000
000000
000000
000000
000000
000000
000000
000000
000000
000000
000000
000000
000000
000000
000000
000000
000000
000000
ENDCHAR

STARTCHAR kor_A2AC
ENCODING 41644
SWIDTH 903 0
DWIDTH 24 0
BBX 24 24 0 -2
BITMAP
000000
000000
000000
000000
000000
000000
000000
000000
000000
000000
000000
000000
000000
000000
000000
000000
000000
000000
000000
003000
001800
000C00
001800
003000
ENDCHAR

STARTCHAR kor_A2AD
ENCODING 41645
SWIDTH 903 0
DWIDTH 24 0
BBX 24 24 0 -2
BITMAP
000000
000000
000000
000000
000000
000000
000000
000000
000000
000000
000000
000000
000000
000000
000000
000000
000000
000000
000000
000C00
001800
003000
001800
000C00
ENDCHAR

STARTCHAR kor_A2AE
ENCODING 41646
SWIDTH 903 0
DWIDTH 24 0
BBX 24 24 0 -2
BITMAP
000000
000000
003C00
003C00
003C00
000000
000000
000000
001800
001800
001800
001800
003C00
003C00
003C00
003C00
003C00
003C00
003C00
003C00
001800
000000
000000
000000
ENDCHAR

STARTCHAR kor_A2AF
ENCODING 41647
SWIDTH 903 0
DWIDTH 24 0
BBX 24 24 0 -2
BITMAP
000000
000000
003C00
003C00
003C00
000000
000000
001800
001800
001800
003000
007000
00E000
01C000
03C000
0380C0
0781E0
0781E0
03C3C0
01E780
007E00
000000
000000
000000
ENDCHAR

STARTCHAR kor_A2B0
ENCODING 41648
SWIDTH 903 0
DWIDTH 24 0
BBX 24 24 0 -2
BITMAP
000000
000000
000000
000000
000000
00FF00
007E00
003C00
001800
000000
000000
000000
000000
000000
000000
001800
003C00
007E00
00FF00
000000
000000
000000
000000
000000
ENDCHAR

STARTCHAR kor_A2B1
ENCODING 41649
SWIDTH 903 0
DWIDTH 24 0
BBX 24 24 0 -2
BITMAP
000000
000E00
001F00
003700
003000
003000
003000
003800
003E00
005B00
00DD80
00DD80
00DD80
005B00
003E00
000E00
000E00
000600
000600
000600
007600
007C00
003800
000000
ENDCHAR

STARTCHAR kor_A2B2
ENCODING 41650
SWIDTH 903 0
DWIDTH 24 0
BBX 24 24 0 -2
BITMAP
000000
000000
000000
07FFF0
038070
01C030
00E030
00E000
007000
003800
001C00
000E00
000E00
001C00
003800
007000
00E030
00E030
01C030
038070
07FFF0
000000
000000
000000
ENDCHAR

STARTCHAR kor_A2B3
ENCODING 41651
SWIDTH 903 0
DWIDTH 24 0
BBX 24 24 0 -2
BITMAP
000000
000000
000000
0FFFF8
0FFFF8
01C1C0
01C1C0
01C1C0
01C1C0
01C1C0
01C1C0
01C1C0
01C1C0
01C1C0
01C1C0
01C1C0
01C1C0
01C1C0
01C1C0
01C1C0
000000
000000
000000
000000
ENDCHAR

STARTCHAR kor_A2B4
ENCODING 41652
SWIDTH 903 0
DWIDTH 24 0
BBX 24 24 0 -2
BITMAP
000000
000000
000000
0E0038
070070
03BEE0
01FFC0
01C1C0
0380E0
0380E0
070070
070070
070070
0380E0
0380E0
01C1C0
01FFC0
03BEE0
070070
0E0038
000000
000000
000000
000000
ENDCHAR

STARTCHAR kor_A2B5
ENCODING 41653
SWIDTH 903 0
DWIDTH 24 0
BBX 24 24 0 -2
BITMAP
000000
000000
0E0000
1AFFFC
31B81C
31B80C
1B380C
0E380C
003800
003860
003860
003FE0
003860
003860
003800
003800
003800
003800
003800
003800
00FE00
000000
000000
000000
ENDCHAR

STARTCHAR kor_A2B6
ENCODING 41654
SWIDTH 903 0
DWIDTH 24 0
BBX 24 24 0 -2
BITMAP
000000
000000
1E0600
330C00
738C00
739800
739800
73B000
336000
1E6000
00C000
00C000
01BC3C
036666
02E6E7
06E6E7
06E6E7
0CE6E7
186666
183C3C
300000
000000
000000
000000
ENDCHAR

STARTCHAR kor_A2B7
ENCODING 41655
SWIDTH 903 0
DWIDTH 24 0
BBX 24 24 0 -2
BITMAP
000000
000000
000000
000018
000078
0001D8
000718
001C18
007018
01C018
070018
1C0018
070018
01C018
007018
001C18
000718
0001D8
000078
000018
000000
000000
000000
000000
ENDCHAR

STARTCHAR kor_A2B8
ENCODING 41656
SWIDTH 903 0
DWIDTH 24 0
BBX 24 24 0 -2
BITMAP
000000
000000
000000
000018
000078
0001F8
0007F8
001FF8
007FF8
01FFF8
07FFF8
1FFFF8
07FFF8
01FFF8
007FF8
001FF8
0007F8
0001F8
000078
000018
000000
000000
000000
000000
ENDCHAR

STARTCHAR kor_A2B9
ENCODING 41657
SWIDTH 903 0
DWIDTH 24 0
BBX 24 24 0 -2
BITMAP
000000
000000
000000
0C0000
0F0000
0DC000
0C7000
0C1C00
0C0700
0C01C0
0C0070
0C001C
0C0070
0C01C0
0C0700
0C1C00
0C7000
0DC000
0F0000
0C0000
000000
000000
000000
000000
ENDCHAR

STARTCHAR kor_A2BA
ENCODING 41658
SWIDTH 903 0
DWIDTH 24 0
BBX 24 24 0 -2
BITMAP
000000
000000
000000
0C0000
0F0000
0FC000
0FF000
0FFC00
0FFF00
0FFFC0
0FFFF0
0FFFFC
0FFFF0
0FFFC0
0FFF00
0FFC00
0FF000
0FC000
0F0000
0C0000
000000
000000
000000
000000
ENDCHAR

STARTCHAR kor_A2BB
ENCODING 41659
SWIDTH 903 0
DWIDTH 24 0
BBX 24 24 0 -2
BITMAP
000000
000000
001800
002C00
006600
00C300
018180
0300C0
060060
0C0030
0C0030
180018
180018
30000C
30000C
30180C
183C18
1C5638
07DBE0
001800
003C00
007E00
000000
000000
ENDCHAR

STARTCHAR kor_A2BC
ENCODING 41660
SWIDTH 903 0
DWIDTH 24 0
BBX 24 24 0 -2
BITMAP
000000
000000
001800
003C00
007E00
00FF00
01FF80
03FFC0
07FFE0
0FFFF0
0FFFF0
1FFFF8
1FFFF8
3FFFFC
3FFFFC
3FFFFC
1FFFF8
1FD7F8
07DBE0
001800
003C00
007E00
000000
000000
ENDCHAR

STARTCHAR kor_A2BD
ENCODING 41661
SWIDTH 903 0
DWIDTH 24 0
BBX 24 24 0 -2
BITMAP
000000
000000
07C3E0
1C6638
182C18
30180C
30000C
30000C
30000C
30000C
180018
180018
0C0030
0C0030
060060
0300C0
018180
00C300
006600
002C00
001800
000000
000000
000000
ENDCHAR

STARTCHAR kor_A2BE
ENCODING 41662
SWIDTH 903 0
DWIDTH 24 0
BBX 24 24 0 -2
BITMAP
000000
000000
07C3E0
1FE7F8
1FEFF8
3FFFFC
3FFFFC
3FFFFC
3FFFFC
3FFFFC
1FFFF8
1FFFF8
0FFFF0
0FFFF0
07FFE0
03FFC0
01FF80
00FF00
007E00
003C00
001800
000000
000000
000000
ENDCHAR

STARTCHAR kor_A2BF
ENCODING 41663
SWIDTH 903 0
DWIDTH 24 0
BBX 24 24 0 -2
BITMAP
000000
000000
003C00
00E700
00C300
018180
018180
018180
00C300
00C300
0F66F0
39659C
30E70C
600006
600006
603C06
30560C
39DB9C
0F18F0
001800
003C00
007E00
000000
000000
ENDCHAR

STARTCHAR kor_A2C0
ENCODING 41664
SWIDTH 903 0
DWIDTH 24 0
BBX 24 24 0 -2
BITMAP
000000
000000
003C00
00FF00
00FF00
01FF80
01FF80
01FF80
00FF00
00FF00
0F7EF0
3F7DFC
3FFFFC
7FFFFE
7FFFFE
7FFFFE
3FD7FC
3FDBFC
0F18F0
001800
003C00
007E00
000000
000000
ENDCHAR

STARTCHAR kor_A2C1
ENCODING 41665
SWIDTH 903 0
DWIDTH 24 0
BBX 24 24 0 -2
BITMAP
000000
000000
007F00
01C1C0
070070
0C0018
0C0018
18000C
18000C
301C06
303E06
307F06
307F06
303E06
301C06
18000C
18000C
0C0018
0C0018
070070
01C1C0
007F00
000000
000000
ENDCHAR

STARTCHAR kor_A2C2
ENCODING 41666
SWIDTH 903 0
DWIDTH 24 0
BBX 24 24 0 -2
BITMAP
000000
001800
002C00
006600
00C300
018180
0300C0
061860
0C3C30
187E18
30FF0C
61FF86
30FF0C
187E18
0C3C30
061860
0300C0
018180
00C300
006600
002C00
001800
000000
000000
ENDCHAR

STARTCHAR kor_A2C3
ENCODING 41667
SWIDTH 903 0
DWIDTH 24 0
BBX 24 24 0 -2
BITMAP
000000
000000
3FFFFE
300006
300006
300006
300006
31FFC6
31FFC6
31FFC6
31FFC6
31FFC6
31FFC6
31FFC6
31FFC6
31FFC6
31FFC6
300006
300006
300006
300006
3FFFFE
000000
000000
ENDCHAR

STARTCHAR kor_A2C4
ENCODING 41668
SWIDTH 903 0
DWIDTH 24 0
BBX 24 24 0 -2
BITMAP
000000
000000
007F00
01F9C0
07F870
0FF818
0FF818
1FF80C
1FF80C
3FF806
3FF806
3FF806
3FF806
3FF806
3FF806
1FF80C
1FF80C
0FF818
0FF818
07F870
01F9C0
007F00
000000
000000
ENDCHAR

STARTCHAR kor_A2C5
ENCODING 41669
SWIDTH 903 0
DWIDTH 24 0
BBX 24 24 0 -2
BITMAP
000000
000000
007F00
01CFC0
070FF0
0C0FF8
0C0FF8
180FFC
180FFC
300FFE
300FFE
300FFE
300FFE
300FFE
300FFE
180FFC
180FFC
0C0FF8
0C0FF8
070FF0
01CFC0
007F00
000000
000000
ENDCHAR

STARTCHAR kor_A2C6
ENCODING 41670
SWIDTH 903 0
DWIDTH 24 0
BBX 24 24 0 -2
BITMAP
000000
000000
3FFFFE
300006
330C36
30C006
300186
361806
300036
30C306
300006
3618C6
300006
30C306
300006
330C36
300006
306006
300306
360066
300006
3FFFFE
000000
000000
ENDCHAR

STARTCHAR kor_A2C7
ENCODING 41671
SWIDTH 903 0
DWIDTH 24 0
BBX 24 24 0 -2
BITMAP
000000
7FFFFE
600006
600006
600006
600006
7FFFFE
600006
600006
600006
600006
7FFFFE
600006
600006
600006
600006
7FFFFE
600006
600006
600006
600006
7FFFFE
000000
000000
ENDCHAR

STARTCHAR kor_A2C8
ENCODING 41672
SWIDTH 903 0
DWIDTH 24 0
BBX 24 24 0 -2
BITMAP
000000
7FFFFE
6318C6
6318C6
6318C6
6318C6
6318C6
6318C6
6318C6
6318C6
6318C6
6318C6
6318C6
6318C6
6318C6
6318C6
6318C6
6318C6
6318C6
6318C6
6318C6
7FFFFE
000000
000000
ENDCHAR

STARTCHAR kor_A2C9
ENCODING 41673
SWIDTH 903 0
DWIDTH 24 0
BBX 24 24 0 -2
BITMAP
000000
000000
3FFFFE
30180E
303016
306036
30C066
3180C6
330186
360306
2C0606
380C06
30180E
303016
306036
30C066
3180C6
330186
360306
2C0606
380C06
3FFFFE
000000
000000
ENDCHAR

STARTCHAR kor_A2CA
ENCODING 41674
SWIDTH 903 0
DWIDTH 24 0
BBX 24 24 0 -2
BITMAP
000000
000000
3FFFFE
380C06
2C0606
360306
330186
3180C6
30C066
306036
303016
30180E
380C06
2C0606
360306
330186
3180C6
30C066
306036
303016
30180E
3FFFFE
000000
000000
ENDCHAR

STARTCHAR kor_A2CB
ENCODING 41675
SWIDTH 903 0
DWIDTH 24 0
BBX 24 24 0 -2
BITMAP
000000
7FFFFE
6318C6
6318C6
6318C6
6318C6
7FFFFE
6318C6
6318C6
6318C6
6318C6
7FFFFE
6318C6
6318C6
6318C6
6318C6
7FFFFE
6318C6
6318C6
6318C6
6318C6
7FFFFE
000000
000000
ENDCHAR

STARTCHAR kor_A2CC
ENCODING 41676
SWIDTH 903 0
DWIDTH 24 0
BBX 24 24 0 -2
BITMAP
000000
000000
3FFFFE
381C0E
2C3616
366336
32C166
3180C6
32C166
366336
2C3616
381C0E
381C0E
2C3616
366336
32C166
3180C6
32C166
366336
2C3616
381C0E
3FFFFE
000000
000000
ENDCHAR

STARTCHAR kor_A2CD
ENCODING 41677
SWIDTH 903 0
DWIDTH 24 0
BBX 24 24 0 -2
BITMAP
000000
000000
019980
033300
033300
066600
066600
066600
033300
033300
019980
019980
06CCE0
1CCCB8
3CCCBC
39999C
39999C
38001C
3C003C
1F00F8
0FFFF0
01FF80
000000
000000
ENDCHAR

STARTCHAR kor_A2CE
ENCODING 41678
SWIDTH 903 0
DWIDTH 24 0
BBX 24 24 0 -2
BITMAP
000000
000000
000000
03FFC0
0E0070
180018
31FF8C
6300C6
6300C6
7F00FE
033CC0
0366C0
06C360
0CC330
0CC330
0C6630
0C3C30
0C0030
0C0030
0C0030
07FFE0
000000
000000
000000
ENDCHAR

STARTCHAR kor_A2CF
ENCODING 41679
SWIDTH 903 0
DWIDTH 24 0
BBX 24 24 0 -2
BITMAP
000000
000000
000000
03FFC0
0FFFF0
1FFFF8
3F01FC
7DFF7E
7DFF7E
7DFF7E
03E7C0
03BBC0
077DE0
0F7DF0
0F7DF0
0FBBF0
0FE7F0
0FFFF0
0FFFF0
0FFFF0
07FFE0
000000
000000
000000
ENDCHAR

STARTCHAR kor_A2D0
ENCODING 41680
SWIDTH 903 0
DWIDTH 24 0
BBX 24 24 0 -2
BITMAP
000000
000000
000000
000000
000000
000000
00003F
3FFFEC
60002C
3FF82C
03002C
01F82C
03002C
01F82C
0301EC
01FF2C
00003F
000000
000000
000000
000000
000000
000000
000000
ENDCHAR

STARTCHAR kor_A2D1
ENCODING 41681
SWIDTH 903 0
DWIDTH 24 0
BBX 24 24 0 -2
BITMAP
000000
000000
000000
000000
000000
000000
7E0000
17FFFE
160003
1607FE
160060
160FC0
160060
160FC0
17C060
167FC0
7E0000
000000
000000
000000
000000
000000
000000
000000
ENDCHAR

STARTCHAR kor_A2D2
ENCODING 41682
SWIDTH 903 0
DWIDTH 24 0
BBX 24 24 0 -2
BITMAP
000000
000000
03FF30
060330
0C0330
0C0330
0C0330
0C0330
0C0330
060330
03FF30
000330
000330
000330
000330
000330
000330
000330
000330
000330
000330
000000
000000
000000
ENDCHAR

STARTCHAR kor_A2D3
ENCODING 41683
SWIDTH 903 0
DWIDTH 24 0
BBX 24 24 0 -2
BITMAP
000000
000000
001800
001800
001800
001800
07FFE0
001800
001800
001800
001800
001800
001800
001800
001800
001800
001800
001800
001800
001800
001800
000000
000000
000000
ENDCHAR

STARTCHAR kor_A2D4
ENCODING 41684
SWIDTH 903 0
DWIDTH 24 0
BBX 24 24 0 -2
BITMAP
000000
000000
001800
001800
001800
07FFE0
001800
001800
001800
07FFE0
001800
001800
001800
001800
001800
001800
001800
001800
001800
001800
001800
000000
000000
000000
ENDCHAR

STARTCHAR kor_A2D5
ENCODING 41685
SWIDTH 903 0
DWIDTH 24 0
BBX 24 24 0 -2
BITMAP
000000
000000
001C00
003E00
007F00
00DB80
01DDC0
001C00
001C00
001C00
001C00
001C00
001C00
001C00
001C00
001C00
001C00
01DDC0
00DB80
007F00
003E00
001C00
000000
000000
ENDCHAR

STARTCHAR kor_A2D6
ENCODING 41686
SWIDTH 903 0
DWIDTH 24 0
BBX 24 24 0 -2
BITMAP
000000
000000
0001FE
0001FE
00003E
00006E
0000EE
0001CE
000380
000700
000E00
001C00
003800
007000
00E000
01C000
038000
070000
0E0000
1C0000
380000
000000
000000
000000
ENDCHAR

STARTCHAR kor_A2D7
ENCODING 41687
SWIDTH 903 0
DWIDTH 24 0
BBX 24 24 0 -2
BITMAP
000000
000000
00000E
00001C
000038
000070
0000E0
0001C0
000380
000700
000E00
001C00
003800
007000
00E000
39C000
3B8000
370000
3E0000
3FC000
3FC000
000000
000000
000000
ENDCHAR

STARTCHAR kor_A2D8
ENCODING 41688
SWIDTH 903 0
DWIDTH 24 0
BBX 24 24 0 -2
BITMAP
000000
000000
3FC000
3FC000
3E0000
370000
3B8000
39C000
00E000
007000
003800
001C00
000E00
000700
000380
0001C0
0000E0
000070
000038
00001C
00000E
000000
000000
000000
ENDCHAR

STARTCHAR kor_A2D9
ENCODING 41689
SWIDTH 903 0
DWIDTH 24 0
BBX 24 24 0 -2
BITMAP
000000
000000
380000
1C0000
0E0000
070000
038000
01C000
00E000
007000
003800
001C00
000E00
000700
000380
0001CE
0000EE
00006E
00003E
0003FE
0003FE
000000
000000
000000
ENDCHAR

STARTCHAR kor_A2DA
ENCODING 41690
SWIDTH 903 0
DWIDTH 24 0
BBX 24 24 0 -2
BITMAP
000000
000000
007000
007000
007000
007000
007000
007000
007780
007FE0
007CE0
007870
007070
007070
0070E0
0070E0
0071C0
007380
006F00
007E00
007800
000000
000000
000000
ENDCHAR

STARTCHAR kor_A2DB
ENCODING 41691
SWIDTH 903 0
DWIDTH 24 0
BBX 24 24 0 -2
BITMAP
000000
000000
000600
000600
000600
000600
000600
000600
000600
000600
000600
000600
000600
000600
000600
001E00
003E00
007E00
00FC00
00FC00
007000
000000
000000
000000
ENDCHAR

STARTCHAR kor_A2DC
ENCODING 41692
SWIDTH 903 0
DWIDTH 24 0
BBX 24 24 0 -2
BITMAP
000000
001800
001C00
001E00
001700
001B80
001B80
0019C0
0019C0
0019C0
001980
001980
001B00
001B00
001800
007800
00F800
01F800
03F000
03F000
01C000
000000
000000
000000
ENDCHAR

STARTCHAR kor_A2DD
ENCODING 41693
SWIDTH 903 0
DWIDTH 24 0
BBX 24 24 0 -2
BITMAP
000000
00FFF0
00C030
00C030
00C030
00FFF0
00C030
00C030
00C030
00C030
00C030
00C030
00C030
00C030
00C030
03C0F0
07C1F0
0FC3F0
1F87E0
1F87E0
0E0380
000000
000000
000000
ENDCHAR

STARTCHAR kor_A2DE
ENCODING 41694
SWIDTH 903 0
DWIDTH 24 0
BBX 24 24 0 -2
BITMAP
000000
007F80
01C0E0
070038
0CF3EC
0C618C
186306
186606
306603
306C00
305800
3F6C7F
006C03
006603
306303
186306
186186
0C60CC
0CF3EC
070038
01C0E0
007F80
000000
000000
ENDCHAR

STARTCHAR kor_A2DF
ENCODING 41695
SWIDTH 903 0
DWIDTH 24 0
BBX 24 24 0 -2
BITMAP
000000
000000
030700
01FF80
0CC730
180E18
181C18
307F0C
31C3CC
6700E6
600006
600006
580076
6FFFF6
671C06
601C06
301C0C
301C0C
181C18
181C18
0C1C30
001C00
001800
000000
ENDCHAR

STARTCHAR kor_A2E0
ENCODING 41696
SWIDTH 903 0
DWIDTH 24 0
BBX 24 24 0 -2
BITMAP
000000
000000
000000
70F800
383000
383000
3C3000
2E3000
2E3000
373000
3731E0
33B738
33B618
31AE1C
31AE1C
30EE1C
30EE1C
306E1C
307618
303737
7C31E7
000000
000000
000000
ENDCHAR

STARTCHAR kor_A2E1
ENCODING 41697
SWIDTH 903 0
DWIDTH 24 0
BBX 24 24 0 -2
BITMAP
000000
000000
000000
0F8000
18E000
386000
303000
700000
700000
700000
7001E0
700738
700618
700E1C
700E1C
700E1C
702E1C
306E1C
386618
18C737
0F81E7
000000
000000
000000
ENDCHAR

STARTCHAR kor_A2E2
ENCODING 41698
SWIDTH 903 0
DWIDTH 24 0
BBX 24 24 0 -2
BITMAP
000000
000000
000000
7FDC07
666E0E
666E0E
666B16
666B16
060DB6
060DB6
060CE6
060CE6
060CE6
060C06
060C06
060C06
060C06
060C06
060C06
060C06
1F9E0F
000000
000000
000000
ENDCHAR

STARTCHAR kor_A2E3
ENCODING 41699
SWIDTH 903 0
DWIDTH 24 0
BBX 24 24 0 -2
BITMAP
000000
000000
000000
000000
000000
000000
000000
000000
000000
3E1770
033DD8
019998
019998
1D9998
339998
619998
619998
619998
335997
1D5997
000000
000000
000000
000000
ENDCHAR

STARTCHAR kor_A2E4
ENCODING 41700
SWIDTH 903 0
DWIDTH 24 0
BBX 24 24 0 -2
BITMAP
000000
000000
000000
000000
000000
000000
000000
000000
000000
2F1770
79BDD8
30D998
30D998
30D998
30D998
30D998
30D998
399998
2ED997
30D997
300000
300000
300000
000000
ENDCHAR

STARTCHAR kor_A2E5
ENCODING 41701
SWIDTH 903 0
DWIDTH 24 0
BBX 24 24 0 -2
BITMAP
000000
000000
000000
3FF018
333038
333018
333018
333018
030018
030018
030F18
031998
0330D8
0330D8
0330D8
033FD8
033018
033018
0330D8
031998
0FCF3C
000000
000000
000000
ENDCHAR

STARTCHAR kor_A2E6
ENCODING 41702
SWIDTH 903 0
DWIDTH 24 0
BBX 24 24 0 -2
BITMAP
000000
000000
000000
000000
003F30
00E1B0
038070
038018
070018
070000
3FFE00
070000
070000
3FFE00
070000
038018
038030
00E0E0
003F80
000000
000000
000000
000000
000000
ENDCHAR

STARTCHAR kor_A2E7
ENCODING 41703
SWIDTH 903 0
DWIDTH 24 0
BBX 24 24 0 -2
BITMAP
000000
000000
01FFC0
0780F0
0EFE38
0EE3B8
1CE39C
1CFE1C
1CE71C
1CE39C
0EE3B8
0DF7B8
0780F0
01FFC0
000000
000000
000000
000000
000000
000000
000000
000000
000000
000000
ENDCHAR

STARTCHAR kor_A3A1
ENCODING 41889
SWIDTH 903 0
DWIDTH 24 0
BBX 24 24 0 -2
BITMAP
000000
000000
000000
003C00
003C00
003C00
003C00
003C00
003C00
003C00
003C00
003C00
001800
001800
001800
001800
000000
000000
003C00
003C00
003C00
000000
000000
000000
ENDCHAR

STARTCHAR kor_A3A2
ENCODING 41890
SWIDTH 903 0
DWIDTH 24 0
BBX 24 24 0 -2
BITMAP
000000
3DE000
3DE000
1CE000
1CE000
18C000
318000
000000
000000
000000
000000
000000
000000
000000
000000
000000
000000
000000
000000
000000
000000
000000
000000
000000
ENDCHAR

STARTCHAR kor_A3A3
ENCODING 41891
SWIDTH 903 0
DWIDTH 24 0
BBX 24 24 0 -2
BITMAP
000000
000000
000000
00E1C0
00E1C0
00E1C0
00E1FC
00FFFC
0FFFC0
0FE1C0
00E1C0
00E1C0
00E1FC
00FFFC
0FFFC0
0FE1C0
00E1C0
00E1C0
00E1C0
00E1C0
000000
000000
000000
000000
ENDCHAR

STARTCHAR kor_A3A4
ENCODING 41892
SWIDTH 903 0
DWIDTH 24 0
BBX 24 24 0 -2
BITMAP
000000
000000
001C00
001C00
007F00
03DDE0
071C70
071C70
071C00
03DC00
01FC00
007F00
001FC0
001DE0
001C70
001C70
071C70
071CF0
03DDE0
00FF80
001C00
001C00
000000
000000
ENDCHAR

STARTCHAR kor_A3A5
ENCODING 41893
SWIDTH 903 0
DWIDTH 24 0
BBX 24 24 0 -2
BITMAP
000000
000000
07800E
1CE01C
186038
387070
3870E0
3871C0
186380
1CE700
078E00
001C00
003800
0071E0
00E738
01C618
038E1C
070E1C
0E0E1C
1C0618
380738
7001E0
000000
000000
ENDCHAR

STARTCHAR kor_A3A6
ENCODING 41894
SWIDTH 903 0
DWIDTH 24 0
BBX 24 24 0 -2
BITMAP
000000
000000
007C00
01CE00
018700
038700
038700
038E00
01DC00
00F0FC
00F030
037030
073860
0E3860
0E1CC0
1C0EC0
1C0780
1C0786
0E05CE
071CFC
01F078
000000
000000
000000
ENDCHAR

STARTCHAR kor_A3A7
ENCODING 41895
SWIDTH 903 0
DWIDTH 24 0
BBX 24 24 0 -2
BITMAP
000000
0F0000
0F0000
070000
070000
060000
0C0000
000000
000000
000000
000000
000000
000000
000000
000000
000000
000000
000000
000000
000000
000000
000000
000000
000000
ENDCHAR

STARTCHAR kor_A3A8
ENCODING 41896
SWIDTH 903 0
DWIDTH 24 0
BBX 24 24 0 -2
BITMAP
000000
000018
000070
0000E0
0001C0
0001C0
000380
000380
000380
000700
000700
000700
000700
000700
000700
000380
000380
000380
0001C0
0001C0
0000E0
000070
000018
000000
ENDCHAR

STARTCHAR kor_A3A9
ENCODING 41897
SWIDTH 903 0
DWIDTH 24 0
BBX 24 24 0 -2
BITMAP
000000
0C0000
070000
038000
01C000
01C000
00E000
00E000
00E000
007000
007000
007000
007000
007000
007000
00E000
00E000
00E000
01C000
01C000
038000
070000
0C0000
000000
ENDCHAR

STARTCHAR kor_A3AA
ENCODING 41898
SWIDTH 903 0
DWIDTH 24 0
BBX 24 24 0 -2
BITMAP
000000
000000
000000
000000
000000
001800
003C00
003C00
0718E0
0799E0
01D780
003C00
003C00
01D780
0799E0
0718E0
003C00
003C00
001800
000000
000000
000000
000000
000000
ENDCHAR

STARTCHAR kor_A3AB
ENCODING 41899
SWIDTH 903 0
DWIDTH 24 0
BBX 24 24 0 -2
BITMAP
000000
000000
000000
000000
000000
001C00
001C00
001C00
001C00
001C00
001C00
07FFF0
07FFF0
001C00
001C00
001C00
001C00
001C00
001C00
000000
000000
000000
000000
000000
ENDCHAR

STARTCHAR kor_A3AC
ENCODING 41900
SWIDTH 903 0
DWIDTH 24 0
BBX 24 24 0 -2
BITMAP
000000
000000
000000
000000
000000
000000
000000
000000
000000
000000
000000
000000
000000
000000
000000
000000
000000
000000
0F0000
0F0000
070000
060000
0C0000
000000
ENDCHAR

STARTCHAR kor_A3AD
ENCODING 41901
SWIDTH 903 0
DWIDTH 24 0
BBX 24 24 0 -2
BITMAP
000000
000000
000000
000000
000000
000000
000000
000000
000000
000000
000000
07FFF0
07FFF0
000000
000000
000000
000000
000000
000000
000000
000000
000000
000000
000000
ENDCHAR

STARTCHAR kor_A3AE
ENCODING 41902
SWIDTH 903 0
DWIDTH 24 0
BBX 24 24 0 -2
BITMAP
000000
000000
000000
000000
000000
000000
000000
000000
000000
000000
000000
000000
000000
000000
000000
000000
000000
000000
000000
0F0000
0F0000
0F0000
000000
000000
ENDCHAR

STARTCHAR kor_A3AF
ENCODING 41903
SWIDTH 903 0
DWIDTH 24 0
BBX 24 24 0 -2
BITMAP
000000
000007
00000E
00001C
000038
000070
0000E0
0001C0
000380
000700
000E00
001C00
003800
007000
00E000
01C000
038000
070000
0E0000
1C0000
380000
700000
000000
000000
ENDCHAR

STARTCHAR kor_A3B0
ENCODING 41904
SWIDTH 903 0
DWIDTH 24 0
BBX 24 24 0 -2
BITMAP
000000
000000
000000
003E00
00E380
01C1C0
0380E0
0380E0
070070
070070
070070
070070
070070
070070
070070
070070
0380E0
0380E0
01C1C0
00E380
003E00
000000
000000
000000
ENDCHAR

STARTCHAR kor_A3B1
ENCODING 41905
SWIDTH 903 0
DWIDTH 24 0
BBX 24 24 0 -2
BITMAP
000000
000000
000000
001C00
007C00
01FC00
001C00
001C00
001C00
001C00
001C00
001C00
001C00
001C00
001C00
001C00
001C00
001C00
001C00
001C00
01FFC0
000000
000000
000000
ENDCHAR

STARTCHAR kor_A3B2
ENCODING 41906
SWIDTH 903 0
DWIDTH 24 0
BBX 24 24 0 -2
BITMAP
000000
000000
000000
007F00
01E1C0
0380E0
030070
060070
0000E0
0000E0
0001C0
000380
000700
000E00
001C00
003000
006030
00C030
018070
03FFF0
07FFF0
000000
000000
000000
ENDCHAR

STARTCHAR kor_A3B3
ENCODING 41907
SWIDTH 903 0
DWIDTH 24 0
BBX 24 24 0 -2
BITMAP
000000
000000
000000
007F00
01E7C0
0381E0
0601E0
0000E0
0000E0
0001C0
000780
007F00
0007C0
0001E0
0000F0
000070
0000F0
0000E0
0003C0
000F00
07F800
000000
000000
000000
ENDCHAR

STARTCHAR kor_A3B4
ENCODING 41908
SWIDTH 903 0
DWIDTH 24 0
BBX 24 24 0 -2
BITMAP
000000
000000
000000
0001C0
0003C0
0005C0
0005C0
000DC0
0019C0
0031C0
0061C0
00C1C0
00C1C0
0181C0
0301C0
0601C0
0FFFF8
0001C0
0001C0
0001C0
000FF8
000000
000000
000000
ENDCHAR

STARTCHAR kor_A3B5
ENCODING 41909
SWIDTH 903 0
DWIDTH 24 0
BBX 24 24 0 -2
BITMAP
000000
000000
000000
03FFF0
03FFE0
030000
030000
030000
030000
033F00
02FFC0
03C1E0
0300E0
000070
000070
000060
0000E0
0001C0
000380
001E00
03F000
000000
000000
000000
ENDCHAR

STARTCHAR kor_A3B6
ENCODING 41910
SWIDTH 903 0
DWIDTH 24 0
BBX 24 24 0 -2
BITMAP
000000
000000
000000
000F80
003800
00E000
01C000
038000
038000
070000
077F00
07C1C0
0700E0
0700E0
070070
070070
0380E0
0380E0
01C1C0
00E380
003E00
000000
000000
000000
ENDCHAR

STARTCHAR kor_A3B7
ENCODING 41911
SWIDTH 903 0
DWIDTH 24 0
BBX 24 24 0 -2
BITMAP
000000
000000
000000
07FFF0
07FFF0
070030
060060
0600C0
000180
000300
000700
000600
000E00
000C00
001C00
001C00
001C00
003800
003800
003800
003800
000000
000000
000000
ENDCHAR

STARTCHAR kor_A3B8
ENCODING 41912
SWIDTH 903 0
DWIDTH 24 0
BBX 24 24 0 -2
BITMAP
000000
000000
000000
007E00
01C380
0381C0
0700E0
0700E0
0780E0
03C1C0
01F700
007E00
00EF80
0383C0
0701E0
0E00F0
0E0070
0E0070
0700E0
0381C0
00FF00
000000
000000
000000
ENDCHAR

STARTCHAR kor_A3B9
ENCODING 41913
SWIDTH 903 0
DWIDTH 24 0
BBX 24 24 0 -2
BITMAP
000000
000000
000000
003E00
00E380
01C1C0
0380E0
0380E0
070070
070070
038070
038070
01C1F0
007F70
0000E0
0000E0
0001C0
000380
000700
003C00
03E000
000000
000000
000000
ENDCHAR

STARTCHAR kor_A3BA
ENCODING 41914
SWIDTH 903 0
DWIDTH 24 0
BBX 24 24 0 -2
BITMAP
000000
000000
000000
000000
000000
000000
003C00
003C00
003C00
000000
000000
000000
000000
000000
000000
000000
003C00
003C00
003C00
000000
000000
000000
000000
000000
ENDCHAR

STARTCHAR kor_A3BB
ENCODING 41915
SWIDTH 903 0
DWIDTH 24 0
BBX 24 24 0 -2
BITMAP
000000
000000
000000
000000
000000
000000
003C00
003C00
003C00
000000
000000
000000
000000
000000
000000
000000
003C00
003C00
001C00
001800
003000
000000
000000
000000
ENDCHAR

STARTCHAR kor_A3BC
ENCODING 41916
SWIDTH 903 0
DWIDTH 24 0
BBX 24 24 0 -2
BITMAP
000000
000000
000000
000018
000078
0001E0
000780
001E00
007800
01E000
078000
1E0000
078000
01E000
007800
001E00
000780
0001E0
000078
000018
000000
000000
000000
000000
ENDCHAR

STARTCHAR kor_A3BD
ENCODING 41917
SWIDTH 903 0
DWIDTH 24 0
BBX 24 24 0 -2
BITMAP
000000
000000
000000
000000
000000
000000
000000
000000
0FFFF0
0FFFF0
000000
000000
000000
0FFFF0
0FFFF0
000000
000000
000000
000000
000000
000000
000000
000000
000000
ENDCHAR

STARTCHAR kor_A3BE
ENCODING 41918
SWIDTH 903 0
DWIDTH 24 0
BBX 24 24 0 -2
BITMAP
000000
000000
000000
0C0000
0F0000
03C000
00F000
003C00
000F00
0003C0
0000F0
00003C
0000F0
0003C0
000F00
003C00
00F000
03C000
0F0000
0C0000
000000
000000
000000
000000
ENDCHAR

STARTCHAR kor_A3BF
ENCODING 41919
SWIDTH 903 0
DWIDTH 24 0
BBX 24 24 0 -2
BITMAP
000000
000000
000000
003E00
00E380
01C1C0
0380E0
03C0E0
01C0E0
0001C0
000380
000700
000E00
000C00
001800
001800
000000
000000
003C00
003C00
003C00
000000
000000
000000
ENDCHAR

STARTCHAR kor_A3C0
ENCODING 41920
SWIDTH 903 0
DWIDTH 24 0
BBX 24 24 0 -2
BITMAP
000000
000000
000000
007F00
01F1C0
03C060
078030
0F1DD8
0E3BD8
1C71CC
1CE1CC
18E38C
19C398
19C398
19C7B0
0CCB60
0C79C0
060018
030030
01C0E0
007F80
000000
000000
000000
ENDCHAR

STARTCHAR kor_A3C1
ENCODING 41921
SWIDTH 903 0
DWIDTH 24 0
BBX 24 24 0 -2
BITMAP
000000
000000
000000
001800
001C00
003C00
002E00
002E00
006700
006700
00C380
00C380
0181C0
0181C0
01FFC0
0300E0
0300E0
060070
060070
0E0078
3F81FE
000000
000000
000000
ENDCHAR

STARTCHAR kor_A3C2
ENCODING 41922
SWIDTH 903 0
DWIDTH 24 0
BBX 24 24 0 -2
BITMAP
000000
000000
000000
0FFF00
0381C0
0380E0
038070
038070
038070
0380E0
0380C0
03FF80
0380E0
038070
038038
038038
038038
038038
038070
0380E0
0FFF80
000000
000000
000000
ENDCHAR

STARTCHAR kor_A3C3
ENCODING 41923
SWIDTH 903 0
DWIDTH 24 0
BBX 24 24 0 -2
BITMAP
000000
000000
000000
003E00
00E3B0
01C0F0
038070
070030
070030
0E0000
0E0000
0E0000
0E0000
0E0000
0E0000
070000
070018
038030
01C060
00E1C0
003F00
000000
000000
000000
ENDCHAR

STARTCHAR kor_A3C4
ENCODING 41924
SWIDTH 903 0
DWIDTH 24 0
BBX 24 24 0 -2
BITMAP
000000
000000
000000
0FFC00
038700
0381C0
0380E0
038070
038070
038038
038038
038038
038038
038038
038038
038070
038070
0380E0
0381C0
038700
0FFC00
000000
000000
000000
ENDCHAR

STARTCHAR kor_A3C5
ENCODING 41925
SWIDTH 903 0
DWIDTH 24 0
BBX 24 24 0 -2
BITMAP
000000
000000
000000
0FFFF0
038070
038030
038030
038000
038300
038300
038700
03FF00
038700
038300
038300
038000
038030
038030
038030
038070
0FFFF0
000000
000000
000000
ENDCHAR

STARTCHAR kor_A3C6
ENCODING 41926
SWIDTH 903 0
DWIDTH 24 0
BBX 24 24 0 -2
BITMAP
000000
000000
000000
0FFFF0
038070
038030
038030
038030
038300
038300
038700
03FF00
038700
038300
038300
038000
038000
038000
038000
038000
0FE000
000000
000000
000000
ENDCHAR

STARTCHAR kor_A3C7
ENCODING 41927
SWIDTH 903 0
DWIDTH 24 0
BBX 24 24 0 -2
BITMAP
000000
000000
000000
003E00
00E3B0
01C0F0
038070
070030
070030
0E0000
0E0000
0E0000
0E03FE
0E0070
0E0070
070070
070070
038070
01C0F0
00E3B0
003E30
000000
000000
000000
ENDCHAR

STARTCHAR kor_A3C8
ENCODING 41928
SWIDTH 903 0
DWIDTH 24 0
BBX 24 24 0 -2
BITMAP
000000
000000
000000
0FE1FC
038070
038070
038070
038070
038070
038070
038070
03FFF0
038070
038070
038070
038070
038070
038070
038070
038070
0FE1FC
000000
000000
000000
ENDCHAR

STARTCHAR kor_A3C9
ENCODING 41929
SWIDTH 903 0
DWIDTH 24 0
BBX 24 24 0 -2
BITMAP
000000
000000
000000
00FF80
001C00
001C00
001C00
001C00
001C00
001C00
001C00
001C00
001C00
001C00
001C00
001C00
001C00
001C00
001C00
001C00
00FF80
000000
000000
000000
ENDCHAR

STARTCHAR kor_A3CA
ENCODING 41930
SWIDTH 903 0
DWIDTH 24 0
BBX 24 24 0 -2
BITMAP
000000
000000
000000
001FF0
000380
000380
000380
000380
000380
000380
000380
000380
000380
000380
000380
000380
070380
070380
038700
01C700
007C00
000000
000000
000000
ENDCHAR

STARTCHAR kor_A3CB
ENCODING 41931
SWIDTH 903 0
DWIDTH 24 0
BBX 24 24 0 -2
BITMAP
000000
000000
000000
1FC7F0
0701C0
070180
070300
070600
070C00
071800
073000
076000
06F000
07B800
071C00
070E00
070700
070380
0701C0
0700E0
1FC3FC
000000
000000
000000
ENDCHAR

STARTCHAR kor_A3CC
ENCODING 41932
SWIDTH 903 0
DWIDTH 24 0
BBX 24 24 0 -2
BITMAP
000000
000000
000000
0FE000
038000
038000
038000
038000
038000
038000
038000
038000
038000
038000
038000
038000
038030
038030
038030
038070
0FFFF0
000000
000000
000000
ENDCHAR

STARTCHAR kor_A3CD
ENCODING 41933
SWIDTH 903 0
DWIDTH 24 0
BBX 24 24 0 -2
BITMAP
000000
000000
000000
3F80FE
0B80B8
0B80B8
0B80B8
0DC1B8
0DC1B8
0DC1B8
0CE338
0CE338
0CE338
0C7638
0C7638
0C7638
0C2C38
0C3C38
0C3C38
0C1838
3F18FE
000000
000000
000000
ENDCHAR

STARTCHAR kor_A3CE
ENCODING 41934
SWIDTH 903 0
DWIDTH 24 0
BBX 24 24 0 -2
BITMAP
000000
000000
000000
0F80FC
038030
03C030
03C030
02E030
037030
037830
033830
031C30
030E30
030730
0307B0
0303B0
0301F0
0300F0
0300F0
030070
0FC030
000000
000000
000000
ENDCHAR

STARTCHAR kor_A3CF
ENCODING 41935
SWIDTH 903 0
DWIDTH 24 0
BBX 24 24 0 -2
BITMAP
000000
000000
000000
007F00
01C1C0
0380E0
070070
070070
0E0038
0E0038
0E0038
0E0038
0E0038
0E0038
0E0038
0E0038
070070
070070
0380E0
01C1C0
007F00
000000
000000
000000
ENDCHAR

STARTCHAR kor_A3D0
ENCODING 41936
SWIDTH 903 0
DWIDTH 24 0
BBX 24 24 0 -2
BITMAP
000000
000000
000000
07FF80
01C0E0
01C070
01C038
01C038
01C038
01C038
01C070
01C0E0
01FF80
01C000
01C000
01C000
01C000
01C000
01C000
01C000
07F000
000000
000000
000000
ENDCHAR

STARTCHAR kor_A3D1
ENCODING 41937
SWIDTH 903 0
DWIDTH 24 0
BBX 24 24 0 -2
BITMAP
000000
000000
000000
007F00
01C1C0
0380E0
070070
070070
0E0038
0E0038
0E0038
0E0038
0E0038
0E0038
0E0038
0E0038
073C70
076770
03C360
00E3C0
003FCC
0001CC
000078
000000
ENDCHAR

STARTCHAR kor_A3D2
ENCODING 41938
SWIDTH 903 0
DWIDTH 24 0
BBX 24 24 0 -2
BITMAP
000000
000000
000000
0FFF00
0381C0
0380E0
038070
038070
038070
0380E0
038380
03FE00
038300
038180
0381C0
0381C0
0381C0
0381C0
0381C6
0381EC
0FE0F8
000000
000000
000000
ENDCHAR

STARTCHAR kor_A3D3
ENCODING 41939
SWIDTH 903 0
DWIDTH 24 0
BBX 24 24 0 -2
BITMAP
000000
000000
000000
007C60
01C7E0
0381E0
0700E0
070060
078000
03E000
00F800
003F00
000FC0
0001E0
0000F0
060070
060070
070070
0780E0
07E1C0
063F00
000000
000000
000000
ENDCHAR

STARTCHAR kor_A3D4
ENCODING 41940
SWIDTH 903 0
DWIDTH 24 0
BBX 24 24 0 -2
BITMAP
000000
000000
000000
0FFFF8
0E1C38
0C1C18
0C1C18
0C1C18
001C00
001C00
001C00
001C00
001C00
001C00
001C00
001C00
001C00
001C00
001C00
001C00
007F00
000000
000000
000000
ENDCHAR

STARTCHAR kor_A3D5
ENCODING 41941
SWIDTH 903 0
DWIDTH 24 0
BBX 24 24 0 -2
BITMAP
000000
000000
000000
0FE0FC
038030
038030
038030
038030
038030
038030
038030
038030
038030
038030
038030
038030
038030
01C060
01C060
00F1C0
003F00
000000
000000
000000
ENDCHAR

STARTCHAR kor_A3D6
ENCODING 41942
SWIDTH 903 0
DWIDTH 24 0
BBX 24 24 0 -2
BITMAP
000000
000000
000000
3FC0FE
0F0038
070030
070030
038060
038060
038060
01C0C0
01C0C0
00E180
00E180
007300
007300
003600
003600
001E00
001C00
000C00
000000
000000
000000
ENDCHAR

STARTCHAR kor_A3D7
ENCODING 41943
SWIDTH 903 0
DWIDTH 24 0
BBX 24 24 0 -2
BITMAP
000000
000000
000000
7F7F7E
1C1C18
1C1C18
1C1C18
1C2E18
0E2E30
0E2E30
0E2E30
0E6730
076760
076760
076760
076760
03C3C0
03C3C0
03C3C0
018180
018180
000000
000000
000000
ENDCHAR

STARTCHAR kor_A3D8
ENCODING 41944
SWIDTH 903 0
DWIDTH 24 0
BBX 24 24 0 -2
BITMAP
000000
000000
000000
1FC0FC
078070
038060
01C0C0
01E180
00E180
007300
003E00
001C00
001E00
003700
006380
00C3C0
00C1C0
0180E0
030070
070078
1F80FE
000000
000000
000000
ENDCHAR

STARTCHAR kor_A3D9
ENCODING 41945
SWIDTH 903 0
DWIDTH 24 0
BBX 24 24 0 -2
BITMAP
000000
000000
000000
1FE0FC
078030
038060
03C0C0
01C0C0
00E180
00F300
007300
003600
003C00
001C00
001C00
001C00
001C00
001C00
001C00
001C00
007F00
000000
000000
000000
ENDCHAR

STARTCHAR kor_A3DA
ENCODING 41946
SWIDTH 903 0
DWIDTH 24 0
BBX 24 24 0 -2
BITMAP
000000
000000
000000
07FFF0
0701E0
0603C0
060380
060700
000F00
000E00
001C00
003800
007800
007000
00E000
01E000
01C030
038030
078030
070070
0FFFF0
000000
000000
000000
ENDCHAR

STARTCHAR kor_A3DB
ENCODING 41947
SWIDTH 903 0
DWIDTH 24 0
BBX 24 24 0 -2
BITMAP
000000
0007F8
000700
000700
000700
000700
000700
000700
000700
000700
000700
000700
000700
000700
000700
000700
000700
000700
000700
000700
000700
000700
0007F8
000000
ENDCHAR

STARTCHAR kor_A3DC
ENCODING 41948
SWIDTH 903 0
DWIDTH 24 0
BBX 24 24 0 -2
BITMAP
000000
000000
000000
7F7F7E
1C1C18
1C1C18
1C1C18
1C2E18
7FFFFE
0E2E30
0E2E30
0E6730
7FFFFE
076760
076760
076760
03C3C0
03C3C0
03C3C0
018180
018180
000000
000000
000000
ENDCHAR

STARTCHAR kor_A3DD
ENCODING 41949
SWIDTH 903 0
DWIDTH 24 0
BBX 24 24 0 -2
BITMAP
000000
0FF000
007000
007000
007000
007000
007000
007000
007000
007000
007000
007000
007000
007000
007000
007000
007000
007000
007000
007000
007000
007000
0FF000
000000
ENDCHAR

STARTCHAR kor_A3DE
ENCODING 41950
SWIDTH 903 0
DWIDTH 24 0
BBX 24 24 0 -2
BITMAP
001800
003C00
006E00
00E700
000000
000000
000000
000000
000000
000000
000000
000000
000000
000000
000000
000000
000000
000000
000000
000000
000000
000000
000000
000000
ENDCHAR

STARTCHAR kor_A3DF
ENCODING 41951
SWIDTH 903 0
DWIDTH 24 0
BBX 24 24 0 -2
BITMAP
000000
000000
000000
000000
000000
000000
000000
000000
000000
000000
000000
000000
000000
000000
000000
000000
000000
000000
000000
000000
000000
000000
7FFFFF
000000
ENDCHAR

STARTCHAR kor_A3E0
ENCODING 41952
SWIDTH 903 0
DWIDTH 24 0
BBX 24 24 0 -2
BITMAP
007800
003C00
000E00
000300
000000
000000
000000
000000
000000
000000
000000
000000
000000
000000
000000
000000
000000
000000
000000
000000
000000
000000
000000
000000
ENDCHAR

STARTCHAR kor_A3E1
ENCODING 41953
SWIDTH 903 0
DWIDTH 24 0
BBX 24 24 0 -2
BITMAP
000000
000000
000000
000000
000000
000000
000000
000000
00FE00
03C380
0381C0
0001C0
0001C0
001FC0
00F1C0
0381C0
0701C0
0701C0
0701D8
0387D8
00FCF0
000000
000000
000000
ENDCHAR

STARTCHAR kor_A3E2
ENCODING 41954
SWIDTH 903 0
DWIDTH 24 0
BBX 24 24 0 -2
BITMAP
000000
000000
000000
038000
0F8000
038000
038000
038000
038000
039F00
0371C0
03C0E0
0380E0
038070
038070
038070
038070
0380E0
0380E0
03E1C0
033F00
000000
000000
000000
ENDCHAR

STARTCHAR kor_A3E3
ENCODING 41955
SWIDTH 903 0
DWIDTH 24 0
BBX 24 24 0 -2
BITMAP
000000
000000
000000
000000
000000
000000
000000
000000
003F00
00E1C0
01C0E0
0380E0
038000
070000
070000
070000
038000
038000
01C060
00E1C0
003F00
000000
000000
000000
ENDCHAR

STARTCHAR kor_A3E4
ENCODING 41956
SWIDTH 903 0
DWIDTH 24 0
BBX 24 24 0 -2
BITMAP
000000
000000
000000
0000E0
0003E0
0000E0
0000E0
0000E0
0000E0
007CE0
01C6E0
0381E0
0380E0
0700E0
0700E0
0700E0
0700E0
0380E0
0380E0
01C3E0
007EF8
000000
000000
000000
ENDCHAR

STARTCHAR kor_A3E5
ENCODING 41957
SWIDTH 903 0
DWIDTH 24 0
BBX 24 24 0 -2
BITMAP
000000
000000
000000
000000
000000
000000
000000
000000
003E00
00E380
01C1C0
0381C0
0380E0
07FFE0
070000
070000
038000
038060
01C0C0
00E380
003E00
000000
000000
000000
ENDCHAR

STARTCHAR kor_A3E6
ENCODING 41958
SWIDTH 903 0
DWIDTH 24 0
BBX 24 24 0 -2
BITMAP
000000
000000
000000
000780
001CE0
0038E0
003800
003800
003800
03FF80
003800
003800
003800
003800
003800
003800
003800
003800
003800
003800
01FF00
000000
000000
000000
ENDCHAR

STARTCHAR kor_A3E7
ENCODING 41959
SWIDTH 903 0
DWIDTH 24 0
BBX 24 24 0 -2
BITMAP
000000
000000
000000
000000
000000
000000
000000
000070
007EF8
01C3B8
0381C0
0381C0
01C380
007E00
00C000
01C000
00FF80
01BFE0
0300F0
070070
070070
0380E0
00FF80
000000
ENDCHAR

STARTCHAR kor_A3E8
ENCODING 41960
SWIDTH 903 0
DWIDTH 24 0
BBX 24 24 0 -2
BITMAP
000000
000000
000000
038000
0F8000
038000
038000
038000
038000
039F00
0371C0
03C0E0
0380E0
0380E0
0380E0
0380E0
0380E0
0380E0
0380E0
0380E0
0FE3F8
000000
000000
000000
ENDCHAR

STARTCHAR kor_A3E9
ENCODING 41961
SWIDTH 903 0
DWIDTH 24 0
BBX 24 24 0 -2
BITMAP
000000
000000
000000
003C00
003C00
003C00
000000
000000
000000
001C00
007C00
001C00
001C00
001C00
001C00
001C00
001C00
001C00
001C00
001C00
00FF80
000000
000000
000000
ENDCHAR

STARTCHAR kor_A3EA
ENCODING 41962
SWIDTH 903 0
DWIDTH 24 0
BBX 24 24 0 -2
BITMAP
000000
000000
000000
000F00
000F00
000F00
000000
000000
000000
000700
001F00
000700
000700
000700
000700
000700
000700
000700
000700
070700
070700
038E00
00FC00
000000
ENDCHAR

STARTCHAR kor_A3EB
ENCODING 41963
SWIDTH 903 0
DWIDTH 24 0
BBX 24 24 0 -2
BITMAP
000000
000000
000000
038000
0F8000
038000
038000
038000
038000
0387F0
038180
038300
038600
038C00
03B800
037C00
03CE00
038700
038380
0381C0
0FE7F8
000000
000000
000000
ENDCHAR

STARTCHAR kor_A3EC
ENCODING 41964
SWIDTH 903 0
DWIDTH 24 0
BBX 24 24 0 -2
BITMAP
000000
000000
000000
001C00
007C00
001C00
001C00
001C00
001C00
001C00
001C00
001C00
001C00
001C00
001C00
001C00
001C00
001C00
001C00
001C00
007F00
000000
000000
000000
ENDCHAR

STARTCHAR kor_A3ED
ENCODING 41965
SWIDTH 903 0
DWIDTH 24 0
BBX 24 24 0 -2
BITMAP
000000
000000
000000
000000
000000
000000
000000
000000
0EF1E0
3F9730
0E1C38
0E1C38
0E1C38
0E1C38
0E1C38
0E1C38
0E1C38
0E1C38
0E1C38
0E1C38
3F3E7E
000000
000000
000000
ENDCHAR

STARTCHAR kor_A3EE
ENCODING 41966
SWIDTH 903 0
DWIDTH 24 0
BBX 24 24 0 -2
BITMAP
000000
000000
000000
000000
000000
000000
000000
000000
01DF00
07F1C0
01C0E0
01C0E0
01C0E0
01C0E0
01C0E0
01C0E0
01C0E0
01C0E0
01C0E0
01C0E0
07F3F8
000000
000000
000000
ENDCHAR

STARTCHAR kor_A3EF
ENCODING 41967
SWIDTH 903 0
DWIDTH 24 0
BBX 24 24 0 -2
BITMAP
000000
000000
000000
000000
000000
000000
000000
000000
003E00
00E380
01C1C0
0380E0
0380E0
070070
070070
070070
0380E0
0380E0
01C1C0
00E380
003E00
000000
000000
000000
ENDCHAR

STARTCHAR kor_A3F0
ENCODING 41968
SWIDTH 903 0
DWIDTH 24 0
BBX 24 24 0 -2
BITMAP
000000
000000
000000
000000
000000
000000
000000
000000
039F00
0F71C0
03C0E0
0380E0
038070
038070
038070
0380E0
0380E0
03E1C0
03BF00
038000
038000
038000
0FE000
000000
ENDCHAR

STARTCHAR kor_A3F1
ENCODING 41969
SWIDTH 903 0
DWIDTH 24 0
BBX 24 24 0 -2
BITMAP
000000
000000
000000
000000
000000
000000
000000
000000
007E60
01C3E0
0380E0
0380E0
0700E0
0700E0
0700E0
0380E0
0380E0
01C3E0
007EE0
0000E0
0000E0
0000E0
0003F8
000000
ENDCHAR

STARTCHAR kor_A3F2
ENCODING 41970
SWIDTH 903 0
DWIDTH 24 0
BBX 24 24 0 -2
BITMAP
000000
000000
000000
000000
000000
000000
000000
000000
00E1E0
03E7F0
00EE70
00D800
00F000
00E000
00E000
00E000
00E000
00E000
00E000
00E000
03F800
000000
000000
000000
ENDCHAR

STARTCHAR kor_A3F3
ENCODING 41971
SWIDTH 903 0
DWIDTH 24 0
BBX 24 24 0 -2
BITMAP
000000
000000
000000
000000
000000
000000
000000
000000
007EC0
01C3C0
0381C0
0380C0
03C000
01FC00
007F80
0007C0
0001E0
0300E0
0380E0
03C1C0
037F00
000000
000000
000000
ENDCHAR

STARTCHAR kor_A3F4
ENCODING 41972
SWIDTH 903 0
DWIDTH 24 0
BBX 24 24 0 -2
BITMAP
000000
000000
000000
007000
007000
007000
007000
007000
07FF80
007000
007000
007000
007000
007000
007000
007000
007000
007060
007060
0038C0
000F80
000000
000000
000000
ENDCHAR

STARTCHAR kor_A3F5
ENCODING 41973
SWIDTH 903 0
DWIDTH 24 0
BBX 24 24 0 -2
BITMAP
000000
000000
000000
000000
000000
000000
000000
000000
0381C0
0F87C0
0381C0
0381C0
0381C0
0381C0
0381C0
0381C0
0381C0
0381C0
0381C0
01C7C0
007DF0
000000
000000
000000
ENDCHAR

STARTCHAR kor_A3F6
ENCODING 41974
SWIDTH 903 0
DWIDTH 24 0
BBX 24 24 0 -2
BITMAP
000000
000000
000000
000000
000000
000000
000000
000000
0FE1F8
038060
01C060
01C0C0
00E0C0
00E180
007180
007300
003B00
003600
001E00
001C00
000C00
000000
000000
000000
ENDCHAR

STARTCHAR kor_A3F7
ENCODING 41975
SWIDTH 903 0
DWIDTH 24 0
BBX 24 24 0 -2
BITMAP
000000
000000
000000
000000
000000
000000
000000
000000
7F7F7F
1C1C1C
1C1C18
0E2E18
0E2E18
0E3730
076730
0763B0
076360
02C160
03C1E0
0180C0
0180C0
000000
000000
000000
ENDCHAR

STARTCHAR kor_A3F8
ENCODING 41976
SWIDTH 903 0
DWIDTH 24 0
BBX 24 24 0 -2
BITMAP
000000
000000
000000
000000
000000
000000
000000
000000
0FF3F8
03C0C0
01E180
00F300
007600
003C00
001E00
002F00
006780
00C3C0
0181E0
0300F0
0FC3FC
000000
000000
000000
ENDCHAR

STARTCHAR kor_A3F9
ENCODING 41977
SWIDTH 903 0
DWIDTH 24 0
BBX 24 24 0 -2
BITMAP
000000
000000
000000
000000
000000
000000
000000
000000
07F1F8
01C060
01C0C0
00E0C0
00E180
007180
007300
003B00
003600
001E00
000C00
001800
071800
073000
03E000
000000
ENDCHAR

STARTCHAR kor_A3FA
ENCODING 41978
SWIDTH 903 0
DWIDTH 24 0
BBX 24 24 0 -2
BITMAP
000000
000000
000000
000000
000000
000000
000000
000000
03FFE0
0383C0
030780
060700
000F00
001E00
003C00
007800
007000
00F030
01E060
03C0E0
07FFE0
000000
000000
000000
ENDCHAR

STARTCHAR kor_A3FB
ENCODING 41979
SWIDTH 903 0
DWIDTH 24 0
BBX 24 24 0 -2
BITMAP
000000
000060
0000C0
0000C0
0001C0
0001C0
0001C0
0001C0
0001C0
000180
000300
000600
000300
000180
0001C0
0001C0
0001C0
0001C0
0001C0
0001C0
0000C0
0000C0
000060
000000
ENDCHAR

STARTCHAR kor_A3FC
ENCODING 41980
SWIDTH 903 0
DWIDTH 24 0
BBX 24 24 0 -2
BITMAP
000000
001C00
001C00
001C00
001C00
001C00
001C00
001C00
001C00
001C00
001C00
001C00
001C00
001C00
001C00
001C00
001C00
001C00
001C00
001C00
001C00
001C00
001C00
000000
ENDCHAR

STARTCHAR kor_A3FD
ENCODING 41981
SWIDTH 903 0
DWIDTH 24 0
BBX 24 24 0 -2
BITMAP
000000
030000
018000
018000
01C000
01C000
01C000
01C000
01C000
00C000
006000
003000
006000
00C000
01C000
01C000
01C000
01C000
01C000
01C000
018000
018000
030000
000000
ENDCHAR

STARTCHAR kor_A3FE
ENCODING 41982
SWIDTH 903 0
DWIDTH 24 0
BBX 24 24 0 -2
BITMAP
000000
01FFC0
000000
000000
000000
000000
000000
000000
000000
000000
000000
000000
000000
000000
000000
000000
000000
000000
000000
000000
000000
000000
000000
000000
ENDCHAR

STARTCHAR kor_A4A1
ENCODING 42145
SWIDTH 903 0
DWIDTH 24 0
BBX 24 24 0 -2
BITMAP
000000
000000
000000
000000
0C0038
07FFFC
030038
000038
000038
000038
000038
000038
000038
000038
000038
000038
000038
000038
000038
000038
000030
000030
000000
000000
ENDCHAR

STARTCHAR kor_A4A2
ENCODING 42146
SWIDTH 903 0
DWIDTH 24 0
BBX 24 24 0 -2
BITMAP
000000
000000
000000
000000
000000
383C38
1FF7FC
0E7338
007038
007038
007038
007038
007038
007038
007038
007038
007038
007038
007038
006030
006030
000000
000000
000000
ENDCHAR

STARTCHAR kor_A4A3
ENCODING 42147
SWIDTH 903 0
DWIDTH 24 0
BBX 24 24 0 -2
BITMAP
000000
000000
000000
000000
0001E0
6070F0
3FF8F0
1870F0
0070F0
0070E0
0071E0
0071C0
0071C0
007380
0073E0
007738
00771E
006E0F
007C0F
007806
006000
000000
000000
000000
ENDCHAR

STARTCHAR kor_A4A4
ENCODING 42148
SWIDTH 903 0
DWIDTH 24 0
BBX 24 24 0 -2
BITMAP
000000
000000
000000
000000
000000
000000
1E0000
070000
070000
070000
070000
070000
070000
070000
070000
070000
070000
070000
070000
070038
03FFFC
000000
000000
000000
ENDCHAR

STARTCHAR kor_A4A5
ENCODING 42149
SWIDTH 903 0
DWIDTH 24 0
BBX 24 24 0 -2
BITMAP
000000
000000
000000
000000
000000
003018
781FFC
1C0C78
1C0078
1C0070
1C00E0
1C00E0
1C01C0
1C01C0
1C0380
1C06F0
1C6E3C
1FDC1E
0F381F
00600E
01C000
000000
000000
000000
ENDCHAR

STARTCHAR kor_A4A6
ENCODING 42150
SWIDTH 903 0
DWIDTH 24 0
BBX 24 24 0 -2
BITMAP
000000
000000
000000
000000
000600
0003F0
0001E0
780000
1C0006
1C3FFF
1C1800
1C0000
1C01E0
1C0738
1C0E1C
1C0E1C
1C0E1C
1C0E1C
1C6E1C
1FC738
0F01E0
000000
000000
000000
ENDCHAR

STARTCHAR kor_A4A7
ENCODING 42151
SWIDTH 903 0
DWIDTH 24 0
BBX 24 24 0 -2
BITMAP
000000
000000
000000
000000
000000
000000
1E0030
07FFF8
070000
070000
070000
070000
070000
070000
070000
070000
070000
070000
070000
070038
03FFFC
000000
000000
000000
ENDCHAR

STARTCHAR kor_A4A8
ENCODING 42152
SWIDTH 903 0
DWIDTH 24 0
BBX 24 24 0 -2
BITMAP
000000
000000
000000
000000
000000
000000
3C1C18
0FEFFC
0E0E00
0E0E00
0E0E00
0E0E00
0E0E00
0E0E00
0E0E00
0E0E00
0E0E00
0E0E00
0E1E1C
0FF3FE
07C000
000000
000000
000000
ENDCHAR

STARTCHAR kor_A4A9
ENCODING 42153
SWIDTH 903 0
DWIDTH 24 0
BBX 24 24 0 -2
BITMAP
000000
000000
000000
000000
000000
180070
0FFFF8
060070
000070
000070
000060
000060
1FFFF0
070000
070000
070000
070000
070000
070000
070038
03FFFC
000000
000000
000000
ENDCHAR

STARTCHAR kor_A4AA
ENCODING 42154
SWIDTH 903 0
DWIDTH 24 0
BBX 24 24 0 -2
BITMAP
000000
000000
000000
000000
000000
606C1C
3FF7FE
18701C
00701C
00701C
00601C
00601C
7FF01C
1C001C
1C001C
1C001C
1C001C
1C001C
1C1E1C
1FF01C
0F8018
000000
000000
000000
ENDCHAR

STARTCHAR kor_A4AB
ENCODING 42155
SWIDTH 903 0
DWIDTH 24 0
BBX 24 24 0 -2
BITMAP
000000
000000
000000
000000
000000
607000
3FFE06
1877FF
00770E
00770E
00670E
00670E
7FF70E
1C070E
1C070C
1C070C
1C070C
1C070C
1C3FFE
1FE700
0F0300
000000
000000
000000
ENDCHAR

STARTCHAR kor_A4AC
ENCODING 42156
SWIDTH 903 0
DWIDTH 24 0
BBX 24 24 0 -2
BITMAP
000000
000000
000000
000000
000038
00001E
606E0E
3FF70E
18770E
00770E
00670E
00670E
7FF7FE
1C070E
1C070E
1C070E
1C070E
1C070E
1C3FFE
1FE70E
0F030C
000000
000000
000000
ENDCHAR

STARTCHAR kor_A4AD
ENCODING 42157
SWIDTH 903 0
DWIDTH 24 0
BBX 24 24 0 -2
BITMAP
000000
000000
000000
000000
0001E0
6070F0
3FF8F0
1870F0
0070F0
0060E0
0060E0
7FF0C0
1C01C0
1C01C0
1C0380
1C03E0
1C0738
1C071E
1C3E0F
1FEC0F
0F9806
007000
000000
000000
ENDCHAR

STARTCHAR kor_A4AE
ENCODING 42158
SWIDTH 903 0
DWIDTH 24 0
BBX 24 24 0 -2
BITMAP
000000
000000
000000
000000
000000
606E0C
3FF7FE
187700
007700
006700
00670C
7FF7FE
1C0700
1C0700
1C0700
1C0700
1C0700
1C070E
1C1BFF
1FF000
0F8000
000000
000000
000000
ENDCHAR

STARTCHAR kor_A4AF
ENCODING 42159
SWIDTH 903 0
DWIDTH 24 0
BBX 24 24 0 -2
BITMAP
000000
000000
000000
000000
003000
60780E
3FFFFF
187000
007000
00603C
00601E
005E1E
7FEF1C
1C071C
1C0338
1C0338
1C0330
1C0036
1C3FFF
1FFC00
0F8000
000000
000000
000000
ENDCHAR

STARTCHAR kor_A4B0
ENCODING 42160
SWIDTH 903 0
DWIDTH 24 0
BBX 24 24 0 -2
BITMAP
000000
000000
000000
000000
000600
0003F0
6071E0
3FF800
187006
007FFF
006000
006000
7FF1E0
1C0738
1C0E1C
1C0E1C
1C0E1C
1C0E1C
1C3E1C
1FE738
0F81E0
000000
000000
000000
ENDCHAR

STARTCHAR kor_A4B1
ENCODING 42161
SWIDTH 903 0
DWIDTH 24 0
BBX 24 24 0 -2
BITMAP
000000
000000
000000
000000
000000
000000
1E0070
07FFF8
070070
070070
070070
070070
070070
070070
070070
070060
070060
070060
070060
07FFF0
070000
030000
000000
000000
ENDCHAR

STARTCHAR kor_A4B2
ENCODING 42162
SWIDTH 903 0
DWIDTH 24 0
BBX 24 24 0 -2
BITMAP
000000
000000
000000
000000
0000E0
000078
1C0038
0F0038
070038
070038
070038
070038
070038
07FFF8
070038
070038
070038
070038
070038
07FFF8
070038
030030
000000
000000
ENDCHAR

STARTCHAR kor_A4B3
ENCODING 42163
SWIDTH 903 0
DWIDTH 24 0
BBX 24 24 0 -2
BITMAP
000000
000000
000000
000070
00003C
006E1C
38371C
1E371C
0E371C
0E371C
0E371C
0E371C
0FF7FC
0E371C
0E371C
0E371C
0E371C
0E371C
0E371C
0FF7FC
0E371C
063318
000000
000000
ENDCHAR

STARTCHAR kor_A4B4
ENCODING 42164
SWIDTH 903 0
DWIDTH 24 0
BBX 24 24 0 -2
BITMAP
000000
000000
000000
000000
0001E0
01C0F0
00F0F0
7070F0
3C70F0
1C70E0
1C70E0
1C71C0
1FF1C0
1C7380
1C73E0
1C7738
1C771E
1C6E0F
1FFC0F
1C5806
0C7000
000000
000000
000000
ENDCHAR

STARTCHAR kor_A4B5
ENCODING 42165
SWIDTH 903 0
DWIDTH 24 0
BBX 24 24 0 -2
BITMAP
000000
000000
000000
001E00
000F00
000F00
000F00
001E00
001E00
001C00
001C00
003C00
003800
006F00
00E380
01C1E0
0380F0
070078
0E007C
1C007C
700038
000000
000000
000000
ENDCHAR

STARTCHAR kor_A4B6
ENCODING 42166
SWIDTH 903 0
DWIDTH 24 0
BBX 24 24 0 -2
BITMAP
000000
000000
000000
0003C0
0001E0
01E1E0
00F1E0
00F1E0
00F1C0
00E3C0
00E380
01C380
03C700
03E780
077FC0
0E3E78
1C1C7C
70383E
00703E
00E01C
038000
000000
000000
000000
ENDCHAR

STARTCHAR kor_A4B7
ENCODING 42167
SWIDTH 903 0
DWIDTH 24 0
BBX 24 24 0 -2
BITMAP
000000
000000
000000
000000
001E00
000F00
001E00
003F00
01E1E0
01C0E0
038070
038070
070038
070038
070038
070038
038070
038070
01C0E0
01E1E0
003F00
000000
000000
000000
ENDCHAR

STARTCHAR kor_A4B8
ENCODING 42168
SWIDTH 903 0
DWIDTH 24 0
BBX 24 24 0 -2
BITMAP
000000
000000
000000
000000
000000
060060
03FFF8
01C0F0
0000E0
0001E0
0001C0
0003C0
000380
000700
000E00
001F80
0039F0
00707C
00E03E
03803C
0E0000
380000
000000
000000
ENDCHAR

STARTCHAR kor_A4B9
ENCODING 42169
SWIDTH 903 0
DWIDTH 24 0
BBX 24 24 0 -2
BITMAP
000000
000000
000000
000000
001818
0C2FFC
07FC78
033870
0038F0
0070E0
0071C0
00E1C0
01FB80
03BFE0
071F7C
0E0E1E
1C1C0F
70380F
007006
00E000
038000
000000
000000
000000
ENDCHAR

STARTCHAR kor_A4BA
ENCODING 42170
SWIDTH 903 0
DWIDTH 24 0
BBX 24 24 0 -2
BITMAP
000000
000000
000000
006000
003F80
001F00
000000
060060
03FFF0
0180E0
0001E0
0001C0
000380
000380
000F00
001E00
003F00
0079E0
00E078
01C07C
070038
3C0000
000000
000000
ENDCHAR

STARTCHAR kor_A4BB
ENCODING 42171
SWIDTH 903 0
DWIDTH 24 0
BBX 24 24 0 -2
BITMAP
000000
000000
000000
000000
0C0038
07FFFC
038038
000038
000038
000038
000038
180038
0FFFF8
060038
000038
000038
000038
000038
000038
000030
000030
000000
000000
000000
ENDCHAR

STARTCHAR kor_A4BC
ENCODING 42172
SWIDTH 903 0
DWIDTH 24 0
BBX 24 24 0 -2
BITMAP
000000
000000
000000
000000
000000
1E0030
07FFF8
070000
070000
070000
070000
070030
07FFF8
070000
070000
070000
070000
070000
070000
070038
03FFFC
000000
000000
000000
ENDCHAR

STARTCHAR kor_A4BD
ENCODING 42173
SWIDTH 903 0
DWIDTH 24 0
BBX 24 24 0 -2
BITMAP
000000
000000
000000
000000
000000
180030
0FFFF8
060000
000000
0003C0
0001E0
0781E0
03C1C0
01C1C0
01C1C0
01C380
00C380
00C300
000338
3FFFFC
0FF000
000000
000000
000000
ENDCHAR

STARTCHAR kor_A4BE
ENCODING 42174
SWIDTH 903 0
DWIDTH 24 0
BBX 24 24 0 -2
BITMAP
000000
000000
006000
003F80
001F00
000000
30000C
1FFFFE
0C0000
000000
003E00
00F780
01C1C0
01C1C0
0380E0
0380E0
0380E0
0380E0
01C1C0
01E3C0
007F00
000000
000000
000000
ENDCHAR

STARTCHAR kor_A4BF
ENCODING 42175
SWIDTH 903 0
DWIDTH 24 0
BBX 24 24 0 -2
BITMAP
000000
007000
003C00
001C00
001C00
001C00
001C00
001C00
001C00
001C00
001C00
001B80
001FC0
001C00
001C00
001C00
001C00
001C00
001C00
001C00
001C00
001C00
001800
000000
ENDCHAR

STARTCHAR kor_A4C0
ENCODING 42176
SWIDTH 903 0
DWIDTH 24 0
BBX 24 24 0 -2
BITMAP
000000
000E00
000780
01C380
00F380
007380
007380
007380
007380
007380
007380
007380
007F80
007380
007380
007380
007380
007380
007380
007380
006380
000380
000300
000000
ENDCHAR

STARTCHAR kor_A4C1
ENCODING 42177
SWIDTH 903 0
DWIDTH 24 0
BBX 24 24 0 -2
BITMAP
000000
007000
003C00
001C00
001C00
001C00
001C00
001C00
001B80
001FC0
001C00
001C00
001C00
001B80
001FC0
001C00
001C00
001C00
001C00
001C00
001C00
001C00
001800
000000
ENDCHAR

STARTCHAR kor_A4C2
ENCODING 42178
SWIDTH 903 0
DWIDTH 24 0
BBX 24 24 0 -2
BITMAP
000000
000E00
000780
01C380
00F380
007380
007380
007380
007380
007F80
007380
007380
007380
007380
007F80
007380
007380
007380
007380
007380
006380
000380
000300
000000
ENDCHAR

STARTCHAR kor_A4C3
ENCODING 42179
SWIDTH 903 0
DWIDTH 24 0
BBX 24 24 0 -2
BITMAP
000000
000E00
000780
000380
000380
000380
000380
000380
000380
01FF80
00E380
000380
000380
000380
000380
000380
000380
000380
000380
000380
000380
000380
000300
000000
ENDCHAR

STARTCHAR kor_A4C4
ENCODING 42180
SWIDTH 903 0
DWIDTH 24 0
BBX 24 24 0 -2
BITMAP
000000
000700
0003C0
00E1C0
0079C0
0039C0
0039C0
0039C0
0039C0
0039C0
07F9C0
0339C0
0039C0
0039C0
0039C0
0039C0
0039C0
0039C0
0039C0
0039C0
0031C0
0001C0
000180
000000
ENDCHAR

STARTCHAR kor_A4C5
ENCODING 42181
SWIDTH 903 0
DWIDTH 24 0
BBX 24 24 0 -2
BITMAP
000000
000E00
000780
000380
000380
000380
000380
000380
07FF80
038380
000380
000380
000380
07FF80
038380
000380
000380
000380
000380
000380
000380
000380
000300
000000
ENDCHAR

STARTCHAR kor_A4C6
ENCODING 42182
SWIDTH 903 0
DWIDTH 24 0
BBX 24 24 0 -2
BITMAP
000000
000700
00E3C0
0079C0
0039C0
0039C0
0039C0
0039C0
07F9C0
0339C0
0039C0
0039C0
07F9C0
0339C0
0039C0
0039C0
0039C0
0039C0
0039C0
0039C0
0031C0
0001C0
000180
000000
ENDCHAR

STARTCHAR kor_A4C7
ENCODING 42183
SWIDTH 903 0
DWIDTH 24 0
BBX 24 24 0 -2
BITMAP
000000
000000
000000
000000
000000
000000
000000
000000
000000
000000
000000
000000
007800
003C00
001C00
001C00
001C00
001C00
601C0E
3FFFFF
1C0000
000000
000000
000000
ENDCHAR

STARTCHAR kor_A4C8
ENCODING 42184
SWIDTH 903 0
DWIDTH 24 0
BBX 24 24 0 -2
BITMAP
000000
0001C0
0000F0
000070
000070
000070
000070
000070
000070
000070
01C070
00E06E
00E07F
00E070
60E770
3FFC70
1C0070
000070
000070
000070
000070
000070
000060
000000
ENDCHAR

STARTCHAR kor_A4C9
ENCODING 42185
SWIDTH 903 0
DWIDTH 24 0
BBX 24 24 0 -2
BITMAP
000000
0000E0
000078
000E38
0007B8
0003B8
0003B8
0003B8
0003B8
0003B8
0383B8
01C3B8
01C3F8
01C3B8
61DFB8
3FF3B8
1C03B8
0003B8
0003B8
0003B8
0003B8
000338
000030
000000
ENDCHAR

STARTCHAR kor_A4CA
ENCODING 42186
SWIDTH 903 0
DWIDTH 24 0
BBX 24 24 0 -2
BITMAP
000000
000070
00003C
00001C
00001C
00001C
00001C
00001C
00001C
00001C
00701C
00381C
00381C
00381C
1839DC
0FFF1C
07001C
00001C
00001C
00001C
00001C
00001C
000018
000000
ENDCHAR

STARTCHAR kor_A4CB
ENCODING 42187
SWIDTH 903 0
DWIDTH 24 0
BBX 24 24 0 -2
BITMAP
000000
000000
000000
000000
000000
000000
000000
000000
000000
000000
000000
000000
000300
01C1E0
00F0E0
0070C0
0071C0
007180
60330E
3FFFFF
180000
000000
000000
000000
ENDCHAR

STARTCHAR kor_A4CC
ENCODING 42188
SWIDTH 903 0
DWIDTH 24 0
BBX 24 24 0 -2
BITMAP
000000
000000
000000
000000
000000
000000
000000
000000
000000
000000
60000E
3FFFFF
181C00
001C00
001C00
001C00
001C00
001C00
001C00
001C00
001C00
001C00
001800
000000
ENDCHAR

STARTCHAR kor_A4CD
ENCODING 42189
SWIDTH 903 0
DWIDTH 24 0
BBX 24 24 0 -2
BITMAP
000000
000070
00003C
00001C
00001C
00001C
00001C
00001C
00001C
00001C
00001C
1801DC
0FFF1C
06381C
00381C
0037FC
003B1C
00381C
00381C
00381C
00381C
00301C
000018
000000
ENDCHAR

STARTCHAR kor_A4CE
ENCODING 42190
SWIDTH 903 0
DWIDTH 24 0
BBX 24 24 0 -2
BITMAP
000000
000070
00003C
00071C
0003DC
0001DC
0001DC
0001DC
0001DC
0001DC
0001DC
0001DC
301FDC
1FF1DC
0EE1DC
00E1DC
00DFDC
00EDDC
00E1DC
00E1DC
00E1DC
00C19C
000018
000000
ENDCHAR

STARTCHAR kor_A4CF
ENCODING 42191
SWIDTH 903 0
DWIDTH 24 0
BBX 24 24 0 -2
BITMAP
000000
000070
00003C
00001C
00001C
00001C
00001C
00001C
00001C
00001C
00001C
1801DC
0FFF1C
07381C
00381C
00381C
00381C
00381C
00381C
00381C
00381C
00301C
000018
000000
ENDCHAR

STARTCHAR kor_A4D0
ENCODING 42192
SWIDTH 903 0
DWIDTH 24 0
BBX 24 24 0 -2
BITMAP
000000
000000
000000
000000
000000
000000
000000
000000
000000
000000
60000E
3FFFFF
1CE1C0
00E1C0
00E1C0
00E1C0
00E1C0
00E1C0
00E1C0
00E1C0
00E1C0
00C1C0
000180
000000
ENDCHAR

STARTCHAR kor_A4D1
ENCODING 42193
SWIDTH 903 0
DWIDTH 24 0
BBX 24 24 0 -2
BITMAP
000000
000000
000000
000000
000000
000000
000000
000000
000000
000000
000000
000000
000000
000000
000000
000000
000000
000000
60000E
3FFFFF
1C0000
000000
000000
000000
ENDCHAR

STARTCHAR kor_A4D2
ENCODING 42194
SWIDTH 903 0
DWIDTH 24 0
BBX 24 24 0 -2
BITMAP
000000
000070
00003C
00001C
00001C
00001C
00001C
00001C
00001C
00001C
00001C
00001C
00001C
00001C
1803DC
0FFE1C
07001C
00001C
00001C
00001C
00001C
00001C
000018
000000
ENDCHAR

STARTCHAR kor_A4D3
ENCODING 42195
SWIDTH 903 0
DWIDTH 24 0
BBX 24 24 0 -2
BITMAP
000000
001C00
000F00
000700
000700
000700
000700
000700
000700
000700
000700
000700
000700
000700
000700
000700
000700
000700
000700
000700
000700
000700
000600
000000
ENDCHAR

STARTCHAR kor_A4D4
ENCODING 42196
SWIDTH 903 0
DWIDTH 24 0
BBX 24 24 0 -2
BITMAP
000000
000000
000000
000000
000000
000000
000000
000000
000000
000000
000000
000000
000000
000000
000000
000000
000000
000000
000000
000000
000000
000000
000000
000000
ENDCHAR

STARTCHAR kor_A4D5
ENCODING 42197
SWIDTH 903 0
DWIDTH 24 0
BBX 24 24 0 -2
BITMAP
000000
000000
000000
000000
003C00
3C0E00
0E0E00
0E0E00
0E0E00
0E0E00
0E0E00
0E0E00
0E0E00
0E0E00
0E0E00
0E0E00
0E6E00
0FCE1C
0707FE
000000
000000
000000
000000
000000
ENDCHAR

STARTCHAR kor_A4D6
ENCODING 42198
SWIDTH 903 0
DWIDTH 24 0
BBX 24 24 0 -2
BITMAP
000000
000000
000000
000000
003C18
3C0FFC
0E0E00
0E0E00
0E0E00
0E0E00
0E0E00
0E0E00
0E0E00
0E0E00
0E0E00
0E0E00
0E6E00
0FCE1C
0707FE
000000
000000
000000
000000
000000
ENDCHAR

STARTCHAR kor_A4D7
ENCODING 42199
SWIDTH 903 0
DWIDTH 24 0
BBX 24 24 0 -2
BITMAP
000000
000000
000000
000000
0001E0
3C00F0
0E00F0
0E00E0
0E01E0
0E01E0
0E01C0
0E03E0
0E03F0
0E03B8
0E071C
0E071E
0E6E0F
0FCC0F
071806
003000
000000
000000
000000
000000
ENDCHAR

STARTCHAR kor_A4D8
ENCODING 42200
SWIDTH 903 0
DWIDTH 24 0
BBX 24 24 0 -2
BITMAP
000000
000000
000000
000000
0001C0
3C01C0
0E01C0
0E03E0
0E03E0
0E03E0
0E0770
0E0770
0E0770
0E0E38
0E0E38
0E0E38
0E7C1C
0FDC1C
071FFC
003FFE
000000
000000
000000
000000
ENDCHAR

STARTCHAR kor_A4D9
ENCODING 42201
SWIDTH 903 0
DWIDTH 24 0
BBX 24 24 0 -2
BITMAP
000000
000000
000000
0000E0
62CE78
3F7F3C
1B8E38
038E38
038E78
030E70
030E70
7F8EF8
380EDC
380EDC
380DCE
380DCF
38EF8F
3F8B06
1E0E00
000000
000000
000000
000000
000000
ENDCHAR

STARTCHAR kor_A4DA
ENCODING 42202
SWIDTH 903 0
DWIDTH 24 0
BBX 24 24 0 -2
BITMAP
000000
000000
000000
000000
30DE0C
1FF7FE
0CE700
00E700
00E700
00C700
00C700
3FE700
1C0700
1C0700
1C0700
1C0700
1C0700
1C370E
1FE3FF
0F0000
000000
000000
000000
000000
ENDCHAR

STARTCHAR kor_A4DB
ENCODING 42203
SWIDTH 903 0
DWIDTH 24 0
BBX 24 24 0 -2
BITMAP
000000
000000
000000
000E78
62E73C
3F773C
1B7738
037738
037738
037778
037770
7F7F78
387778
38777C
3876EE
3876EE
38F6CF
3F7F8F
1E7706
003600
000000
000000
000000
000000
ENDCHAR

STARTCHAR kor_A4DC
ENCODING 42204
SWIDTH 903 0
DWIDTH 24 0
BBX 24 24 0 -2
BITMAP
000000
000000
000000
000000
61C1C0
3FE1C0
19C1C0
01C3E0
01C3E0
0183E0
018770
7FC770
380770
380E38
380E38
380E38
381C1C
387C1C
3FDFFC
1E3FFE
000000
000000
000000
000000
ENDCHAR

STARTCHAR kor_A4DD
ENCODING 42205
SWIDTH 903 0
DWIDTH 24 0
BBX 24 24 0 -2
BITMAP
000000
000000
000000
000000
61B00E
3FDFFF
19CC00
01C1C0
01C0E0
0183B8
018E1C
7FCE1C
381C0E
381C0E
381C0E
381C0E
380E1C
386E1C
3FC3F0
1E0000
000000
000000
000000
000000
ENDCHAR

STARTCHAR kor_A4DE
ENCODING 42206
SWIDTH 903 0
DWIDTH 24 0
BBX 24 24 0 -2
BITMAP
000000
000000
000000
000000
000038
786E1C
1FF71C
1C771C
1C771C
1C771C
1C771C
1C77FC
1C771C
1C771C
1C671C
1C671C
1C671C
1FF7FC
1C071C
0C0318
000000
000000
000000
000000
ENDCHAR

STARTCHAR kor_A4DF
ENCODING 42207
SWIDTH 903 0
DWIDTH 24 0
BBX 24 24 0 -2
BITMAP
000000
000000
000000
000000
0001E0
7870F0
1FF8F0
1C70E0
1C70E0
1C71E0
1C71C0
1C71E0
1C73F0
1C73B8
1C63BC
1C671C
1C671E
1FEE1E
1C1C0C
0C3000
000000
000000
000000
000000
ENDCHAR

STARTCHAR kor_A4E0
ENCODING 42208
SWIDTH 903 0
DWIDTH 24 0
BBX 24 24 0 -2
BITMAP
000000
000000
000000
000000
0000E0
7870E0
1FF8E0
1C71F0
1C71F0
1C71F0
1C73B8
1C73B8
1C73B8
1C771C
1C671C
1C671C
1C6E0E
1FEE0E
1C0FFE
0C1FFF
000000
000000
000000
000000
ENDCHAR

STARTCHAR kor_A4E1
ENCODING 42209
SWIDTH 903 0
DWIDTH 24 0
BBX 24 24 0 -2
BITMAP
000000
000000
1E0070
07FFF8
070070
070070
070070
070060
070060
07FFF8
030000
007C00
001E00
01F380
0780F0
070070
0F0078
0F0078
070070
07C1F0
00FF80
000000
000000
000000
ENDCHAR

STARTCHAR kor_A4E2
ENCODING 42210
SWIDTH 903 0
DWIDTH 24 0
BBX 24 24 0 -2
BITMAP
000000
000000
000000
000000
01EC1C
7877FE
1C731C
1C701C
1C701C
1C701C
1C701C
1FF01C
1C701C
1C701C
1C701C
1C701C
1C701C
1FF01C
1C701C
0C6018
000000
000000
000000
000000
ENDCHAR

STARTCHAR kor_A4E3
ENCODING 42211
SWIDTH 903 0
DWIDTH 24 0
BBX 24 24 0 -2
BITMAP
000000
000000
000000
000000
01DE0C
7877FE
1C7700
1C7700
1C7700
1C7700
1C7700
1FF700
1C7700
1C7700
1C7700
1C7700
1C7700
1FF70E
1C73FF
0C6000
000000
000000
000000
000000
ENDCHAR

STARTCHAR kor_A4E4
ENCODING 42212
SWIDTH 903 0
DWIDTH 24 0
BBX 24 24 0 -2
BITMAP
000000
000000
000000
000000
071ECE
738F7F
3B8F0E
3B8F0E
3B8E0E
3B8E0E
3B8E0E
3F9E0E
3B9F0E
3B9B8E
3BBB8E
3BB9CE
3BB1EE
3F71EE
3B60CE
1AC00C
000000
000000
000000
000000
ENDCHAR

STARTCHAR kor_A4E5
ENCODING 42213
SWIDTH 903 0
DWIDTH 24 0
BBX 24 24 0 -2
BITMAP
000000
000000
000000
000000
071EF6
738F3F
3B8F38
3B8F38
3B8E38
3B8E38
3B8E38
3F9E38
3B9F38
3B9BB8
3BBBB8
3BB9B8
3BB1B8
3F71F8
3B60DF
1AC000
000000
000000
000000
000000
ENDCHAR

STARTCHAR kor_A4E6
ENCODING 42214
SWIDTH 903 0
DWIDTH 24 0
BBX 24 24 0 -2
BITMAP
000000
000000
000000
000000
01EC1C
7877FE
1C7370
1C7070
1C7070
1C7070
1C70F0
1FF0E0
1C70F8
1C71DC
1C71DE
1C738E
1C770F
1FF60F
1C6C06
0C5800
000000
000000
000000
000000
ENDCHAR

STARTCHAR kor_A4E7
ENCODING 42215
SWIDTH 903 0
DWIDTH 24 0
BBX 24 24 0 -2
BITMAP
000000
000000
000000
000000
01DE0C
7877FE
1C7700
1C7700
1C7700
1C7700
1C7718
1FF7FC
1C7700
1C7700
1C7700
1C7700
1C7700
1FF70E
1C73FF
0C6000
000000
000000
000000
000000
ENDCHAR

STARTCHAR kor_A4E8
ENCODING 42216
SWIDTH 903 0
DWIDTH 24 0
BBX 24 24 0 -2
BITMAP
000000
000000
0001E0
1E0070
0F0070
070070
07FFF0
070070
070070
07FFF0
070070
037860
001E00
007C00
01E7C0
0780F0
0F0078
0F0078
070070
0780F0
00FF80
000000
000000
000000
ENDCHAR

STARTCHAR kor_A4E9
ENCODING 42217
SWIDTH 903 0
DWIDTH 24 0
BBX 24 24 0 -2
BITMAP
000000
000000
00E078
386E1C
1C771C
1C771C
1FF7FC
1C771C
1C771C
1FF7FC
1C771C
0C6318
001C00
007F00
01E3C0
0780F0
0F0078
0F0078
070070
0780F0
00FF80
000000
000000
000000
ENDCHAR

STARTCHAR kor_A4EA
ENCODING 42218
SWIDTH 903 0
DWIDTH 24 0
BBX 24 24 0 -2
BITMAP
000000
000000
000000
000000
07CC1C
01E7FE
01E31C
01C01C
03C01C
03801C
03C01C
06E01C
07701C
0E781C
0E3C1C
1C1E1C
1C1E1C
380C1C
600018
000000
000000
000000
000000
000000
ENDCHAR

STARTCHAR kor_A4EB
ENCODING 42219
SWIDTH 903 0
DWIDTH 24 0
BBX 24 24 0 -2
BITMAP
000000
000000
000000
000000
07CF00
01E380
01E380
01C380
01C380
03C380
038380
038380
07C380
06E380
0F7380
0E7B80
1C7B80
1C338E
3801FF
600000
000000
000000
000000
000000
ENDCHAR

STARTCHAR kor_A4EC
ENCODING 42220
SWIDTH 903 0
DWIDTH 24 0
BBX 24 24 0 -2
BITMAP
000000
000000
000000
000000
07CF0C
01E3FE
01E380
01C380
01C380
03C380
038380
038380
07C380
06E380
0F7380
0E7B80
1C7B80
1C338E
3801FF
600000
000000
000000
000000
000000
ENDCHAR

STARTCHAR kor_A4ED
ENCODING 42221
SWIDTH 903 0
DWIDTH 24 0
BBX 24 24 0 -2
BITMAP
000000
000000
000000
000000
07C03C
01EF0E
01E38E
01C38E
01C38E
03C38E
03838E
0383FE
07C38E
06E38E
0F738E
0E7B8E
1C7B8E
1C33FE
38038E
60018C
000000
000000
000000
000000
ENDCHAR

STARTCHAR kor_A4EE
ENCODING 42222
SWIDTH 903 0
DWIDTH 24 0
BBX 24 24 0 -2
BITMAP
000000
000000
000000
000000
07C60C
01E3FE
01E070
01C070
01C070
03C070
0380F0
0380E0
07C0F0
06E1B8
0F71DC
0E7B9E
1C7B8F
1C370F
380E06
601800
000000
000000
000000
000000
ENDCHAR

STARTCHAR kor_A4EF
ENCODING 42223
SWIDTH 903 0
DWIDTH 24 0
BBX 24 24 0 -2
BITMAP
000000
000000
000000
000000
001C00
001C00
003E00
003E00
007700
007700
00E380
00E380
01C1C0
01C1C0
0380E0
0380E0
070070
070070
0FFFF8
0FFFF8
000000
000000
000000
000000
ENDCHAR

STARTCHAR kor_A4F0
ENCODING 42224
SWIDTH 903 0
DWIDTH 24 0
BBX 24 24 0 -2
BITMAP
000000
000000
000000
000000
0F00F0
078078
078078
0F00F0
3DE3DE
38E38E
707707
707707
707707
707707
707707
707707
707707
38E38E
38E38E
0F80F8
000000
000000
000000
000000
ENDCHAR

STARTCHAR kor_A4F1
ENCODING 42225
SWIDTH 903 0
DWIDTH 24 0
BBX 24 24 0 -2
BITMAP
000000
000000
000000
003C00
001C00
001C00
001C00
001C00
001C00
003800
01E780
0380E0
0380E0
070070
070070
070070
070070
0380E0
01E3C0
007F00
000000
000000
000000
000000
ENDCHAR

STARTCHAR kor_A4F2
ENCODING 42226
SWIDTH 903 0
DWIDTH 24 0
BBX 24 24 0 -2
BITMAP
000000
000000
000000
000000
0F01E0
0700F0
0700F0
0700F0
0700E0
0700E0
1DC1E0
38E1C0
38E1E0
7071F0
7073B8
7073BC
70771E
306E1E
38EC0C
0FB800
000000
000000
000000
000000
ENDCHAR

STARTCHAR kor_A4F3
ENCODING 42227
SWIDTH 903 0
DWIDTH 24 0
BBX 24 24 0 -2
BITMAP
000000
000000
000000
000000
0F00E0
0700E0
0700E0
0701F0
0701F0
0701F0
1DC3B8
38E3B8
38E3B8
70771C
70771C
70771C
706E0E
306E0E
38EFFE
0F9FFF
000000
000000
000000
000000
ENDCHAR

STARTCHAR kor_A4F4
ENCODING 42228
SWIDTH 903 0
DWIDTH 24 0
BBX 24 24 0 -2
BITMAP
000000
000000
0C0070
07FFF8
030000
000780
01C3C0
00E380
00E380
18C338
0FFFFC
070000
001C00
007F00
03E3E0
0780F0
0F0078
0F0078
070070
03C1E0
007F00
000000
000000
000000
ENDCHAR

STARTCHAR kor_A4F5
ENCODING 42229
SWIDTH 903 0
DWIDTH 24 0
BBX 24 24 0 -2
BITMAP
000000
000000
000000
180300
0FE1FC
07C0F8
000000
602C06
3FF7FF
180300
030060
0700E0
1CE39C
1CE39C
38770E
38770E
38770E
38770E
1CE39C
0780F0
000000
000000
000000
000000
ENDCHAR

STARTCHAR kor_A4F6
ENCODING 42230
SWIDTH 903 0
DWIDTH 24 0
BBX 24 24 0 -2
BITMAP
000000
000000
000000
000000
18001C
0FFFFE
070000
000000
000000
001E00
00F3C0
01E1E0
01C0E0
03C0F0
03C0F0
03C0F0
01C0E0
01E1E0
00E1C0
003F00
000000
000000
000000
000000
ENDCHAR

STARTCHAR kor_A4F7
ENCODING 42231
SWIDTH 903 0
DWIDTH 24 0
BBX 24 24 0 -2
BITMAP
000000
0001C0
0000F0
000070
000070
000070
000070
00006E
00007F
003870
071C70
039C70
039C6E
039C7F
039C70
039F70
637C70
3FE070
1E0070
000070
000070
000070
000060
000000
ENDCHAR

STARTCHAR kor_A4F8
ENCODING 42232
SWIDTH 903 0
DWIDTH 24 0
BBX 24 24 0 -2
BITMAP
000000
000070
00003C
00039C
0001DC
0001DC
0001DC
0001DC
0001DC
0071FC
0E39DC
0739DC
0739DC
0739FC
0739DC
073FDC
66F9DC
3FC1DC
1C01DC
0001DC
00019C
000018
000018
000000
ENDCHAR

STARTCHAR kor_A4F9
ENCODING 42233
SWIDTH 903 0
DWIDTH 24 0
BBX 24 24 0 -2
BITMAP
000000
0000E0
000078
000038
000038
000038
000038
000038
000038
003838
071C38
039C38
039C38
039C38
039C38
039FB8
637C38
3FE038
1E0038
000038
000038
000038
000030
000000
ENDCHAR

STARTCHAR kor_A4FA
ENCODING 42234
SWIDTH 903 0
DWIDTH 24 0
BBX 24 24 0 -2
BITMAP
000000
000070
00003C
00001C
00001C
00001C
00001C
00001C
00001C
0001DC
601F1C
3FFC1C
1B9C1C
039DFC
039CDC
039C1C
039C1C
039DFC
039CDC
039C1C
039C1C
03181C
000018
000000
ENDCHAR

STARTCHAR kor_A4FB
ENCODING 42235
SWIDTH 903 0
DWIDTH 24 0
BBX 24 24 0 -2
BITMAP
000000
000038
00001E
0001CE
0000EE
0000EE
0000EE
0000EE
0000EE
0000EE
000EEE
60F8EE
3FB8EE
1BBFEE
03B6EE
03B8EE
03B8EE
03BFEE
03B6EE
03B8EE
03B8EE
0330CE
00000C
000000
ENDCHAR

STARTCHAR kor_A4FC
ENCODING 42236
SWIDTH 903 0
DWIDTH 24 0
BBX 24 24 0 -2
BITMAP
000000
000070
00003C
00001C
00001C
00001C
00001C
00001C
00001C
0001DC
601F1C
3FFC1C
1B9C1C
039C1C
039C1C
039C1C
039C1C
039C1C
039C1C
039C1C
039C1C
03181C
000018
000000
ENDCHAR

STARTCHAR kor_A4FD
ENCODING 42237
SWIDTH 903 0
DWIDTH 24 0
BBX 24 24 0 -2
BITMAP
000000
000000
000000
000000
000000
000000
000000
000000
000000
000000
000000
001C00
003E00
003E00
001C00
000000
000000
000000
000000
000000
000000
000000
000000
000000
ENDCHAR

STARTCHAR kor_A4FE
ENCODING 42238
SWIDTH 903 0
DWIDTH 24 0
BBX 24 24 0 -2
BITMAP
000000
0000E0
000078
000038
000038
000038
000038
000038
000038
000038
000038
000038
000038
00E038
01F038
01F038
00E038
000038
000038
000038
000038
000038
000030
000000
ENDCHAR

STARTCHAR kor_A5A1
ENCODING 42401
SWIDTH 903 0
DWIDTH 24 0
BBX 24 24 0 -2
BITMAP
000000
000000
000000
001C00
001C00
000000
000000
000000
000C00
003C00
001C00
001C00
001C00
001C00
001C00
001C00
001C00
001C00
001C00
001C00
007F00
000000
000000
000000
ENDCHAR

STARTCHAR kor_A5A2
ENCODING 42402
SWIDTH 903 0
DWIDTH 24 0
BBX 24 24 0 -2
BITMAP
000000
000000
000000
00E380
00E380
000000
000000
000000
006180
01E780
00E380
00E380
00E380
00E380
00E380
00E380
00E380
00E380
00E380
00E380
03EFE0
000000
000000
000000
ENDCHAR

STARTCHAR kor_A5A3
ENCODING 42403
SWIDTH 903 0
DWIDTH 24 0
BBX 24 24 0 -2
BITMAP
000000
000000
000000
039CE0
039CE0
000000
000000
000000
018C60
07BDE0
039CE0
039CE0
039CE0
039CE0
039CE0
039CE0
039CE0
039CE0
039CE0
039CE0
0FBDF8
000000
000000
000000
ENDCHAR

STARTCHAR kor_A5A4
ENCODING 42404
SWIDTH 903 0
DWIDTH 24 0
BBX 24 24 0 -2
BITMAP
000000
000000
000000
038000
038000
000000
000000
000000
018000
07BE78
039C30
039C30
039C30
038E60
038E60
038E60
0386C0
0386C0
0386C0
038380
0FE380
000000
000000
000000
ENDCHAR

STARTCHAR kor_A5A5
ENCODING 42405
SWIDTH 903 0
DWIDTH 24 0
BBX 24 24 0 -2
BITMAP
000000
000000
000000
000000
000000
000000
000000
000000
000000
01F3C0
00E180
00E180
00E180
007300
007300
007300
003600
003600
003600
001C00
001C00
000000
000000
000000
ENDCHAR

STARTCHAR kor_A5A6
ENCODING 42406
SWIDTH 903 0
DWIDTH 24 0
BBX 24 24 0 -2
BITMAP
000000
000000
000000
0000E0
0000E0
000000
000000
000000
000060
0F9DE0
070CE0
070CE0
070CE0
0398E0
0398E0
0398E0
01B0E0
01B0E0
01B0E0
00E0E0
00E3F8
000000
000000
000000
ENDCHAR

STARTCHAR kor_A5A7
ENCODING 42407
SWIDTH 903 0
DWIDTH 24 0
BBX 24 24 0 -2
BITMAP
000000
000000
000000
00039C
00039C
000000
000000
000000
00018C
3E77BC
1C339C
1C339C
1C339C
0E639C
0E639C
0E639C
06C39C
06C39C
06C39C
03839C
038FBF
000000
000000
000000
ENDCHAR

STARTCHAR kor_A5A8
ENCODING 42408
SWIDTH 903 0
DWIDTH 24 0
BBX 24 24 0 -2
BITMAP
000000
000000
000000
000EEE
000EEE
000000
000000
000000
000666
7CFDDE
386EEE
386EEE
386EEE
1CCEEE
1CCEEE
1CCEEE
0D8EEE
0D8EEE
0D8EEE
070EEE
071DDF
000000
000000
000000
ENDCHAR

STARTCHAR kor_A5A9
ENCODING 42409
SWIDTH 903 0
DWIDTH 24 0
BBX 24 24 0 -2
BITMAP
000000
000000
000000
038000
038000
000000
000000
000000
018000
07BE78
039C30
038E60
038E60
0386C0
038380
038380
0385C0
038CE0
038CE0
039870
0FBCF8
000000
000000
000000
ENDCHAR

STARTCHAR kor_A5AA
ENCODING 42410
SWIDTH 903 0
DWIDTH 24 0
BBX 24 24 0 -2
BITMAP
000000
000000
000000
000000
000000
000000
000000
000000
000000
01F3C0
00E180
007300
007300
003600
001C00
001C00
002E00
006700
006700
00C380
01E7C0
000000
000000
000000
ENDCHAR

STARTCHAR kor_A5B0
ENCODING 42416
SWIDTH 903 0
DWIDTH 24 0
BBX 24 24 0 -2
BITMAP
000000
000000
007F00
001C00
001C00
001C00
001C00
001C00
001C00
001C00
001C00
001C00
001C00
001C00
001C00
001C00
001C00
001C00
001C00
001C00
007F00
000000
000000
000000
ENDCHAR

STARTCHAR kor_A5B1
ENCODING 42417
SWIDTH 903 0
DWIDTH 24 0
BBX 24 24 0 -2
BITMAP
000000
000000
03FFE0
00E380
00E380
00E380
00E380
00E380
00E380
00E380
00E380
00E380
00E380
00E380
00E380
00E380
00E380
00E380
00E380
00E380
03FFE0
000000
000000
000000
ENDCHAR

STARTCHAR kor_A5B2
ENCODING 42418
SWIDTH 903 0
DWIDTH 24 0
BBX 24 24 0 -2
BITMAP
000000
000000
07FFF0
01DDC0
01DDC0
01DDC0
01DDC0
01DDC0
01DDC0
01DDC0
01DDC0
01DDC0
01DDC0
01DDC0
01DDC0
01DDC0
01DDC0
01DDC0
01DDC0
01DDC0
07FFF0
000000
000000
000000
ENDCHAR

STARTCHAR kor_A5B3
ENCODING 42419
SWIDTH 903 0
DWIDTH 24 0
BBX 24 24 0 -2
BITMAP
000000
000000
0FFC3E
037818
03B818
03B830
039C30
039C30
039C30
039C60
038E60
038E60
038E60
038EC0
0386C0
0386C0
038780
038780
038380
038300
0FE300
000000
000000
000000
ENDCHAR

STARTCHAR kor_A5B4
ENCODING 42420
SWIDTH 903 0
DWIDTH 24 0
BBX 24 24 0 -2
BITMAP
000000
000000
0FC0F8
078060
0380C0
0380C0
01C0C0
01C180
01C180
00E180
00E300
00E300
007300
007600
007600
003600
003C00
001C00
001C00
001800
001800
000000
000000
000000
ENDCHAR

STARTCHAR kor_A5B5
ENCODING 42421
SWIDTH 903 0
DWIDTH 24 0
BBX 24 24 0 -2
BITMAP
000000
000000
1F87FC
0F0370
070370
070670
038670
038670
038670
038C70
01CC70
01CC70
01CC70
01D870
00D870
00D870
00F070
00F070
007070
006070
0061FC
000000
000000
000000
ENDCHAR

STARTCHAR kor_A5B6
ENCODING 42422
SWIDTH 903 0
DWIDTH 24 0
BBX 24 24 0 -2
BITMAP
000000
000000
3F3FFC
1E1770
0E1770
0E1770
0E3770
0E3770
073770
073770
076770
076770
076770
036770
036770
03C770
03C770
03C770
018770
018770
019FFC
000000
000000
000000
ENDCHAR

STARTCHAR kor_A5B7
ENCODING 42423
SWIDTH 903 0
DWIDTH 24 0
BBX 24 24 0 -2
BITMAP
000000
000000
3F3FFF
1E16DC
0E16DC
0E16DC
0E36DC
0E36DC
0736DC
0736DC
0766DC
0766DC
0766DC
0366DC
0366DC
03C6DC
03C6DC
03C6DC
0186DC
0186DC
019FFF
000000
000000
000000
ENDCHAR

STARTCHAR kor_A5B8
ENCODING 42424
SWIDTH 903 0
DWIDTH 24 0
BBX 24 24 0 -2
BITMAP
000000
000000
0FFC7C
03B830
03B830
039C60
039C60
038EC0
038EC0
038580
038780
038700
038780
038D80
038DC0
038DC0
0398E0
0398E0
03B070
03B070
0FF8FC
000000
000000
000000
ENDCHAR

STARTCHAR kor_A5B9
ENCODING 42425
SWIDTH 903 0
DWIDTH 24 0
BBX 24 24 0 -2
BITMAP
000000
000000
07E0F0
03C060
01C0C0
00E0C0
00E180
007300
007300
003600
003600
001C00
003C00
002E00
006E00
006700
00C700
018380
0183C0
0301E0
0783F0
000000
000000
000000
ENDCHAR

STARTCHAR kor_A5C1
ENCODING 42433
SWIDTH 903 0
DWIDTH 24 0
BBX 24 24 0 -2
BITMAP
000000
000000
001800
001800
003C00
003C00
002E00
006E00
006700
00C700
00C380
00C380
0181C0
0181C0
03FFE0
0300E0
060070
060070
0C0038
0C0038
3F00FE
000000
000000
000000
ENDCHAR

STARTCHAR kor_A5C2
ENCODING 42434
SWIDTH 903 0
DWIDTH 24 0
BBX 24 24 0 -2
BITMAP
000000
000000
000000
0FFF00
0381C0
0380E0
038070
038070
038070
0380E0
0380C0
03FF80
0380E0
038070
038038
038038
038038
038038
038070
0380E0
0FFF80
000000
000000
000000
ENDCHAR

STARTCHAR kor_A5C3
ENCODING 42435
SWIDTH 903 0
DWIDTH 24 0
BBX 24 24 0 -2
BITMAP
000000
000000
000000
0FFFF8
038038
038018
038018
038018
038000
038000
038000
038000
038000
038000
038000
038000
038000
038000
038000
038000
0FE000
000000
000000
000000
ENDCHAR

STARTCHAR kor_A5C4
ENCODING 42436
SWIDTH 903 0
DWIDTH 24 0
BBX 24 24 0 -2
BITMAP
000000
000000
001800
001800
003C00
003C00
002E00
006E00
006700
00C700
00C380
00C380
0181C0
0181C0
0300E0
0300E0
060070
060070
0C0038
0FFFF8
1FFFFC
000000
000000
000000
ENDCHAR

STARTCHAR kor_A5C5
ENCODING 42437
SWIDTH 903 0
DWIDTH 24 0
BBX 24 24 0 -2
BITMAP
000000
000000
000000
1FFFE0
0700E0
070060
070060
070000
070300
070300
070700
07FF00
070700
070300
070300
070000
070030
070030
070030
070070
1FFFF0
000000
000000
000000
ENDCHAR

STARTCHAR kor_A5C6
ENCODING 42438
SWIDTH 903 0
DWIDTH 24 0
BBX 24 24 0 -2
BITMAP
000000
000000
000000
07FFF8
0700F0
0601E0
0601C0
0603C0
000380
000700
000F00
001E00
001C00
003800
007800
00F000
00E018
01C018
03C018
078038
0FFFF8
000000
000000
000000
ENDCHAR

STARTCHAR kor_A5C7
ENCODING 42439
SWIDTH 903 0
DWIDTH 24 0
BBX 24 24 0 -2
BITMAP
000000
000000
000000
1FC1FC
070070
070070
070070
070070
070070
070070
070070
07FFF0
070070
070070
070070
070070
070070
070070
070070
070070
1FC1FC
000000
000000
000000
ENDCHAR

STARTCHAR kor_A5C8
ENCODING 42440
SWIDTH 903 0
DWIDTH 24 0
BBX 24 24 0 -2
BITMAP
000000
000000
000000
007F00
01C1C0
0380E0
070070
0E0038
0E0038
1C001C
1CC19C
1CFF9C
1CFF9C
1CC19C
1C001C
0E0038
0E0038
070070
0380E0
01C1C0
007F00
000000
000000
000000
ENDCHAR

STARTCHAR kor_A5C9
ENCODING 42441
SWIDTH 903 0
DWIDTH 24 0
BBX 24 24 0 -2
BITMAP
000000
000000
000000
007F00
001C00
001C00
001C00
001C00
001C00
001C00
001C00
001C00
001C00
001C00
001C00
001C00
001C00
001C00
001C00
001C00
007F00
000000
000000
000000
ENDCHAR

STARTCHAR kor_A5CA
ENCODING 42442
SWIDTH 903 0
DWIDTH 24 0
BBX 24 24 0 -2
BITMAP
000000
000000
000000
1FC7F0
0701C0
070180
070300
070600
070C00
071800
073000
077000
06F800
07BC00
071E00
070F00
070780
0703C0
0701E0
0700F0
1FC3FC
000000
000000
000000
ENDCHAR

STARTCHAR kor_A5CB
ENCODING 42443
SWIDTH 903 0
DWIDTH 24 0
BBX 24 24 0 -2
BITMAP
000000
000000
001800
001800
003C00
003C00
002E00
006E00
006700
00C700
00C380
00C380
0181C0
0181C0
0300E0
0300E0
060070
060070
0C0038
0C0038
3F00FE
000000
000000
000000
ENDCHAR

STARTCHAR kor_A5CC
ENCODING 42444
SWIDTH 903 0
DWIDTH 24 0
BBX 24 24 0 -2
BITMAP
000000
000000
000000
3F80FE
0B80B8
0B80B8
0DC1B8
0DC1B8
0DC1B8
0CE338
0CE338
0CE338
0CE638
0C7638
0C7638
0C6C38
0C2C38
0C3C38
0C3C38
0C1838
3F18FE
000000
000000
000000
ENDCHAR

STARTCHAR kor_A5CD
ENCODING 42445
SWIDTH 903 0
DWIDTH 24 0
BBX 24 24 0 -2
BITMAP
000000
000000
000000
1F80FC
078030
05C030
05E030
06E030
067030
067830
063830
061C30
060E30
060F30
060730
0603B0
0601B0
0600F0
0600F0
060070
1F8030
000000
000000
000000
ENDCHAR

STARTCHAR kor_A5CE
ENCODING 42446
SWIDTH 903 0
DWIDTH 24 0
BBX 24 24 0 -2
BITMAP
000000
000000
000000
07FFF8
07FFF8
0E0038
0C0030
0C0030
000000
000000
018060
01FFE0
03FFC0
0300C0
000000
000000
060018
060018
0E0038
0FFFF0
0FFFF0
000000
000000
000000
ENDCHAR

STARTCHAR kor_A5CF
ENCODING 42447
SWIDTH 903 0
DWIDTH 24 0
BBX 24 24 0 -2
BITMAP
000000
000000
000000
007F00
01C1C0
0380E0
070070
0E0038
0E0038
1C001C
1C001C
1C001C
1C001C
1C001C
1C001C
0E0038
0E0038
070070
0380E0
01C1C0
007F00
000000
000000
000000
ENDCHAR

STARTCHAR kor_A5D0
ENCODING 42448
SWIDTH 903 0
DWIDTH 24 0
BBX 24 24 0 -2
BITMAP
000000
000000
000000
1FFFFC
0380E0
0380E0
0380E0
0380E0
0380E0
0380E0
0380E0
0380E0
0380E0
0380E0
0380E0
0380E0
0380E0
0380E0
0380E0
0380E0
1FE3FC
000000
000000
000000
ENDCHAR

STARTCHAR kor_A5D1
ENCODING 42449
SWIDTH 903 0
DWIDTH 24 0
BBX 24 24 0 -2
BITMAP
000000
000000
000000
0FFF80
0380E0
038070
038038
038038
038038
038038
038038
038070
0380E0
03FF80
038000
038000
038000
038000
038000
038000
0FE000
000000
000000
000000
ENDCHAR

STARTCHAR kor_A5D2
ENCODING 42450
SWIDTH 903 0
DWIDTH 24 0
BBX 24 24 0 -2
BITMAP
000000
000000
000060
1FFFF0
0F0030
078018
03C018
01E000
00F000
007800
003C00
001E00
001C00
003800
007000
00E000
01C00C
03800C
07001C
0FFFF8
1FFFF8
000018
000000
000000
ENDCHAR

STARTCHAR kor_A5D3
ENCODING 42451
SWIDTH 903 0
DWIDTH 24 0
BBX 24 24 0 -2
BITMAP
000000
000000
000000
1FFFFC
1C1C1C
181C0C
301C06
301C06
001C00
001C00
001C00
001C00
001C00
001C00
001C00
001C00
001C00
001C00
001C00
001C00
007F00
000000
000000
000000
ENDCHAR

STARTCHAR kor_A5D4
ENCODING 42452
SWIDTH 903 0
DWIDTH 24 0
BBX 24 24 0 -2
BITMAP
000000
000000
000000
07C1F0
0EE3B8
1C771C
183E0C
303E06
001C00
001C00
001C00
001C00
001C00
001C00
001C00
001C00
001C00
001C00
001C00
001C00
007F00
000000
000000
000000
ENDCHAR

STARTCHAR kor_A5D5
ENCODING 42453
SWIDTH 903 0
DWIDTH 24 0
BBX 24 24 0 -2
BITMAP
000000
000000
000000
00FF80
001C00
001C00
00FF80
039CE0
071C70
0E1C38
1C1C1C
1C1C1C
1C1C1C
1C1C1C
0E1C38
071C70
039CE0
00FF80
001C00
001C00
00FF80
000000
000000
000000
ENDCHAR

STARTCHAR kor_A5D6
ENCODING 42454
SWIDTH 903 0
DWIDTH 24 0
BBX 24 24 0 -2
BITMAP
000000
000000
000000
1FC0FC
078070
038060
01C0C0
01E180
00E180
007300
003600
001E00
003E00
002F00
006700
00C380
00C1C0
0181E0
0300F0
070078
1F80FE
000000
000000
000000
ENDCHAR

STARTCHAR kor_A5D7
ENCODING 42455
SWIDTH 903 0
DWIDTH 24 0
BBX 24 24 0 -2
BITMAP
000000
000000
000000
007F00
001C00
1E1C3C
3F1C7E
371C76
071C70
071C70
071C70
039CE0
039CE0
019CC0
01DDC0
00DB80
003E00
001C00
001C00
001C00
007F00
000000
000000
000000
ENDCHAR

STARTCHAR kor_A5D8
ENCODING 42456
SWIDTH 903 0
DWIDTH 24 0
BBX 24 24 0 -2
BITMAP
000000
000000
000000
007F00
01C1C0
0380E0
070070
0E0038
0E0038
1C001C
1C001C
1C001C
0E0038
0E0038
070070
0380E0
01C1C0
18630C
18630C
1FE3FC
1FE3FC
000000
000000
000000
ENDCHAR

STARTCHAR kor_A5E1
ENCODING 42465
SWIDTH 903 0
DWIDTH 24 0
BBX 24 24 0 -2
BITMAP
000000
000000
000000
000000
000000
000000
000000
000000
003C70
00E670
01C370
0382E0
0782E0
0703C0
0F0380
0E0700
0E0700
0E0F00
0E1B60
073BE0
03E1C0
000000
000000
000000
ENDCHAR

STARTCHAR kor_A5E2
ENCODING 42466
SWIDTH 903 0
DWIDTH 24 0
BBX 24 24 0 -2
BITMAP
000000
000000
000000
000780
001CE0
003870
007070
006070
00E070
00C0E0
01DDC0
01DF00
0381C0
0380E0
0380E0
0700E0
0700E0
06C1C0
0E7380
0E3E00
0E0000
1C0000
1C0000
000000
ENDCHAR

STARTCHAR kor_A5E3
ENCODING 42467
SWIDTH 903 0
DWIDTH 24 0
BBX 24 24 0 -2
BITMAP
000000
000000
000000
000000
000000
000000
000000
000000
01F038
03B8F8
061DC0
0C1B00
001E00
001C00
001C00
003800
003800
007800
007000
007000
00F000
00F000
00E000
000000
ENDCHAR

STARTCHAR kor_A5E4
ENCODING 42468
SWIDTH 903 0
DWIDTH 24 0
BBX 24 24 0 -2
BITMAP
000000
000000
000000
003E00
006380
0061C0
0030F0
001878
000C38
000600
003B00
00E380
01C180
0381C0
0381C0
0701C0
070380
070380
030700
038E00
00F800
000000
000000
000000
ENDCHAR

STARTCHAR kor_A5E5
ENCODING 42469
SWIDTH 903 0
DWIDTH 24 0
BBX 24 24 0 -2
BITMAP
000000
000000
000000
000000
000000
000000
000000
000000
003F00
00F3C0
01C0E0
01C060
01E000
00FE00
03DC00
078000
070000
070060
0781C0
03FF80
01FE00
000000
000000
000000
ENDCHAR

STARTCHAR kor_A5E6
ENCODING 42470
SWIDTH 903 0
DWIDTH 24 0
BBX 24 24 0 -2
BITMAP
000000
000000
000000
007000
00C000
0181E0
0187E0
00FF80
001C00
003800
007000
00E000
01C000
038000
038000
070000
070000
07E000
03FC00
003F00
000780
000380
01E700
01FC00
ENDCHAR

STARTCHAR kor_A5E7
ENCODING 42471
SWIDTH 903 0
DWIDTH 24 0
BBX 24 24 0 -2
BITMAP
000000
000000
000000
000000
000000
000000
000000
000000
01E3E0
076E30
0C7838
007038
00E038
00E070
01C070
01C0E0
0380E0
0381C0
0701C0
070380
000380
000700
000700
000000
ENDCHAR

STARTCHAR kor_A5E8
ENCODING 42472
SWIDTH 903 0
DWIDTH 24 0
BBX 24 24 0 -2
BITMAP
000000
000000
000000
0007C0
001C70
003830
007038
00E038
01C038
01C038
038070
03FFF0
0700E0
0700E0
0E01C0
0E01C0
0E0380
0E0300
060600
071C00
01F000
000000
000000
000000
ENDCHAR

STARTCHAR kor_A5E9
ENCODING 42473
SWIDTH 903 0
DWIDTH 24 0
BBX 24 24 0 -2
BITMAP
000000
000000
000000
000000
000000
000000
000000
000000
007000
007000
007000
00E000
00E000
01C000
01C000
01C000
038060
0380C0
038780
01FE00
00F800
000000
000000
000000
ENDCHAR

STARTCHAR kor_A5EA
ENCODING 42474
SWIDTH 903 0
DWIDTH 24 0
BBX 24 24 0 -2
BITMAP
000000
000000
000000
000000
000000
000000
000000
000000
00E0F0
00E1F8
00E3B8
01C700
01DC00
03F000
03B800
071C00
071C00
0E1C60
0E1CC0
1C1F80
1C0F00
000000
000000
000000
ENDCHAR

STARTCHAR kor_A5EB
ENCODING 42475
SWIDTH 903 0
DWIDTH 24 0
BBX 24 24 0 -2
BITMAP
000000
000000
000000
007800
007C00
001C00
000E00
000E00
000600
000600
000E00
001E00
003600
007600
00E700
01C700
03C380
038380
0703C0
0F01F0
0E00F0
000000
000000
000000
ENDCHAR

STARTCHAR kor_A5EC
ENCODING 42476
SWIDTH 903 0
DWIDTH 24 0
BBX 24 24 0 -2
BITMAP
000000
000000
000000
000000
000000
000000
000000
000000
00E070
00E070
01E0F0
01C0E0
01C0E0
03C1E0
0381C0
0381C0
038180
038380
0782D8
05C6F8
0E7C70
1C0000
1C0000
000000
ENDCHAR

STARTCHAR kor_A5ED
ENCODING 42477
SWIDTH 903 0
DWIDTH 24 0
BBX 24 24 0 -2
BITMAP
000000
000000
000000
000000
000000
000000
000000
000000
000000
038030
03C030
01C060
01C060
01C0C0
0181C0
018380
030F00
033E00
07F800
07E000
070000
000000
000000
000000
ENDCHAR

STARTCHAR kor_A5EE
ENCODING 42478
SWIDTH 903 0
DWIDTH 24 0
BBX 24 24 0 -2
BITMAP
000000
000000
000000
001FC0
007000
006000
003FF0
00FFE0
018000
030000
01C000
007FF0
00FFE0
038000
060000
0C0000
0C0000
0FC000
07FC00
007F00
000380
038700
03FC00
000000
ENDCHAR

STARTCHAR kor_A5EF
ENCODING 42479
SWIDTH 903 0
DWIDTH 24 0
BBX 24 24 0 -2
BITMAP
000000
000000
000000
000000
000000
000000
000000
000000
003F00
00E1C0
01C0C0
0380E0
0380E0
0700E0
0700E0
0700E0
0701C0
0701C0
030380
038700
00FC00
000000
000000
000000
ENDCHAR

STARTCHAR kor_A5F0
ENCODING 42480
SWIDTH 903 0
DWIDTH 24 0
BBX 24 24 0 -2
BITMAP
000000
000000
000000
000000
000000
000000
000000
000018
03FFF8
07FFF0
067380
0C7380
00E700
00E700
01CE00
01CE00
038C00
039C60
071CC0
0F1F80
0E0F00
000000
000000
000000
ENDCHAR

STARTCHAR kor_A5F1
ENCODING 42481
SWIDTH 903 0
DWIDTH 24 0
BBX 24 24 0 -2
BITMAP
000000
000000
000000
000000
000000
000000
000000
000000
000F80
0038E0
007060
00E070
00C070
01C070
018070
0380E0
02C0E0
02C1C0
076380
073E00
0F0000
0E0000
0E0000
000000
ENDCHAR

STARTCHAR kor_A5F2
ENCODING 42482
SWIDTH 903 0
DWIDTH 24 0
BBX 24 24 0 -2
BITMAP
000000
000000
000000
000000
000000
000000
000030
000038
001FF8
007FF0
00E300
01C180
0380C0
0380E0
0700E0
0700E0
0701C0
0701C0
030380
038700
00FC00
000000
000000
000000
ENDCHAR

STARTCHAR kor_A5F3
ENCODING 42483
SWIDTH 903 0
DWIDTH 24 0
BBX 24 24 0 -2
BITMAP
000000
000000
000000
000000
000000
000000
000000
000018
03FFF8
07FFF0
063800
0C3800
007000
007000
00E000
00E000
01C0C0
01C180
01C700
00FE00
007800
000000
000000
000000
ENDCHAR

STARTCHAR kor_A5F4
ENCODING 42484
SWIDTH 903 0
DWIDTH 24 0
BBX 24 24 0 -2
BITMAP
000000
000000
000000
000000
000000
000000
000000
000000
000000
01C0E0
01C070
01C070
01C070
0380E0
0380E0
0381C0
0701C0
070380
070700
031C00
01F000
000000
000000
000000
ENDCHAR

STARTCHAR kor_A5F5
ENCODING 42485
SWIDTH 903 0
DWIDTH 24 0
BBX 24 24 0 -2
BITMAP
000000
000000
000000
000380
000380
000700
000700
000600
000600
007F80
01CEE0
038C70
070C38
0E1C38
0E1838
0E3870
0730E0
03B1C0
00FF00
007000
007000
00E000
00E000
000000
ENDCHAR

STARTCHAR kor_A5F6
ENCODING 42486
SWIDTH 903 0
DWIDTH 24 0
BBX 24 24 0 -2
BITMAP
000000
000000
000000
000000
000000
000000
000000
000000
000000
01E070
03F0F0
0339E0
061BC0
001780
001E00
001C00
003800
00F800
01D800
079860
0F1CC0
1E0FC0
1C0780
000000
ENDCHAR

STARTCHAR kor_A5F7
ENCODING 42487
SWIDTH 903 0
DWIDTH 24 0
BBX 24 24 0 -2
BITMAP
000000
000000
000000
000380
000380
000380
000700
000700
078670
0DC678
01CE38
01CC38
038C38
039C70
071870
0718E0
0739C0
033380
01FE00
007000
007000
00E000
00E000
000000
ENDCHAR

STARTCHAR kor_A5F8
ENCODING 42488
SWIDTH 903 0
DWIDTH 24 0
BBX 24 24 0 -2
BITMAP
000000
000000
000000
000000
000000
000000
000000
000000
007060
01C030
038038
070018
0E0E1C
0E0E1C
1C1E1C
1C1C1C
1C1C1C
1C3C38
0C3638
0E7670
03C3C0
000000
000000
000000
ENDCHAR

STARTCHAR kor_A6A1
ENCODING 42657
SWIDTH 903 0
DWIDTH 24 0
BBX 24 24 0 -2
BITMAP
000000
000000
000000
000000
000000
000000
000000
000000
000000
000000
000000
FFFFFF
000000
000000
000000
000000
000000
000000
000000
000000
000000
000000
000000
000000
ENDCHAR

STARTCHAR kor_A6A2
ENCODING 42658
SWIDTH 903 0
DWIDTH 24 0
BBX 24 24 0 -2
BITMAP
000600
000600
000600
000600
000600
000600
000600
000600
000600
000600
000600
000600
000600
000600
000600
000600
000600
000600
000600
000600
000600
000600
000600
000600
ENDCHAR

STARTCHAR kor_A6A3
ENCODING 42659
SWIDTH 903 0
DWIDTH 24 0
BBX 24 24 0 -2
BITMAP
000000
000000
000000
000000
000000
000000
000000
000000
000000
000000
000000
0007FF
000600
000600
000600
000600
000600
000600
000600
000600
000600
000600
000600
000600
ENDCHAR

STARTCHAR kor_A6A4
ENCODING 42660
SWIDTH 903 0
DWIDTH 24 0
BBX 24 24 0 -2
BITMAP
000000
000000
000000
000000
000000
000000
000000
000000
000000
000000
000000
FFFE00
000600
000600
000600
000600
000600
000600
000600
000600
000600
000600
000600
000600
ENDCHAR

STARTCHAR kor_A6A5
ENCODING 42661
SWIDTH 903 0
DWIDTH 24 0
BBX 24 24 0 -2
BITMAP
000600
000600
000600
000600
000600
000600
000600
000600
000600
000600
000600
FFFE00
000000
000000
000000
000000
000000
000000
000000
000000
000000
000000
000000
000000
ENDCHAR

STARTCHAR kor_A6A6
ENCODING 42662
SWIDTH 903 0
DWIDTH 24 0
BBX 24 24 0 -2
BITMAP
000600
000600
000600
000600
000600
000600
000600
000600
000600
000600
000600
0007FF
000000
000000
000000
000000
000000
000000
000000
000000
000000
000000
000000
000000
ENDCHAR

STARTCHAR kor_A6A7
ENCODING 42663
SWIDTH 903 0
DWIDTH 24 0
BBX 24 24 0 -2
BITMAP
000600
000600
000600
000600
000600
000600
000600
000600
000600
000600
000600
0007FF
000600
000600
000600
000600
000600
000600
000600
000600
000600
000600
000600
000600
ENDCHAR

STARTCHAR kor_A6A8
ENCODING 42664
SWIDTH 903 0
DWIDTH 24 0
BBX 24 24 0 -2
BITMAP
000000
000000
000000
000000
000000
000000
000000
000000
000000
000000
000000
FFFFFF
000600
000600
000600
000600
000600
000600
000600
000600
000600
000600
000600
000600
ENDCHAR

STARTCHAR kor_A6A9
ENCODING 42665
SWIDTH 903 0
DWIDTH 24 0
BBX 24 24 0 -2
BITMAP
000600
000600
000600
000600
000600
000600
000600
000600
000600
000600
000600
FFFE00
000600
000600
000600
000600
000600
000600
000600
000600
000600
000600
000600
000600
ENDCHAR

STARTCHAR kor_A6AA
ENCODING 42666
SWIDTH 903 0
DWIDTH 24 0
BBX 24 24 0 -2
BITMAP
000600
000600
000600
000600
000600
000600
000600
000600
000600
000600
000600
FFFFFF
000000
000000
000000
000000
000000
000000
000000
000000
000000
000000
000000
000000
ENDCHAR

STARTCHAR kor_A6AB
ENCODING 42667
SWIDTH 903 0
DWIDTH 24 0
BBX 24 24 0 -2
BITMAP
000600
000600
000600
000600
000600
000600
000600
000600
000600
000600
000600
FFFFFF
000600
000600
000600
000600
000600
000600
000600
000600
000600
000600
000600
000600
ENDCHAR

STARTCHAR kor_A6AC
ENCODING 42668
SWIDTH 903 0
DWIDTH 24 0
BBX 24 24 0 -2
BITMAP
000000
000000
000000
000000
000000
000000
000000
000000
000000
000000
FFFFFF
FFFFFF
FFFFFF
000000
000000
000000
000000
000000
000000
000000
000000
000000
000000
000000
ENDCHAR

STARTCHAR kor_A6AD
ENCODING 42669
SWIDTH 903 0
DWIDTH 24 0
BBX 24 24 0 -2
BITMAP
000F00
000F00
000F00
000F00
000F00
000F00
000F00
000F00
000F00
000F00
000F00
000F00
000F00
000F00
000F00
000F00
000F00
000F00
000F00
000F00
000F00
000F00
000F00
000F00
ENDCHAR

STARTCHAR kor_A6AE
ENCODING 42670
SWIDTH 903 0
DWIDTH 24 0
BBX 24 24 0 -2
BITMAP
000000
000000
000000
000000
000000
000000
000000
000000
000000
000000
000FFF
000FFF
000FFF
000F00
000F00
000F00
000F00
000F00
000F00
000F00
000F00
000F00
000F00
000F00
ENDCHAR

STARTCHAR kor_A6AF
ENCODING 42671
SWIDTH 903 0
DWIDTH 24 0
BBX 24 24 0 -2
BITMAP
000000
000000
000000
000000
000000
000000
000000
000000
000000
000000
FFFF00
FFFF00
FFFF00
000F00
000F00
000F00
000F00
000F00
000F00
000F00
000F00
000F00
000F00
000F00
ENDCHAR

STARTCHAR kor_A6B0
ENCODING 42672
SWIDTH 903 0
DWIDTH 24 0
BBX 24 24 0 -2
BITMAP
000F00
000F00
000F00
000F00
000F00
000F00
000F00
000F00
000F00
000F00
FFFF00
FFFF00
FFFF00
000000
000000
000000
000000
000000
000000
000000
000000
000000
000000
000000
ENDCHAR

STARTCHAR kor_A6B1
ENCODING 42673
SWIDTH 903 0
DWIDTH 24 0
BBX 24 24 0 -2
BITMAP
000F00
000F00
000F00
000F00
000F00
000F00
000F00
000F00
000F00
000F00
000FFF
000FFF
000FFF
000000
000000
000000
000000
000000
000000
000000
000000
000000
000000
000000
ENDCHAR

STARTCHAR kor_A6B2
ENCODING 42674
SWIDTH 903 0
DWIDTH 24 0
BBX 24 24 0 -2
BITMAP
000F00
000F00
000F00
000F00
000F00
000F00
000F00
000F00
000F00
000F00
000FFF
000FFF
000FFF
000F00
000F00
000F00
000F00
000F00
000F00
000F00
000F00
000F00
000F00
000F00
ENDCHAR

STARTCHAR kor_A6B3
ENCODING 42675
SWIDTH 903 0
DWIDTH 24 0
BBX 24 24 0 -2
BITMAP
000000
000000
000000
000000
000000
000000
000000
000000
000000
000000
FFFFFF
FFFFFF
FFFFFF
000F00
000F00
000F00
000F00
000F00
000F00
000F00
000F00
000F00
000F00
000F00
ENDCHAR

STARTCHAR kor_A6B4
ENCODING 42676
SWIDTH 903 0
DWIDTH 24 0
BBX 24 24 0 -2
BITMAP
000F00
000F00
000F00
000F00
000F00
000F00
000F00
000F00
000F00
000F00
FFFF00
FFFF00
FFFF00
000F00
000F00
000F00
000F00
000F00
000F00
000F00
000F00
000F00
000F00
000F00
ENDCHAR

STARTCHAR kor_A6B5
ENCODING 42677
SWIDTH 903 0
DWIDTH 24 0
BBX 24 24 0 -2
BITMAP
000F00
000F00
000F00
000F00
000F00
000F00
000F00
000F00
000F00
000F00
FFFFFF
FFFFFF
FFFFFF
000000
000000
000000
000000
000000
000000
000000
000000
000000
000000
000000
ENDCHAR

STARTCHAR kor_A6B6
ENCODING 42678
SWIDTH 903 0
DWIDTH 24 0
BBX 24 24 0 -2
BITMAP
000F00
000F00
000F00
000F00
000F00
000F00
000F00
000F00
000F00
000F00
FFFFFF
FFFFFF
FFFFFF
000F00
000F00
000F00
000F00
000F00
000F00
000F00
000F00
000F00
000F00
000F00
ENDCHAR

STARTCHAR kor_A6B7
ENCODING 42679
SWIDTH 903 0
DWIDTH 24 0
BBX 24 24 0 -2
BITMAP
000F00
000F00
000F00
000F00
000F00
000F00
000F00
000F00
000F00
000F00
000F00
000FFF
000F00
000F00
000F00
000F00
000F00
000F00
000F00
000F00
000F00
000F00
000F00
000F00
ENDCHAR

STARTCHAR kor_A6B8
ENCODING 42680
SWIDTH 903 0
DWIDTH 24 0
BBX 24 24 0 -2
BITMAP
000000
000000
000000
000000
000000
000000
000000
000000
000000
000000
FFFFFF
FFFFFF
FFFFFF
000600
000600
000600
000600
000600
000600
000600
000600
000600
000600
000600
ENDCHAR

STARTCHAR kor_A6B9
ENCODING 42681
SWIDTH 903 0
DWIDTH 24 0
BBX 24 24 0 -2
BITMAP
000F00
000F00
000F00
000F00
000F00
000F00
000F00
000F00
000F00
000F00
000F00
FFFF00
000F00
000F00
000F00
000F00
000F00
000F00
000F00
000F00
000F00
000F00
000F00
000F00
ENDCHAR

STARTCHAR kor_A6BA
ENCODING 42682
SWIDTH 903 0
DWIDTH 24 0
BBX 24 24 0 -2
BITMAP
000600
000600
000600
000600
000600
000600
000600
000600
000600
000600
FFFFFF
FFFFFF
FFFFFF
000000
000000
000000
000000
000000
000000
000000
000000
000000
000000
000000
ENDCHAR

STARTCHAR kor_A6BB
ENCODING 42683
SWIDTH 903 0
DWIDTH 24 0
BBX 24 24 0 -2
BITMAP
000600
000600
000600
000600
000600
000600
000600
000600
000600
000600
FFFFFF
FFFFFF
FFFFFF
000600
000600
000600
000600
000600
000600
000600
000600
000600
000600
000600
ENDCHAR

STARTCHAR kor_A6BC
ENCODING 42684
SWIDTH 903 0
DWIDTH 24 0
BBX 24 24 0 -2
BITMAP
000600
000600
000600
000600
000600
000600
000600
000600
000600
000600
0007FF
0007FF
0007FF
000600
000600
000600
000600
000600
000600
000600
000600
000600
000600
000600
ENDCHAR

STARTCHAR kor_A6BD
ENCODING 42685
SWIDTH 903 0
DWIDTH 24 0
BBX 24 24 0 -2
BITMAP
000000
000000
000000
000000
000000
000000
000000
000000
000000
000000
000000
FFFFFF
000F00
000F00
000F00
000F00
000F00
000F00
000F00
000F00
000F00
000F00
000F00
000F00
ENDCHAR

STARTCHAR kor_A6BE
ENCODING 42686
SWIDTH 903 0
DWIDTH 24 0
BBX 24 24 0 -2
BITMAP
000600
000600
000600
000600
000600
000600
000600
000600
000600
000600
FFFE00
FFFE00
FFFE00
000600
000600
000600
000600
000600
000600
000600
000600
000600
000600
000600
ENDCHAR

STARTCHAR kor_A6BF
ENCODING 42687
SWIDTH 903 0
DWIDTH 24 0
BBX 24 24 0 -2
BITMAP
000F00
000F00
000F00
000F00
000F00
000F00
000F00
000F00
000F00
000F00
000F00
FFFFFF
000000
000000
000000
000000
000000
000000
000000
000000
000000
000000
000000
000000
ENDCHAR

STARTCHAR kor_A6C0
ENCODING 42688
SWIDTH 903 0
DWIDTH 24 0
BBX 24 24 0 -2
BITMAP
000F00
000F00
000F00
000F00
000F00
000F00
000F00
000F00
000F00
000F00
000F00
FFFFFF
000F00
000F00
000F00
000F00
000F00
000F00
000F00
000F00
000F00
000F00
000F00
000F00
ENDCHAR

STARTCHAR kor_A6C1
ENCODING 42689
SWIDTH 903 0
DWIDTH 24 0
BBX 24 24 0 -2
BITMAP
000000
000000
000000
000000
000000
000000
000000
000000
000000
000000
000000
FFFF00
000F00
000F00
000F00
000F00
000F00
000F00
000F00
000F00
000F00
000F00
000F00
000F00
ENDCHAR

STARTCHAR kor_A6C2
ENCODING 42690
SWIDTH 903 0
DWIDTH 24 0
BBX 24 24 0 -2
BITMAP
000000
000000
000000
000000
000000
000000
000000
000000
000000
000000
FFFE00
FFFE00
FFFE00
000600
000600
000600
000600
000600
000600
000600
000600
000600
000600
000600
ENDCHAR

STARTCHAR kor_A6C3
ENCODING 42691
SWIDTH 903 0
DWIDTH 24 0
BBX 24 24 0 -2
BITMAP
000F00
000F00
000F00
000F00
000F00
000F00
000F00
000F00
000F00
000F00
000F00
FFFF00
000000
000000
000000
000000
000000
000000
000000
000000
000000
000000
000000
000000
ENDCHAR

STARTCHAR kor_A6C4
ENCODING 42692
SWIDTH 903 0
DWIDTH 24 0
BBX 24 24 0 -2
BITMAP
000600
000600
000600
000600
000600
000600
000600
000600
000600
000600
FFFE00
FFFE00
FFFE00
000000
000000
000000
000000
000000
000000
000000
000000
000000
000000
000000
ENDCHAR

STARTCHAR kor_A6C5
ENCODING 42693
SWIDTH 903 0
DWIDTH 24 0
BBX 24 24 0 -2
BITMAP
000F00
000F00
000F00
000F00
000F00
000F00
000F00
000F00
000F00
000F00
000F00
000FFF
000000
000000
000000
000000
000000
000000
000000
000000
000000
000000
000000
000000
ENDCHAR

STARTCHAR kor_A6C6
ENCODING 42694
SWIDTH 903 0
DWIDTH 24 0
BBX 24 24 0 -2
BITMAP
000600
000600
000600
000600
000600
000600
000600
000600
000600
000600
0007FF
0007FF
0007FF
000000
000000
000000
000000
000000
000000
000000
000000
000000
000000
000000
ENDCHAR

STARTCHAR kor_A6C7
ENCODING 42695
SWIDTH 903 0
DWIDTH 24 0
BBX 24 24 0 -2
BITMAP
000000
000000
000000
000000
000000
000000
000000
000000
000000
000000
000000
000FFF
000F00
000F00
000F00
000F00
000F00
000F00
000F00
000F00
000F00
000F00
000F00
000F00
ENDCHAR

STARTCHAR kor_A6C8
ENCODING 42696
SWIDTH 903 0
DWIDTH 24 0
BBX 24 24 0 -2
BITMAP
000000
000000
000000
000000
000000
000000
000000
000000
000000
000000
0007FF
0007FF
0007FF
000600
000600
000600
000600
000600
000600
000600
000600
000600
000600
000600
ENDCHAR

STARTCHAR kor_A6C9
ENCODING 42697
SWIDTH 903 0
DWIDTH 24 0
BBX 24 24 0 -2
BITMAP
000F00
000F00
000F00
000F00
000F00
000F00
000F00
000F00
000F00
000F00
000F00
000FFF
000600
000600
000600
000600
000600
000600
000600
000600
000600
000600
000600
000600
ENDCHAR

STARTCHAR kor_A6CA
ENCODING 42698
SWIDTH 903 0
DWIDTH 24 0
BBX 24 24 0 -2
BITMAP
000600
000600
000600
000600
000600
000600
000600
000600
000600
000600
000600
000FFF
000F00
000F00
000F00
000F00
000F00
000F00
000F00
000F00
000F00
000F00
000F00
000F00
ENDCHAR

STARTCHAR kor_A6CB
ENCODING 42699
SWIDTH 903 0
DWIDTH 24 0
BBX 24 24 0 -2
BITMAP
000F00
000F00
000F00
000F00
000F00
000F00
000F00
000F00
000F00
000F00
000FFF
000FFF
000FFF
000600
000600
000600
000600
000600
000600
000600
000600
000600
000600
000600
ENDCHAR

STARTCHAR kor_A6CC
ENCODING 42700
SWIDTH 903 0
DWIDTH 24 0
BBX 24 24 0 -2
BITMAP
000600
000600
000600
000600
000600
000600
000600
000600
000600
000600
000FFF
000FFF
000FFF
000F00
000F00
000F00
000F00
000F00
000F00
000F00
000F00
000F00
000F00
000F00
ENDCHAR

STARTCHAR kor_A6CD
ENCODING 42701
SWIDTH 903 0
DWIDTH 24 0
BBX 24 24 0 -2
BITMAP
000F00
000F00
000F00
000F00
000F00
000F00
000F00
000F00
000F00
000F00
000F00
FFFF00
000600
000600
000600
000600
000600
000600
000600
000600
000600
000600
000600
000600
ENDCHAR

STARTCHAR kor_A6CE
ENCODING 42702
SWIDTH 903 0
DWIDTH 24 0
BBX 24 24 0 -2
BITMAP
000600
000600
000600
000600
000600
000600
000600
000600
000600
000600
000600
FFFF00
000F00
000F00
000F00
000F00
000F00
000F00
000F00
000F00
000F00
000F00
000F00
000F00
ENDCHAR

STARTCHAR kor_A6CF
ENCODING 42703
SWIDTH 903 0
DWIDTH 24 0
BBX 24 24 0 -2
BITMAP
000F00
000F00
000F00
000F00
000F00
000F00
000F00
000F00
000F00
000F00
FFFF00
FFFF00
FFFF00
000600
000600
000600
000600
000600
000600
000600
000600
000600
000600
000600
ENDCHAR

STARTCHAR kor_A6D0
ENCODING 42704
SWIDTH 903 0
DWIDTH 24 0
BBX 24 24 0 -2
BITMAP
000600
000600
000600
000600
000600
000600
000600
000600
000600
000600
FFFF00
FFFF00
FFFF00
000F00
000F00
000F00
000F00
000F00
000F00
000F00
000F00
000F00
000F00
000F00
ENDCHAR

STARTCHAR kor_A6D1
ENCODING 42705
SWIDTH 903 0
DWIDTH 24 0
BBX 24 24 0 -2
BITMAP
000000
000000
000000
000000
000000
000000
000000
000000
000000
000000
FFFE00
FFFFFF
FFFE00
000600
000600
000600
000600
000600
000600
000600
000600
000600
000600
000600
ENDCHAR

STARTCHAR kor_A6D2
ENCODING 42706
SWIDTH 903 0
DWIDTH 24 0
BBX 24 24 0 -2
BITMAP
000000
000000
000000
000000
000000
000000
000000
000000
000000
000000
0007FF
FFFFFF
0007FF
000600
000600
000600
000600
000600
000600
000600
000600
000600
000600
000600
ENDCHAR

STARTCHAR kor_A6D3
ENCODING 42707
SWIDTH 903 0
DWIDTH 24 0
BBX 24 24 0 -2
BITMAP
000000
000000
000000
000000
000000
000000
000000
000000
000000
000000
FFFF00
FFFFFF
FFFF00
000F00
000F00
000F00
000F00
000F00
000F00
000F00
000F00
000F00
000F00
000F00
ENDCHAR

STARTCHAR kor_A6D4
ENCODING 42708
SWIDTH 903 0
DWIDTH 24 0
BBX 24 24 0 -2
BITMAP
000000
000000
000000
000000
000000
000000
000000
000000
000000
000000
000FFF
FFFFFF
000FFF
000F00
000F00
000F00
000F00
000F00
000F00
000F00
000F00
000F00
000F00
000F00
ENDCHAR

STARTCHAR kor_A6D5
ENCODING 42709
SWIDTH 903 0
DWIDTH 24 0
BBX 24 24 0 -2
BITMAP
000600
000600
000600
000600
000600
000600
000600
000600
000600
000600
FFFE00
FFFFFF
FFFE00
000000
000000
000000
000000
000000
000000
000000
000000
000000
000000
000000
ENDCHAR

STARTCHAR kor_A6D6
ENCODING 42710
SWIDTH 903 0
DWIDTH 24 0
BBX 24 24 0 -2
BITMAP
000600
000600
000600
000600
000600
000600
000600
000600
000600
000600
0007FF
FFFFFF
0007FF
000000
000000
000000
000000
000000
000000
000000
000000
000000
000000
000000
ENDCHAR

STARTCHAR kor_A6D7
ENCODING 42711
SWIDTH 903 0
DWIDTH 24 0
BBX 24 24 0 -2
BITMAP
000F00
000F00
000F00
000F00
000F00
000F00
000F00
000F00
000F00
000F00
FFFF00
FFFFFF
FFFF00
000000
000000
000000
000000
000000
000000
000000
000000
000000
000000
000000
ENDCHAR

STARTCHAR kor_A6D8
ENCODING 42712
SWIDTH 903 0
DWIDTH 24 0
BBX 24 24 0 -2
BITMAP
000F00
000F00
000F00
000F00
000F00
000F00
000F00
000F00
000F00
000F00
000FFF
FFFFFF
000FFF
000000
000000
000000
000000
000000
000000
000000
000000
000000
000000
000000
ENDCHAR

STARTCHAR kor_A6D9
ENCODING 42713
SWIDTH 903 0
DWIDTH 24 0
BBX 24 24 0 -2
BITMAP
000600
000600
000600
000600
000600
000600
000600
000600
000600
000600
FFFE00
FFFFFF
FFFE00
000600
000600
000600
000600
000600
000600
000600
000600
000600
000600
000600
ENDCHAR

STARTCHAR kor_A6DA
ENCODING 42714
SWIDTH 903 0
DWIDTH 24 0
BBX 24 24 0 -2
BITMAP
000600
000600
000600
000600
000600
000600
000600
000600
000600
000600
0007FF
FFFFFF
0007FF
000600
000600
000600
000600
000600
000600
000600
000600
000600
000600
000600
ENDCHAR

STARTCHAR kor_A6DB
ENCODING 42715
SWIDTH 903 0
DWIDTH 24 0
BBX 24 24 0 -2
BITMAP
000F00
000F00
000F00
000F00
000F00
000F00
000F00
000F00
000F00
000F00
000F00
FFFFFF
000600
000600
000600
000600
000600
000600
000600
000600
000600
000600
000600
000600
ENDCHAR

STARTCHAR kor_A6DC
ENCODING 42716
SWIDTH 903 0
DWIDTH 24 0
BBX 24 24 0 -2
BITMAP
000600
000600
000600
000600
000600
000600
000600
000600
000600
000600
000600
FFFFFF
000F00
000F00
000F00
000F00
000F00
000F00
000F00
000F00
000F00
000F00
000F00
000F00
ENDCHAR

STARTCHAR kor_A6DD
ENCODING 42717
SWIDTH 903 0
DWIDTH 24 0
BBX 24 24 0 -2
BITMAP
000F00
000F00
000F00
000F00
000F00
000F00
000F00
000F00
000F00
000F00
FFFF00
FFFFFF
FFFF00
000600
000600
000600
000600
000600
000600
000600
000600
000600
000600
000600
ENDCHAR

STARTCHAR kor_A6DE
ENCODING 42718
SWIDTH 903 0
DWIDTH 24 0
BBX 24 24 0 -2
BITMAP
000F00
000F00
000F00
000F00
000F00
000F00
000F00
000F00
000F00
000F00
000FFF
FFFFFF
000FFF
000600
000600
000600
000600
000600
000600
000600
000600
000600
000600
000600
ENDCHAR

STARTCHAR kor_A6DF
ENCODING 42719
SWIDTH 903 0
DWIDTH 24 0
BBX 24 24 0 -2
BITMAP
000600
000600
000600
000600
000600
000600
000600
000600
000600
000600
FFFF00
FFFFFF
FFFF00
000F00
000F00
000F00
000F00
000F00
000F00
000F00
000F00
000F00
000F00
000F00
ENDCHAR

STARTCHAR kor_A6E0
ENCODING 42720
SWIDTH 903 0
DWIDTH 24 0
BBX 24 24 0 -2
BITMAP
000600
000600
000600
000600
000600
000600
000600
000600
000600
000600
000FFF
FFFFFF
000FFF
000F00
000F00
000F00
000F00
000F00
000F00
000F00
000F00
000F00
000F00
000F00
ENDCHAR

STARTCHAR kor_A6E1
ENCODING 42721
SWIDTH 903 0
DWIDTH 24 0
BBX 24 24 0 -2
BITMAP
000F00
000F00
000F00
000F00
000F00
000F00
000F00
000F00
000F00
000F00
FFFFFF
FFFFFF
FFFFFF
000600
000600
000600
000600
000600
000600
000600
000600
000600
000600
000600
ENDCHAR

STARTCHAR kor_A6E2
ENCODING 42722
SWIDTH 903 0
DWIDTH 24 0
BBX 24 24 0 -2
BITMAP
000600
000600
000600
000600
000600
000600
000600
000600
000600
000600
FFFFFF
FFFFFF
FFFFFF
000F00
000F00
000F00
000F00
000F00
000F00
000F00
000F00
000F00
000F00
000F00
ENDCHAR

STARTCHAR kor_A6E3
ENCODING 42723
SWIDTH 903 0
DWIDTH 24 0
BBX 24 24 0 -2
BITMAP
000F00
000F00
000F00
000F00
000F00
000F00
000F00
000F00
000F00
000F00
FFFF00
FFFFFF
FFFF00
000F00
000F00
000F00
000F00
000F00
000F00
000F00
000F00
000F00
000F00
000F00
ENDCHAR

STARTCHAR kor_A6E4
ENCODING 42724
SWIDTH 903 0
DWIDTH 24 0
BBX 24 24 0 -2
BITMAP
000F00
000F00
000F00
000F00
000F00
000F00
000F00
000F00
000F00
000F00
000FFF
FFFFFF
000FFF
000F00
000F00
000F00
000F00
000F00
000F00
000F00
000F00
000F00
000F00
000F00
ENDCHAR

STARTCHAR kor_A7A1
ENCODING 42913
SWIDTH 903 0
DWIDTH 24 0
BBX 24 24 0 -2
BITMAP
000000
000000
000000
00001C
000036
000066
000066
0000C6
0000CC
030CCC
030D8C
061998
061998
0618B0
0C30E0
0C30C0
0C3160
1C5B63
165866
1BCE3C
300000
300000
300000
000000
ENDCHAR

STARTCHAR kor_A7A2
ENCODING 42914
SWIDTH 903 0
DWIDTH 24 0
BBX 24 24 0 -2
BITMAP
000000
000000
000000
00001C
000036
000066
000066
0000C6
0000CC
2F78CC
79CD8C
318D98
318D98
318CB0
318CE0
318CC0
318D60
318B63
318C66
7BDE3C
000000
000000
000000
000000
ENDCHAR

STARTCHAR kor_A7A3
ENCODING 42915
SWIDTH 903 0
DWIDTH 24 0
BBX 24 24 0 -2
BITMAP
000000
000000
000000
003070
0070D8
003198
003198
003318
003330
07B330
0CB630
0C7660
183660
1832C0
183380
183300
183580
0C6D8C
0CB198
07B0F0
000000
000000
000000
000000
ENDCHAR

STARTCHAR kor_A7A4
ENCODING 42916
SWIDTH 903 0
DWIDTH 24 0
BBX 24 24 0 -2
BITMAP
000000
000000
000000
000700
000D80
001980
001980
003180
003300
003300
006300
006600
006600
002C00
003800
003000
005800
00D8C0
001980
000F00
000000
000000
000000
000000
ENDCHAR

STARTCHAR kor_A7A5
ENCODING 42917
SWIDTH 903 0
DWIDTH 24 0
BBX 24 24 0 -2
BITMAP
000000
000000
000000
180070
3800D8
180198
180198
180318
181B30
183330
186630
18C660
198660
1B02C0
170380
1D8300
18C580
186D8C
183198
3C18F0
000000
000000
000000
000000
ENDCHAR

STARTCHAR kor_A7A6
ENCODING 42918
SWIDTH 903 0
DWIDTH 24 0
BBX 24 24 0 -2
BITMAP
000000
000000
000000
000000
000000
000000
000000
000000
000000
07B0F6
0C718E
183306
183306
300600
300600
300600
180300
183306
0C618C
07C0F8
000000
000000
000000
000000
ENDCHAR

STARTCHAR kor_A7A7
ENCODING 42919
SWIDTH 903 0
DWIDTH 24 0
BBX 24 24 0 -2
BITMAP
000000
000000
00001E
000003
00000E
000003
000003
00001E
000000
2EE5DC
7BAF76
333666
333666
333666
333666
333666
333666
333666
333666
776EEF
000000
000000
000000
000000
ENDCHAR

STARTCHAR kor_A7A8
ENCODING 42920
SWIDTH 903 0
DWIDTH 24 0
BBX 24 24 0 -2
BITMAP
000000
000000
00001E
000003
00000E
000003
000003
00001E
000000
0F6BB8
18DEEC
306CCC
306CCC
600CCC
600CCC
600CCC
300CCC
306CCC
18CCCC
0F9DDE
000000
000000
000000
000000
ENDCHAR

STARTCHAR kor_A7A9
ENCODING 42921
SWIDTH 903 0
DWIDTH 24 0
BBX 24 24 0 -2
BITMAP
000000
000000
0000F0
000018
000070
000018
000018
0000F0
000000
02F780
079CC0
0318C0
0318C0
0318C0
0318C0
0318C0
0318C0
0318C0
0318C0
07BDE0
000000
000000
000000
000000
ENDCHAR

STARTCHAR kor_A7AA
ENCODING 42922
SWIDTH 903 0
DWIDTH 24 0
BBX 24 24 0 -2
BITMAP
000000
000000
00001E
300003
70000E
300003
300003
30001E
300000
306BB8
30DEEC
318CCC
330CCC
360CCC
2C0CCC
360CCC
330CCC
318CCC
30CCCC
785DDE
000000
000000
000000
000000
ENDCHAR

STARTCHAR kor_A7AB
ENCODING 42923
SWIDTH 903 0
DWIDTH 24 0
BBX 24 24 0 -2
BITMAP
000000
000000
000000
03C000
066000
066000
060000
060000
060000
3FD770
063DD8
061998
061998
061998
061998
061998
061998
061998
061998
1FBBBC
000000
000000
000000
000000
ENDCHAR

STARTCHAR kor_A7AC
ENCODING 42924
SWIDTH 903 0
DWIDTH 24 0
BBX 24 24 0 -2
BITMAP
000000
000000
000000
000000
000000
000000
000000
000000
000000
378BB8
6CDEEC
386CCC
306CCC
306CCC
306CCC
306CCC
306CCC
306CCC
306CCC
78DDDE
000000
000000
000000
000000
ENDCHAR

STARTCHAR kor_A7AD
ENCODING 42925
SWIDTH 903 0
DWIDTH 24 0
BBX 24 24 0 -2
BITMAP
000000
000000
000000
000000
000000
000000
000000
000000
000000
0C35DC
0C2F76
0C3666
186666
186666
186666
30C666
30C666
30C666
395666
6F2EEF
600000
600000
600000
000000
ENDCHAR

STARTCHAR kor_A7AE
ENCODING 42926
SWIDTH 903 0
DWIDTH 24 0
BBX 24 24 0 -2
BITMAP
000000
000000
000000
000000
000000
000000
000000
000000
000000
2EE5DC
7BAF76
333666
333666
333666
333666
333666
333666
333666
333666
776EEF
000000
000000
000000
000000
ENDCHAR

STARTCHAR kor_A7AF
ENCODING 42927
SWIDTH 903 0
DWIDTH 24 0
BBX 24 24 0 -2
BITMAP
000000
000000
000000
000000
000000
000000
000000
000000
000000
0F6BB8
18DEEC
306CCC
306CCC
600CCC
600CCC
600CCC
300CCC
306CCC
18CCCC
0F9DDE
000000
000000
000000
000000
ENDCHAR

STARTCHAR kor_A7B0
ENCODING 42928
SWIDTH 903 0
DWIDTH 24 0
BBX 24 24 0 -2
BITMAP
000000
000000
000000
300000
700000
300000
300000
300000
300000
306BB8
30DEEC
318CCC
330CCC
360CCC
2C0CCC
360CCC
330CCC
318CCC
30CCCC
785DDE
000000
000000
000000
000000
ENDCHAR

STARTCHAR kor_A7B1
ENCODING 42929
SWIDTH 903 0
DWIDTH 24 0
BBX 24 24 0 -2
BITMAP
000000
000000
00001E
000003
000006
00000C
000018
00001F
000000
2EE5DC
7BAF76
333666
333666
333666
333666
333666
333666
333666
333666
776EEF
000000
000000
000000
000000
ENDCHAR

STARTCHAR kor_A7B2
ENCODING 42930
SWIDTH 903 0
DWIDTH 24 0
BBX 24 24 0 -2
BITMAP
000000
000000
00001E
000003
000006
00000C
000018
00001F
000000
0F6BB8
18DEEC
306CCC
306CCC
600CCC
600CCC
600CCC
300CCC
306CCC
18CCCC
0F9DDE
000000
000000
000000
000000
ENDCHAR

STARTCHAR kor_A7B3
ENCODING 42931
SWIDTH 903 0
DWIDTH 24 0
BBX 24 24 0 -2
BITMAP
000000
000000
0000F0
000018
000030
000060
0000C0
0000F8
000000
02F780
079CC0
0318C0
0318C0
0318C0
0318C0
0318C0
0318C0
0318C0
0318C0
07BDE0
000000
000000
000000
000000
ENDCHAR

STARTCHAR kor_A7B4
ENCODING 42932
SWIDTH 903 0
DWIDTH 24 0
BBX 24 24 0 -2
BITMAP
000000
000000
00001E
300003
700006
30000C
300018
30001F
300000
306BB8
30DEEC
318CCC
330CCC
360CCC
2C0CCC
360CCC
330CCC
318CCC
30CCCC
785DDE
000000
000000
000000
000000
ENDCHAR

STARTCHAR kor_A7B5
ENCODING 42933
SWIDTH 903 0
DWIDTH 24 0
BBX 24 24 0 -2
BITMAP
000000
000000
000000
180000
380000
180000
180000
180000
1803F0
17C018
1C600C
18300C
1831EC
18331C
18360C
18360C
18360C
18360C
18331C
3C79F7
000000
000000
000000
000000
ENDCHAR

STARTCHAR kor_A7B6
ENCODING 42934
SWIDTH 903 0
DWIDTH 24 0
BBX 24 24 0 -2
BITMAP
000000
000000
000000
000000
000000
000000
000000
00000E
0001D8
0C3338
0C360C
0C360C
18660C
186318
1861F0
30C300
30C600
30C3FC
395606
6F3606
600606
60060C
6003F8
000000
ENDCHAR

STARTCHAR kor_A7B7
ENCODING 42935
SWIDTH 903 0
DWIDTH 24 0
BBX 24 24 0 -2
BITMAP
000000
000000
000000
000000
000000
000000
000000
00000E
0001D8
2EE338
7BB60C
33360C
33360C
333318
3331F0
333300
333600
3333FC
333606
777606
000606
00060C
0003F8
000000
ENDCHAR

STARTCHAR kor_A7B8
ENCODING 42936
SWIDTH 903 0
DWIDTH 24 0
BBX 24 24 0 -2
BITMAP
000000
000000
000000
180000
380000
180000
180000
18000E
1801D8
183338
18660C
18C60C
19860C
1B0318
1601F0
1B0300
198600
18C3FC
186606
3C3606
000606
00060C
0003F8
000000
ENDCHAR

STARTCHAR kor_A7B9
ENCODING 42937
SWIDTH 903 0
DWIDTH 24 0
BBX 24 24 0 -2
BITMAP
000000
000000
000000
0C0180
1C0380
0C0180
0C0180
0C0180
0C07F0
0C1980
0C3180
0C6180
0CC180
0D8180
0B0180
0D8180
0CC180
0C6180
0C3198
1E18F0
000000
000000
000000
000000
ENDCHAR

STARTCHAR kor_A7BA
ENCODING 42938
SWIDTH 903 0
DWIDTH 24 0
BBX 24 24 0 -2
BITMAP
000000
000000
000000
00000C
00001C
00000C
00000C
00000C
00000C
0EDF0C
19C18C
30C0CC
30C0CC
300ECC
3019CC
3030CC
3030CC
30B0CC
1999AC
0F0F5E
000000
000000
000000
000000
ENDCHAR

STARTCHAR kor_A7BB
ENCODING 42939
SWIDTH 903 0
DWIDTH 24 0
BBX 24 24 0 -2
BITMAP
000000
000000
000000
300006
70000E
300006
300006
300006
300006
31BBE6
336C36
32C036
36C036
2CC1B6
2CC376
36C636
36C636
32C636
336B76
79B9DF
000000
000000
000000
000000
ENDCHAR

STARTCHAR kor_A7BC
ENCODING 42940
SWIDTH 903 0
DWIDTH 24 0
BBX 24 24 0 -2
BITMAP
000000
000000
000000
006000
00EFF0
006618
00660C
00660C
00660C
0F660C
196618
18E7F8
30660C
306606
306606
306606
306606
18E606
19660C
0F6FF8
000000
000000
000000
000000
ENDCHAR

STARTCHAR kor_A7BD
ENCODING 42941
SWIDTH 903 0
DWIDTH 24 0
BBX 24 24 0 -2
BITMAP
000000
000000
0000C0
0000C0
0000C0
000180
000180
000180
2EE33B
7BB367
3332C3
3332C0
333670
33361C
333606
332CC3
332CC3
332CE3
7778BE
001800
001800
000000
000000
000000
ENDCHAR

STARTCHAR kor_A7BE
ENCODING 42942
SWIDTH 903 0
DWIDTH 24 0
BBX 24 24 0 -2
BITMAP
000000
000000
0000C0
0000CE
0000C3
000186
00018F
000180
2EE336
7BB36E
3332C6
3332C0
333670
333618
33360C
332CC6
332CC6
332CE6
7778BC
001800
001800
000000
000000
000000
ENDCHAR

STARTCHAR kor_A7BF
ENCODING 42943
SWIDTH 903 0
DWIDTH 24 0
BBX 24 24 0 -2
BITMAP
000000
000000
000000
000000
000000
000000
000000
000000
17C1EC
3C631C
18360C
18360C
183380
1830F0
183018
18360C
1C660C
17C718
1805F0
180000
180000
180000
3C0000
000000
ENDCHAR

STARTCHAR kor_A7C0
ENCODING 42944
SWIDTH 903 0
DWIDTH 24 0
BBX 24 24 0 -2
BITMAP
000000
000000
000000
000000
000000
000000
000000
000000
000000
1BC1EC
36631C
1C360C
18360C
183380
1830F0
183018
18360C
18360C
183718
3C75F0
000000
000000
000000
000000
ENDCHAR

STARTCHAR kor_A7C1
ENCODING 42945
SWIDTH 903 0
DWIDTH 24 0
BBX 24 24 0 -2
BITMAP
000000
000000
000000
000000
000000
000000
000000
000000
000000
0C31EC
0C331C
0C360C
18660C
186380
1860F0
30C018
30C60C
30C60C
395718
6F35F0
600000
600000
600000
000000
ENDCHAR

STARTCHAR kor_A7C2
ENCODING 42946
SWIDTH 903 0
DWIDTH 24 0
BBX 24 24 0 -2
BITMAP
000000
000000
000000
000000
000000
000000
000000
000000
000000
1770F6
3DD98E
199B06
199B06
1999C0
199878
19980C
199B06
199B06
199B8C
3BBAF8
000000
000000
000000
000000
ENDCHAR

STARTCHAR kor_A7C3
ENCODING 42947
SWIDTH 903 0
DWIDTH 24 0
BBX 24 24 0 -2
BITMAP
000000
000000
000000
003C0F
001806
001806
000C0C
000C0C
2F8C0C
78C618
306618
306618
306330
306330
306330
306160
38C160
2F8160
3000C0
3000C0
300000
300000
780000
000000
ENDCHAR

STARTCHAR kor_A7C4
ENCODING 42948
SWIDTH 903 0
DWIDTH 24 0
BBX 24 24 0 -2
BITMAP
000000
000000
000000
003C0F
001806
001806
000C0C
000C0C
000C0C
1BC618
366618
1C3618
183330
183330
183330
183160
183160
183160
1830C0
3C78C0
000000
000000
000000
000000
ENDCHAR

STARTCHAR kor_A7C5
ENCODING 42949
SWIDTH 903 0
DWIDTH 24 0
BBX 24 24 0 -2
BITMAP
000000
000000
000000
003C0F
001806
001806
000C0C
000C0C
000C0C
0C3618
0C3618
0C3618
186330
186330
186330
30C160
30C160
30C160
3958C0
6F30C0
600000
600000
600000
000000
ENDCHAR

STARTCHAR kor_A7C6
ENCODING 42950
SWIDTH 903 0
DWIDTH 24 0
BBX 24 24 0 -2
BITMAP
000000
000000
000000
003C0F
001806
001806
000C0C
000C0C
000C0C
2EE618
7BB618
333618
333330
333330
333330
333160
333160
333160
3330C0
7778C0
000000
000000
000000
000000
ENDCHAR

STARTCHAR kor_A7C7
ENCODING 42951
SWIDTH 903 0
DWIDTH 24 0
BBX 24 24 0 -2
BITMAP
000000
000000
000000
183C0F
381806
181806
180C0C
180C0C
180C0C
183618
186618
18C618
198330
1B0330
160330
1B0160
198160
18C160
1860C0
3C30C0
000000
000000
000000
000000
ENDCHAR

STARTCHAR kor_A7C8
ENCODING 42952
SWIDTH 903 0
DWIDTH 24 0
BBX 24 24 0 -2
BITMAP
000000
000000
000000
703F0F
303606
387606
387606
2CB606
2CB30C
35B30C
35B30C
333198
333198
303198
303198
3030B0
3030B0
3030B0
303060
787860
000000
000000
000000
000000
ENDCHAR

STARTCHAR kor_A7C9
ENCODING 42953
SWIDTH 903 0
DWIDTH 24 0
BBX 24 24 0 -2
BITMAP
000000
000000
000000
0000C0
0000C0
0000C0
000160
000160
17C160
3C6330
183330
183618
183618
183618
182FFC
182C0C
1C6C0C
17D806
181806
183C0F
180000
180000
3C0000
000000
ENDCHAR

STARTCHAR kor_A7CA
ENCODING 42954
SWIDTH 903 0
DWIDTH 24 0
BBX 24 24 0 -2
BITMAP
000000
000000
000000
0000C0
0000C0
0000C0
000160
000160
000160
378330
6CC330
386618
306618
306618
306FFC
306C0C
306C0C
305806
305806
78FC0F
000000
000000
000000
000000
ENDCHAR

STARTCHAR kor_A7CB
ENCODING 42955
SWIDTH 903 0
DWIDTH 24 0
BBX 24 24 0 -2
BITMAP
000000
000000
000000
0000C0
0000C0
0000C0
000160
000160
000160
0C3330
0C3330
0C3618
186618
186618
186FFC
30CC0C
30CC0C
30D806
395806
6F3C0F
600000
600000
600000
000000
ENDCHAR

STARTCHAR kor_A7CC
ENCODING 42956
SWIDTH 903 0
DWIDTH 24 0
BBX 24 24 0 -2
BITMAP
000000
000000
000000
000060
000060
000060
0000B0
0000B0
0000B0
2EE198
7BB198
333198
33330C
33330C
3333FC
33330C
333606
333606
333606
777F0F
000000
000000
000000
000000
ENDCHAR

STARTCHAR kor_A7CD
ENCODING 42957
SWIDTH 903 0
DWIDTH 24 0
BBX 24 24 0 -2
BITMAP
000000
000000
000000
3000C0
7000C0
3000C0
300160
300160
300160
30F330
30C330
318618
330618
360618
2C0FFC
360C0C
330C0C
319806
30D806
78FC0F
000000
000000
000000
000000
ENDCHAR

STARTCHAR kor_A7CE
ENCODING 42958
SWIDTH 903 0
DWIDTH 24 0
BBX 24 24 0 -2
BITMAP
000000
000000
000000
003C0F
001806
001806
0018C6
0018C6
2F98C6
78D8C6
306D6C
306D6C
306D6C
306B2C
306B2C
306B2C
38C618
2F8618
300618
300618
300000
300000
780000
000000
ENDCHAR

STARTCHAR kor_A7CF
ENCODING 42959
SWIDTH 903 0
DWIDTH 24 0
BBX 24 24 0 -2
BITMAP
000000
000000
000000
003C0F
001806
001806
0018C6
0018C6
0018C6
3798C6
6CCD6C
386D6C
306D6C
306B2C
306B2C
306B2C
306618
306618
306618
78F618
000000
000000
000000
000000
ENDCHAR

STARTCHAR kor_A7D0
ENCODING 42960
SWIDTH 903 0
DWIDTH 24 0
BBX 24 24 0 -2
BITMAP
000000
000000
000000
003C0F
001806
001806
0018C6
0018C6
0018C6
0C58C6
0C6D6C
0C6D6C
18CD6C
18CB2C
18CB2C
318B2C
318618
318618
3AB618
6E6618
600000
600000
600000
000000
ENDCHAR

STARTCHAR kor_A7D1
ENCODING 42961
SWIDTH 903 0
DWIDTH 24 0
BBX 24 24 0 -2
BITMAP
000000
000000
000000
001E0F
000C06
000C06
000C06
000CE6
000CE6
2EECE6
7BACE6
3336EC
3335AC
3335AC
3335AC
3335AC
333318
333318
333318
777B18
000000
000000
000000
000000
ENDCHAR

STARTCHAR kor_A7D2
ENCODING 42962
SWIDTH 903 0
DWIDTH 24 0
BBX 24 24 0 -2
BITMAP
000000
000000
000000
303C0F
701806
301806
3018C6
3018C6
3018C6
30D8C6
30CD6C
318D6C
330D6C
360B2C
2C0B2C
360B2C
330618
318618
30C618
78F618
000000
000000
000000
000000
ENDCHAR

STARTCHAR kor_A7D3
ENCODING 42963
SWIDTH 903 0
DWIDTH 24 0
BBX 24 24 0 -2
BITMAP
000000
000000
000000
707E0F
306C06
38EC06
38ECE6
2D6CE6
2D6CE6
2D6CE6
376CE6
3765AC
3765AC
3065AC
3065AC
3065AC
306318
306318
306318
78F318
000000
000000
000000
000000
ENDCHAR

STARTCHAR kor_A7D4
ENCODING 42964
SWIDTH 903 0
DWIDTH 24 0
BBX 24 24 0 -2
BITMAP
000000
000000
000000
1E1E00
0C0C00
0C0C00
0C0C00
0C0C00
0C0C00
0C0DFE
0C0D8C
0FFD8C
0C0C18
0C0C30
0C0C30
0C0C60
0C0CC0
0C0CC6
0C0D86
1E1DFE
000000
000000
000000
000000
ENDCHAR

STARTCHAR kor_A7D5
ENCODING 42965
SWIDTH 903 0
DWIDTH 24 0
BBX 24 24 0 -2
BITMAP
000000
000000
000000
30F3C0
706180
306180
306180
306180
306180
31617F
336166
337F66
36618C
2C618C
2C6198
3C6198
3661B0
3361B3
336163
79F3FF
000000
000000
000000
000000
ENDCHAR

STARTCHAR kor_A7D6
ENCODING 42966
SWIDTH 903 0
DWIDTH 24 0
BBX 24 24 0 -2
BITMAP
000000
000000
000000
70BDE0
30D8C0
39D8C0
39D8C0
2AD8C0
2AD8C0
2AD8BF
36D8B3
36DFB6
36D8C6
30D8CC
30D8CC
30D8CC
30D8D8
30D8DB
30D8B3
79BDFF
000000
000000
000000
000000
ENDCHAR

STARTCHAR kor_A7D7
ENCODING 42967
SWIDTH 903 0
DWIDTH 24 0
BBX 24 24 0 -2
BITMAP
000000
000000
000000
0EBDE0
19D8C0
30D8C0
30D8C0
3018C0
3018C0
3018BF
3018B3
37DFB6
30D8C6
30D8CC
30D8CC
30D8CC
30D8D8
30D8DB
1998B3
0F3DFF
000000
000000
000000
000000
ENDCHAR

STARTCHAR kor_A7D8
ENCODING 42968
SWIDTH 903 0
DWIDTH 24 0
BBX 24 24 0 -2
BITMAP
000000
000000
000000
3FBDE0
36D8C0
36D8C0
36D8C0
36D8C0
0618C0
0618BF
0618B3
061FB6
0618C6
0618CC
0618CC
0618CC
0618D8
0618DB
0618B3
0F3DFF
000000
000000
000000
000000
ENDCHAR

STARTCHAR kor_A7D9
ENCODING 42969
SWIDTH 903 0
DWIDTH 24 0
BBX 24 24 0 -2
BITMAP
000000
000000
000000
007F00
01C1C0
0780F0
070070
0F0078
0E0038
0E0038
0E0038
0E0038
0E0038
070070
0780F0
0380E0
01C1C0
0CE398
0C7718
0FF7F8
0FF7F8
000000
000000
000000
ENDCHAR

STARTCHAR kor_A7DA
ENCODING 42970
SWIDTH 903 0
DWIDTH 24 0
BBX 24 24 0 -2
BITMAP
000000
000000
000000
3001F0
70071C
300C06
300C06
301803
301803
30D803
30D803
319803
331803
360C06
2C0C06
36060C
33160B
319B1B
30D9B3
78DFBF
000000
000000
000000
000000
ENDCHAR

STARTCHAR kor_A7DB
ENCODING 42971
SWIDTH 903 0
DWIDTH 24 0
BBX 24 24 0 -2
BITMAP
000000
000000
000000
7071F0
306318
38E60C
38E60C
2D6C06
2D6C06
2D6C06
376C06
376C06
376C06
30660C
30660C
306318
306B16
306DB6
306DB6
78EFBE
000000
000000
000000
000000
ENDCHAR

STARTCHAR kor_A7DC
ENCODING 42972
SWIDTH 903 0
DWIDTH 24 0
BBX 24 24 0 -2
BITMAP
000000
000000
000000
0007FE
000306
000306
000306
000300
17C318
3C6318
1833F8
183318
183318
183300
183300
183300
1C6300
17C300
180300
1807C0
180000
180000
3C0000
000000
ENDCHAR

STARTCHAR kor_A7DD
ENCODING 42973
SWIDTH 903 0
DWIDTH 24 0
BBX 24 24 0 -2
BITMAP
000000
000000
000000
0007FE
000306
000306
000306
000300
000318
1BC318
3663F8
1C3318
183318
183300
183300
183300
183300
183300
183300
3C77C0
000000
000000
000000
000000
ENDCHAR

STARTCHAR kor_A7DE
ENCODING 42974
SWIDTH 903 0
DWIDTH 24 0
BBX 24 24 0 -2
BITMAP
000000
000000
000000
0007FE
000306
000306
000306
000300
000318
0C3318
0C33F8
0C3318
186318
186300
186300
30C300
30C300
30C300
395B00
6F37C0
600000
600000
600000
000000
ENDCHAR

STARTCHAR kor_A7DF
ENCODING 42975
SWIDTH 903 0
DWIDTH 24 0
BBX 24 24 0 -2
BITMAP
000000
000000
000000
00000C
00001C
00000C
00000C
00000C
00000C
2B878C
76CCCC
36D86C
36D86C
36D86C
36D86C
36D86C
36D86C
36D86C
36CCCC
75E79E
000000
000000
000000
000000
ENDCHAR

STARTCHAR kor_A7E0
ENCODING 42976
SWIDTH 903 0
DWIDTH 24 0
BBX 24 24 0 -2
BITMAP
000000
000000
000000
00000C
00001C
00000C
00000C
00000C
00000C
07B1EC
0C731C
18360C
18360C
30060C
30060C
30060C
18060C
18360C
0C631C
07C1EE
000000
000000
000000
000000
ENDCHAR

STARTCHAR kor_A7E1
ENCODING 42977
SWIDTH 903 0
DWIDTH 24 0
BBX 24 24 0 -2
BITMAP
000000
000000
000000
000003
000007
000003
000003
000003
000003
377E1B
6D8337
398363
300363
303F63
306363
30C363
30C363
30C363
306737
783DDB
000000
000000
000000
000000
ENDCHAR

STARTCHAR kor_A7E2
ENCODING 42978
SWIDTH 903 0
DWIDTH 24 0
BBX 24 24 0 -2
BITMAP
000000
000000
000030
000630
000630
000660
000660
000660
000660
6B965E
56AEB3
70B6B0
60B6B0
63B6D8
66B58C
66B586
66B583
66B5B3
66ADB3
63D71E
000300
000300
000000
000000
ENDCHAR

STARTCHAR kor_A7E3
ENCODING 42979
SWIDTH 903 0
DWIDTH 24 0
BBX 24 24 0 -2
BITMAP
000000
000000
000030
000630
00062E
000663
000666
00066F
000660
6B965E
56AEB3
70B6B0
60B6B0
63B6D8
66B58C
66B586
66B583
66B5B3
66ADB3
63D71E
000300
000300
000000
000000
ENDCHAR

STARTCHAR kor_A7E4
ENCODING 42980
SWIDTH 903 0
DWIDTH 24 0
BBX 24 24 0 -2
BITMAP
000000
000000
000000
000000
000000
000000
000000
000000
000000
03D9BC
063B66
0C19C6
0C0180
070180
01E180
003180
001980
181980
1C3180
17E3E0
000000
000000
000000
000000
ENDCHAR

STARTCHAR kor_A7E5
ENCODING 42981
SWIDTH 903 0
DWIDTH 24 0
BBX 24 24 0 -2
BITMAP
000000
000000
000000
1FE000
0C3000
0C1800
0C1800
0C1800
0C1BE0
0C1830
0C3018
0FE018
0C03D8
0C0638
0C0C18
0C0C18
0C0C18
0C0C18
0C0638
1F03EE
000000
000000
000000
000000
ENDCHAR

STARTCHAR kor_A7E6
ENCODING 42982
SWIDTH 903 0
DWIDTH 24 0
BBX 24 24 0 -2
BITMAP
000000
000000
000000
307E00
703300
303180
303180
303180
30317C
31B186
333306
333E06
363036
2C306E
2C30C6
3C30C6
3630C6
3330C6
33306E
79783B
000000
000000
000000
000000
ENDCHAR

STARTCHAR kor_A7E7
ENCODING 42983
SWIDTH 903 0
DWIDTH 24 0
BBX 24 24 0 -2
BITMAP
000000
000000
000000
70BF00
30D980
39D8C0
39D8C0
2AD8C0
2AD8FC
2AD8C6
36D986
36DF06
36D836
30D86E
30D8C6
30D8C6
30D8C6
30D8C6
30D86E
79BC3B
000000
000000
000000
000000
ENDCHAR

STARTCHAR kor_A7E8
ENCODING 42984
SWIDTH 903 0
DWIDTH 24 0
BBX 24 24 0 -2
BITMAP
000000
000000
000000
0D7E00
1BB300
31B180
31B180
303180
30317C
303186
303306
37BE06
31B036
31B06E
31B0C6
31B0C6
31B0C6
31B0C6
1B306E
0E783B
000000
000000
000000
000000
ENDCHAR

STARTCHAR kor_A7E9
ENCODING 42985
SWIDTH 903 0
DWIDTH 24 0
BBX 24 24 0 -2
BITMAP
000000
000000
000000
781D80
300B80
300D80
318D80
318D80
318D80
318D78
1AD9CC
1AD986
1AD986
165986
165986
165986
0C3186
0C3186
0C31CC
0C3378
000000
000000
000000
000000
ENDCHAR

STARTCHAR kor_A7EA
ENCODING 42986
SWIDTH 903 0
DWIDTH 24 0
BBX 24 24 0 -2
BITMAP
000000
000000
000000
060000
1E0000
060000
060000
060000
060000
060000
062F78
0679CC
06318C
06318C
06318C
06318C
06318C
06318C
06318C
1F7BDE
000000
000000
000000
000000
ENDCHAR

STARTCHAR kor_A7EB
ENCODING 42987
SWIDTH 903 0
DWIDTH 24 0
BBX 24 24 0 -2
BITMAP
000000
000000
000000
060000
1E0000
060000
060000
060000
060000
063C3C
061818
060C30
060660
0602C0
060180
0602C0
060660
060C30
061818
1FBC3C
000000
000000
000000
000000
ENDCHAR

STARTCHAR kor_A7EC
ENCODING 42988
SWIDTH 903 0
DWIDTH 24 0
BBX 24 24 0 -2
BITMAP
000000
000000
000000
3FE000
183000
181800
181800
181800
1818F7
18318E
1FE306
183306
181B06
180B06
180B06
180B06
180D8E
1818F6
3FF006
000006
000006
000006
00001F
000000
ENDCHAR

STARTCHAR kor_A7ED
ENCODING 42989
SWIDTH 903 0
DWIDTH 24 0
BBX 24 24 0 -2
BITMAP
000000
000000
000000
07B000
0C7000
183000
183000
300000
300F1E
30060C
30060C
31F30C
303318
303198
3031B0
3030B0
1830E0
183060
0C6060
07C0C0
0000C0
0000C0
000780
000000
ENDCHAR

STARTCHAR kor_A7EE
ENCODING 42990
SWIDTH 903 0
DWIDTH 24 0
BBX 24 24 0 -2
BITMAP
000000
000000
000000
0FD800
185800
303800
301800
300000
180000
0E0F1E
03860C
00E60C
00360C
001B18
001B18
3019B0
3019B0
3819B0
2C30E0
37E0E0
000000
000000
000000
000000
ENDCHAR

STARTCHAR kor_A7EF
ENCODING 42991
SWIDTH 903 0
DWIDTH 24 0
BBX 24 24 0 -2
BITMAP
000000
000000
000600
000600
000C00
000C00
000E00
001600
001600
1B1667
3736DC
6336B6
6335B6
6065B6
606736
60671C
60C598
62C6B0
36C6DE
1D8673
018033
018033
00001E
000000
ENDCHAR

STARTCHAR kor_A8A1
ENCODING 43169
SWIDTH 903 0
DWIDTH 24 0
BBX 24 24 0 -2
BITMAP
000000
000000
000000
003FFF
003000
007800
007800
00DC00
00DC00
00DC00
018E00
018FFF
030700
030700
060380
07FF80
0C01C0
0C01C0
1800E0
1800E0
3C03FF
000000
000000
000000
ENDCHAR

STARTCHAR kor_A8A2
ENCODING 43170
SWIDTH 903 0
DWIDTH 24 0
BBX 24 24 0 -2
BITMAP
000000
000000
000000
07FF00
0381C0
0380E0
038070
038070
038038
038038
1FFC38
038038
038038
038038
038038
038070
038070
0380E0
0381C0
07FF00
000000
000000
000000
000000
ENDCHAR

STARTCHAR kor_A8A3
ENCODING 43171
SWIDTH 903 0
DWIDTH 24 0
BBX 24 24 0 -2
BITMAP
000000
000000
000000
00FF00
01C1C0
0380E0
0000E0
0000E0
00FEE0
03C3E0
0381E0
0700E0
0700E0
0700E0
0381E0
03C3E0
00FF78
000000
000000
0FFFFC
000000
000000
000000
000000
ENDCHAR

STARTCHAR kor_A8A4
ENCODING 43172
SWIDTH 903 0
DWIDTH 24 0
BBX 24 24 0 -2
BITMAP
000000
000000
000000
1FC3F8
0700E0
0700E0
0700E0
3FFFFC
0700E0
0700E0
0700E0
07FFE0
0700E0
0700E0
0700E0
0700E0
0700E0
0700E0
0700E0
1FC3F8
000000
000000
000000
000000
ENDCHAR

STARTCHAR kor_A8A6
ENCODING 43174
SWIDTH 903 0
DWIDTH 24 0
BBX 24 24 0 -2
BITMAP
000000
000000
000000
0FE3F8
0380E0
0380E0
0380E0
0380E0
0380E0
0380E0
0380E0
0380E0
0380E0
0380E0
0380E0
0380E0
0380E0
0380E0
0FE0E0
001CE0
001DE0
000FC0
000780
000000
ENDCHAR

STARTCHAR kor_A8A8
ENCODING 43176
SWIDTH 903 0
DWIDTH 24 0
BBX 24 24 0 -2
BITMAP
000000
000000
000000
07F000
01C000
01C000
01C000
01C000
01C000
01C000
01C078
01C0FC
01C078
01C000
01C000
01C000
01C018
01C018
01C038
07FFF8
000000
000000
000000
000000
ENDCHAR

STARTCHAR kor_A8A9
ENCODING 43177
SWIDTH 903 0
DWIDTH 24 0
BBX 24 24 0 -2
BITMAP
000000
000000
000000
07F000
01C000
01C000
01C000
01CE00
01B800
01E000
07C000
1DC000
01C000
01C000
01C000
01C000
01C018
01C018
01C038
07FFF8
000000
000000
000000
000000
ENDCHAR

STARTCHAR kor_A8AA
ENCODING 43178
SWIDTH 903 0
DWIDTH 24 0
BBX 24 24 0 -2
BITMAP
000000
000000
000000
007F18
01C1B0
0380E0
0380E0
0700F0
070170
070370
070670
070C70
071870
073070
076070
06C070
0380E0
0380E0
05C1C0
0C7F00
000000
000000
000000
000000
ENDCHAR

STARTCHAR kor_A8AB
ENCODING 43179
SWIDTH 903 0
DWIDTH 24 0
BBX 24 24 0 -2
BITMAP
000000
000000
000000
03F800
0E0FFF
1C0700
1C0700
380380
380380
380380
380380
3803FF
380380
380380
380380
380380
1C0700
1C0700
0E0FFF
03F800
000000
000000
000000
000000
ENDCHAR

STARTCHAR kor_A8AC
ENCODING 43180
SWIDTH 903 0
DWIDTH 24 0
BBX 24 24 0 -2
BITMAP
000000
000000
000000
007E00
01C380
0381C0
0381C0
0700E0
0700E0
0700E0
0700E0
0700E0
0700E0
0381C0
0381C0
01C380
007E00
000000
000000
0FFFF0
000000
000000
000000
000000
ENDCHAR

STARTCHAR kor_A8AD
ENCODING 43181
SWIDTH 903 0
DWIDTH 24 0
BBX 24 24 0 -2
BITMAP
000000
000000
000000
000000
07F000
01C000
01C000
01FE00
01C380
01C1C0
01C0E0
01C0E0
01C0E0
01C0E0
01C0E0
01C1C0
01C380
01FE00
01C000
01C000
07F000
000000
000000
000000
ENDCHAR

STARTCHAR kor_A8AE
ENCODING 43182
SWIDTH 903 0
DWIDTH 24 0
BBX 24 24 0 -2
BITMAP
000000
000000
000000
000000
07FFF0
061C30
061C30
061C30
061C30
001C00
001C00
001C00
07FFF0
001C00
001C00
001C00
001C00
001C00
001C00
001C00
007F00
000000
000000
000000
ENDCHAR

STARTCHAR kor_A8AF
ENCODING 43183
SWIDTH 903 0
DWIDTH 24 0
BBX 24 24 0 -2
BITMAP
000000
000000
000000
070000
073F00
06FFC0
07E1E0
078070
070070
070038
070038
070038
070038
070038
070038
070070
070070
0771E0
077FC0
071F00
070000
000000
000000
000000
ENDCHAR

STARTCHAR kor_A8B1
ENCODING 43185
SWIDTH 903 0
DWIDTH 24 0
BBX 24 24 0 -2
BITMAP
000000
000000
000000
007F00
01C1C0
030060
060030
0D8398
0CFFD8
18038C
18038C
18038C
18038C
18038C
18038C
0C0398
0C0318
060330
030060
01C1C0
007F00
000000
000000
000000
ENDCHAR

STARTCHAR kor_A8B2
ENCODING 43186
SWIDTH 903 0
DWIDTH 24 0
BBX 24 24 0 -2
BITMAP
000000
000000
000000
007F00
01C1C0
030060
060030
0C0018
0BC018
18E00C
18E00C
18E00C
18E00C
18E00C
18E00C
0CE198
0C7FD8
060030
030060
01C1C0
007F00
000000
000000
000000
ENDCHAR

STARTCHAR kor_A8B3
ENCODING 43187
SWIDTH 903 0
DWIDTH 24 0
BBX 24 24 0 -2
BITMAP
000000
000000
000000
007F00
01C1C0
030060
060030
0BC318
0CFF98
18E00C
18E00C
18E00C
18E00C
18E00C
18E18C
0C7FD8
0C0018
060030
030060
01C1C0
007F00
000000
000000
000000
ENDCHAR

STARTCHAR kor_A8B4
ENCODING 43188
SWIDTH 903 0
DWIDTH 24 0
BBX 24 24 0 -2
BITMAP
000000
000000
000000
007F00
01C1C0
030060
060030
0D8398
0CFFD8
18038C
18038C
18030C
19FF8C
18E00C
18E00C
0CE198
0C7FD8
060030
030060
01C1C0
007F00
000000
000000
000000
ENDCHAR

STARTCHAR kor_A8B5
ENCODING 43189
SWIDTH 903 0
DWIDTH 24 0
BBX 24 24 0 -2
BITMAP
000000
000000
000000
007F00
01C1C0
030060
060030
0BC1D8
0CFFD8
18E1CC
18E1CC
18E1CC
18E18C
18E18C
18E18C
0CFFD8
0C6018
060030
030060
01C1C0
007F00
000000
000000
000000
ENDCHAR

STARTCHAR kor_A8B6
ENCODING 43190
SWIDTH 903 0
DWIDTH 24 0
BBX 24 24 0 -2
BITMAP
000000
000000
000000
007F00
01C1C0
030060
060030
0C0398
0DC1D8
18E1CC
18E1CC
18FFCC
18E1CC
18E1CC
18E1CC
0CFFD8
0C6198
060030
030060
01C1C0
007F00
000000
000000
000000
ENDCHAR

STARTCHAR kor_A8B7
ENCODING 43191
SWIDTH 903 0
DWIDTH 24 0
BBX 24 24 0 -2
BITMAP
000000
000000
000000
007F00
01C1C0
030060
060030
0C3C18
0C1E18
181E0C
181E0C
183C0C
18370C
1873CC
18E1CC
0B8198
0C0018
060030
030060
01C1C0
007F00
000000
000000
000000
ENDCHAR

STARTCHAR kor_A8B8
ENCODING 43192
SWIDTH 903 0
DWIDTH 24 0
BBX 24 24 0 -2
BITMAP
000000
000000
000000
007F00
01C1C0
030060
063C30
0C1C18
0C3718
18738C
18E1CC
18E1CC
18E1CC
18E1CC
18E1CC
0C7398
0C1E18
060030
030060
01C1C0
007F00
000000
000000
000000
ENDCHAR

STARTCHAR kor_A8B9
ENCODING 43193
SWIDTH 903 0
DWIDTH 24 0
BBX 24 24 0 -2
BITMAP
000000
000000
000000
007F00
01C1C0
030060
060030
0CC318
0C7F98
18378C
18070C
180F0C
181E0C
18378C
1863CC
0DC1D8
0C0018
060030
030060
01C1C0
007F00
000000
000000
000000
ENDCHAR

STARTCHAR kor_A8BA
ENCODING 43194
SWIDTH 903 0
DWIDTH 24 0
BBX 24 24 0 -2
BITMAP
000000
000000
000000
007F00
01C1C0
030060
061830
0C0F18
0CC0D8
187FEC
18078C
18070C
180F0C
180E0C
181BCC
0C71D8
0DC0D8
060030
030060
01C1C0
007F00
000000
000000
000000
ENDCHAR

STARTCHAR kor_A8BB
ENCODING 43195
SWIDTH 903 0
DWIDTH 24 0
BBX 24 24 0 -2
BITMAP
000000
000000
000000
007F00
01C1C0
030060
060030
0CC398
0C7FD8
18038C
18038C
18038C
19FF8C
18C38C
18038C
0C0398
0C0318
060330
030060
01C1C0
007F00
000000
000000
000000
ENDCHAR

STARTCHAR kor_A8BC
ENCODING 43196
SWIDTH 903 0
DWIDTH 24 0
BBX 24 24 0 -2
BITMAP
000000
000000
000000
007F00
01C1C0
030060
060030
0BC318
0CFF98
18E00C
18E00C
18E00C
18FF0C
18E00C
18E00C
0CE198
0C7FD8
060030
030060
01C1C0
007F00
000000
000000
000000
ENDCHAR

STARTCHAR kor_A8BD
ENCODING 43197
SWIDTH 903 0
DWIDTH 24 0
BBX 24 24 0 -2
BITMAP
000000
000000
000000
007F00
01C1C0
030060
060030
0D8018
0CFFD8
18000C
18060C
18E38C
18738C
18770C
18770C
0C36D8
0DFFD8
06E030
030060
01C1C0
007F00
000000
000000
000000
ENDCHAR

STARTCHAR kor_A8BE
ENCODING 43198
SWIDTH 903 0
DWIDTH 24 0
BBX 24 24 0 -2
BITMAP
000000
000000
000000
007F00
01C1C0
030060
063030
0C1F18
0D80D8
18FFEC
180C0C
181E0C
18738C
18E1CC
18E1CC
0CE1D8
0C7398
061E30
030060
01C1C0
007F00
000000
000000
000000
ENDCHAR

STARTCHAR kor_A8BF
ENCODING 43199
SWIDTH 903 0
DWIDTH 24 0
BBX 24 24 0 -2
BITMAP
000000
000000
000000
007F00
01C1C0
030060
0601B0
0C00D8
0D98D8
18FCCC
181CCC
181CAC
1838FC
1830CC
1860CC
0CC0D8
0B80D8
0600B0
0300E0
01C1C0
007F00
000000
000000
000000
ENDCHAR

STARTCHAR kor_A8C0
ENCODING 43200
SWIDTH 903 0
DWIDTH 24 0
BBX 24 24 0 -2
BITMAP
000000
000000
000000
007F00
01C1C0
030060
060330
0C0198
0C0198
17018C
19818C
19816C
1981EC
19818C
199D8C
0CF198
0C0198
0601B0
030160
01C1C0
007F00
000000
000000
000000
ENDCHAR

STARTCHAR kor_A8C1
ENCODING 43201
SWIDTH 903 0
DWIDTH 24 0
BBX 24 24 0 -2
BITMAP
000000
000000
000000
007F00
01C1C0
030060
060330
0C0198
0B9998
19FD8C
19818C
19816C
1981EC
19858C
199D8C
0CF198
0C0198
0601B0
030160
01C1C0
007F00
000000
000000
000000
ENDCHAR

STARTCHAR kor_A8C2
ENCODING 43202
SWIDTH 903 0
DWIDTH 24 0
BBX 24 24 0 -2
BITMAP
000000
000000
000000
007F00
01C1C0
030060
060330
0C0198
0B1998
19FD8C
18198C
18196C
1BF9EC
19818C
19818C
0D8D98
0CF998
0601B0
030160
01C1C0
007F00
000000
000000
000000
ENDCHAR

STARTCHAR kor_A8C3
ENCODING 43203
SWIDTH 903 0
DWIDTH 24 0
BBX 24 24 0 -2
BITMAP
000000
000000
000000
007F00
01C1C0
030060
060330
0C0198
0B9998
19FD8C
19998C
19996C
1999EC
19998C
19F98C
0D8198
0C0198
0601B0
030160
01C1C0
007F00
000000
000000
000000
ENDCHAR

STARTCHAR kor_A8C4
ENCODING 43204
SWIDTH 903 0
DWIDTH 24 0
BBX 24 24 0 -2
BITMAP
000000
000000
000000
007F00
01C1C0
030060
060330
0C0198
0C3198
1B198C
19998C
19996C
19F9EC
19998C
19998C
0DF998
0D9998
0601B0
030160
01C1C0
007F00
000000
000000
000000
ENDCHAR

STARTCHAR kor_A8C5
ENCODING 43205
SWIDTH 903 0
DWIDTH 24 0
BBX 24 24 0 -2
BITMAP
000000
000000
000000
007F00
01C1C0
030060
060330
0C0198
0C0198
18718C
18318C
18316C
1871EC
18D98C
198D8C
0B0D98
0C0198
0601B0
030160
01C1C0
007F00
000000
000000
000000
ENDCHAR

STARTCHAR kor_A8C6
ENCODING 43206
SWIDTH 903 0
DWIDTH 24 0
BBX 24 24 0 -2
BITMAP
000000
000000
000000
007F00
01C1C0
030060
060330
0C0198
0CC198
18E18C
19B18C
1B196C
1B19EC
1B198C
19B18C
0CE198
0C0198
0601B0
030160
01C1C0
007F00
000000
000000
000000
ENDCHAR

STARTCHAR kor_A8C7
ENCODING 43207
SWIDTH 903 0
DWIDTH 24 0
BBX 24 24 0 -2
BITMAP
000000
000000
000000
007F00
01C1C0
030060
0601B0
0C00D8
0D98D8
18FCCC
1818CC
1818AC
1830FC
1858CC
18CCCC
0B8CD8
0C00D8
0600B0
0300E0
01C1C0
007F00
000000
000000
000000
ENDCHAR

STARTCHAR kor_A8C8
ENCODING 43208
SWIDTH 903 0
DWIDTH 24 0
BBX 24 24 0 -2
BITMAP
000000
000000
000000
007F00
01C1C0
030060
0661B0
0C38D8
0C00D8
19FCCC
18D8CC
1818AC
1830FC
1858CC
18CCCC
0B8CD8
0C00D8
0600B0
0300E0
01C1C0
007F00
000000
000000
000000
ENDCHAR

STARTCHAR kor_A8C9
ENCODING 43209
SWIDTH 903 0
DWIDTH 24 0
BBX 24 24 0 -2
BITMAP
000000
000000
000000
007F00
01C1C0
030060
060330
0C0198
0D9998
18FD8C
180D8C
18196C
19F9EC
18318C
18618C
0CC198
0B8198
0601B0
030160
01C1C0
007F00
000000
000000
000000
ENDCHAR

STARTCHAR kor_A8CA
ENCODING 43210
SWIDTH 903 0
DWIDTH 24 0
BBX 24 24 0 -2
BITMAP
000000
000000
000000
007F00
01C1C0
030060
060330
0C0198
0B9998
19FD8C
19818C
19816C
19F9EC
19818C
19818C
0D9D98
0CF198
0601B0
030160
01C1C0
007F00
000000
000000
000000
ENDCHAR

STARTCHAR kor_A8CB
ENCODING 43211
SWIDTH 903 0
DWIDTH 24 0
BBX 24 24 0 -2
BITMAP
000000
000000
000000
007F00
01C1C0
030060
060330
0C0198
0B0198
19FD8C
18018C
18316C
1999EC
18D98C
18B18C
0CBD98
0BF198
0601B0
030160
01C1C0
007F00
000000
000000
000000
ENDCHAR

STARTCHAR kor_A8CC
ENCODING 43212
SWIDTH 903 0
DWIDTH 24 0
BBX 24 24 0 -2
BITMAP
000000
000000
000000
007F00
01C1C0
030060
060330
0CC198
0C7998
1B018C
19FD8C
18016C
1871EC
18D98C
198D8C
0D8D98
0CD998
0671B0
030160
01C1C0
007F00
000000
000000
000000
ENDCHAR

STARTCHAR kor_A8CD
ENCODING 43213
SWIDTH 903 0
DWIDTH 24 0
BBX 24 24 0 -2
BITMAP
000000
000000
000000
007F00
01C1C0
030060
060030
0C0018
0C0018
183E0C
18E30C
18C38C
183F8C
18638C
18E38C
0CE398
0C6398
063DB0
030060
01C1C0
007F00
000000
000000
000000
ENDCHAR

STARTCHAR kor_A8CE
ENCODING 43214
SWIDTH 903 0
DWIDTH 24 0
BBX 24 24 0 -2
BITMAP
000000
000000
000000
007F00
01C1C0
030060
067030
0DF018
0C7018
18700C
186F0C
18798C
1871CC
1871CC
1871CC
0C71D8
0C7998
066F30
030060
01C1C0
007F00
000000
000000
000000
ENDCHAR

STARTCHAR kor_A8CF
ENCODING 43215
SWIDTH 903 0
DWIDTH 24 0
BBX 24 24 0 -2
BITMAP
000000
000000
000000
007F00
01C1C0
030060
060030
0C0018
0C0018
183E0C
18730C
18E18C
18E00C
18E00C
18E00C
0CE198
0C7318
063E30
030060
01C1C0
007F00
000000
000000
000000
ENDCHAR

STARTCHAR kor_A8D0
ENCODING 43216
SWIDTH 903 0
DWIDTH 24 0
BBX 24 24 0 -2
BITMAP
000000
000000
000000
007F00
01C1C0
030060
0603B0
0C0F98
0C0398
18038C
183B8C
18678C
18E38C
18E38C
18E38C
0CE398
0C6798
063BB0
030060
01C1C0
007F00
000000
000000
000000
ENDCHAR

STARTCHAR kor_A8D1
ENCODING 43217
SWIDTH 903 0
DWIDTH 24 0
BBX 24 24 0 -2
BITMAP
000000
000000
000000
007F00
01C1C0
030060
060030
0C0018
0C0018
183E0C
18630C
18E38C
18E38C
18FF8C
18E00C
0CE018
0C6198
063F30
030060
01C1C0
007F00
000000
000000
000000
ENDCHAR

STARTCHAR kor_A8D2
ENCODING 43218
SWIDTH 903 0
DWIDTH 24 0
BBX 24 24 0 -2
BITMAP
000000
000000
000000
007F00
01C1C0
030060
060F30
0C1D98
0C1DD8
181C0C
181C0C
18FF0C
181C0C
181C0C
181C0C
0C1C18
0C1C18
067F30
030060
01C1C0
007F00
000000
000000
000000
ENDCHAR

STARTCHAR kor_A8D3
ENCODING 43219
SWIDTH 903 0
DWIDTH 24 0
BBX 24 24 0 -2
BITMAP
000000
000000
000000
007F00
01C1C0
030060
060030
0C0398
0C3E18
18F70C
18E70C
18E70C
187E0C
18300C
187E0C
0CCF98
0DC398
05C3B0
03E760
01BDC0
007F00
000000
000000
000000
ENDCHAR

STARTCHAR kor_A8D4
ENCODING 43220
SWIDTH 903 0
DWIDTH 24 0
BBX 24 24 0 -2
BITMAP
000000
000000
000000
007F00
01C1C0
030060
067030
0DF018
0C7018
18700C
186F0C
18798C
1871CC
1871CC
1871CC
0C71D8
0C71D8
06FBF0
030060
01C1C0
007F00
000000
000000
000000
ENDCHAR

STARTCHAR kor_A8D5
ENCODING 43221
SWIDTH 903 0
DWIDTH 24 0
BBX 24 24 0 -2
BITMAP
000000
000000
000000
007F00
01C1C0
030060
061C30
0C1C18
0C0018
18000C
187C0C
181C0C
181C0C
181C0C
181C0C
0C1C18
0C1C18
067F30
030060
01C1C0
007F00
000000
000000
000000
ENDCHAR

STARTCHAR kor_A8D6
ENCODING 43222
SWIDTH 903 0
DWIDTH 24 0
BBX 24 24 0 -2
BITMAP
000000
000000
000000
007F00
01C1C0
030060
060E30
0C0E18
0C0018
18000C
183E0C
180E0C
180E0C
180E0C
180E0C
0C0E18
0CEE18
06EE30
037C60
01C1C0
007F00
000000
000000
000000
ENDCHAR

STARTCHAR kor_A8D7
ENCODING 43223
SWIDTH 903 0
DWIDTH 24 0
BBX 24 24 0 -2
BITMAP
000000
000000
000000
007F00
01C1C0
030060
067030
0DF018
0C7018
1873CC
18718C
18730C
18760C
186C0C
187E0C
0C7718
0C7398
06FBB0
030060
01C1C0
007F00
000000
000000
000000
ENDCHAR

STARTCHAR kor_A8D8
ENCODING 43224
SWIDTH 903 0
DWIDTH 24 0
BBX 24 24 0 -2
BITMAP
000000
000000
000000
007F00
01C1C0
030060
061C30
0C7C18
0C1C18
181C0C
181C0C
181C0C
181C0C
181C0C
181C0C
0C1C18
0C1C18
067F30
030060
01C1C0
007F00
000000
000000
000000
ENDCHAR

STARTCHAR kor_A8D9
ENCODING 43225
SWIDTH 903 0
DWIDTH 24 0
BBX 24 24 0 -2
BITMAP
000000
000000
000000
007F00
01C1C0
030060
060030
0C0018
0C0018
18B78C
1BEDCC
18EDCC
18EDCC
18EDCC
18EDCC
0CEDD8
0CEDD8
05EBF0
030060
01C1C0
007F00
000000
000000
000000
ENDCHAR

STARTCHAR kor_A8DA
ENCODING 43226
SWIDTH 903 0
DWIDTH 24 0
BBX 24 24 0 -2
BITMAP
000000
000000
000000
007F00
01C1C0
030060
060030
0C0018
0C0018
18BE0C
1BE30C
18E38C
18E38C
18E38C
18E38C
0CE398
0CE398
05F7B0
030060
01C1C0
007F00
000000
000000
000000
ENDCHAR

STARTCHAR kor_A8DB
ENCODING 43227
SWIDTH 903 0
DWIDTH 24 0
BBX 24 24 0 -2
BITMAP
000000
000000
000000
007F00
01C1C0
030060
060030
0C0018
0C0018
183E0C
18770C
18E38C
18E38C
18E38C
18E38C
0CE398
0C7718
063E30
030060
01C1C0
007F00
000000
000000
000000
ENDCHAR

STARTCHAR kor_A8DC
ENCODING 43228
SWIDTH 903 0
DWIDTH 24 0
BBX 24 24 0 -2
BITMAP
000000
000000
000000
007F00
01C1C0
030060
060030
0C0018
0C0018
19EF0C
187B8C
1871CC
1871CC
1871CC
1871CC
0C7B98
0C6F18
067030
037060
01F9C0
007F00
000000
000000
000000
ENDCHAR

STARTCHAR kor_A8DD
ENCODING 43229
SWIDTH 903 0
DWIDTH 24 0
BBX 24 24 0 -2
BITMAP
000000
000000
000000
007F00
01C1C0
030060
060030
0C0018
0C0018
183D8C
18778C
18E38C
18E38C
18E38C
18E38C
0C7798
0C3B98
0603B0
030360
01C7C0
007F00
000000
000000
000000
ENDCHAR

STARTCHAR kor_A8DE
ENCODING 43230
SWIDTH 903 0
DWIDTH 24 0
BBX 24 24 0 -2
BITMAP
000000
000000
000000
007F00
01C1C0
030060
060030
0C0018
0C0018
18778C
19EDCC
1879CC
18700C
18700C
18700C
0C7018
0C7018
06FC30
030060
01C1C0
007F00
000000
000000
000000
ENDCHAR

STARTCHAR kor_A8DF
ENCODING 43231
SWIDTH 903 0
DWIDTH 24 0
BBX 24 24 0 -2
BITMAP
000000
000000
000000
007F00
01C1C0
030060
060030
0C0018
0C0018
183D8C
18E38C
18E18C
18780C
180F0C
18038C
0CC398
0CE398
06BF30
030060
01C1C0
007F00
000000
000000
000000
ENDCHAR

STARTCHAR kor_A8E0
ENCODING 43232
SWIDTH 903 0
DWIDTH 24 0
BBX 24 24 0 -2
BITMAP
000000
000000
000000
007F00
01C1C0
030060
063830
0C3818
0C3818
19FF0C
18380C
18380C
18380C
18380C
18398C
0C3998
0C3998
061F30
030060
01C1C0
007F00
000000
000000
000000
ENDCHAR

STARTCHAR kor_A8E1
ENCODING 43233
SWIDTH 903 0
DWIDTH 24 0
BBX 24 24 0 -2
BITMAP
000000
000000
000000
007F00
01C1C0
030060
060030
0C0018
0C0018
18E38C
1BE38C
18E38C
18E38C
18E38C
18E38C
0CE398
0C6398
063DB0
030060
01C1C0
007F00
000000
000000
000000
ENDCHAR

STARTCHAR kor_A8E2
ENCODING 43234
SWIDTH 903 0
DWIDTH 24 0
BBX 24 24 0 -2
BITMAP
000000
000000
000000
007F00
01C1C0
030060
060030
0C0018
0C0018
1BF3EC
18E18C
18E18C
18730C
18730C
18360C
0C3618
0C1C18
061C30
030060
01C1C0
007F00
000000
000000
000000
ENDCHAR

STARTCHAR kor_A8E3
ENCODING 43235
SWIDTH 903 0
DWIDTH 24 0
BBX 24 24 0 -2
BITMAP
000000
000000
000000
007F00
01C1C0
030060
060030
0C0018
0C0018
1BBDEC
19DCCC
19DCCC
18ED8C
18ED8C
18DD8C
0C7718
0C7718
067730
030060
01C1C0
007F00
000000
000000
000000
ENDCHAR

STARTCHAR kor_A8E4
ENCODING 43236
SWIDTH 903 0
DWIDTH 24 0
BBX 24 24 0 -2
BITMAP
000000
000000
000000
007F00
01C1C0
030060
060030
0C0018
0C0018
19F78C
18E30C
18760C
183C0C
181C0C
183C0C
0C6E18
0CC718
05EFB0
030060
01C1C0
007F00
000000
000000
000000
ENDCHAR

STARTCHAR kor_A8E5
ENCODING 43237
SWIDTH 903 0
DWIDTH 24 0
BBX 24 24 0 -2
BITMAP
000000
000000
000000
007F00
01C1C0
030060
060030
0C0018
0C0018
18FBCC
18718C
18718C
183B0C
183B0C
181E0C
0C0E18
0CEC18
06D830
037060
01C1C0
007F00
000000
000000
000000
ENDCHAR

STARTCHAR kor_A8E6
ENCODING 43238
SWIDTH 903 0
DWIDTH 24 0
BBX 24 24 0 -2
BITMAP
000000
000000
000000
007F00
01C1C0
030060
060030
0C0018
0C0018
18FF8C
18E38C
18C70C
180E0C
181C0C
18380C
0C7198
0CE398
06FFB0
030060
01C1C0
007F00
000000
000000
000000
ENDCHAR

STARTCHAR kor_A8E7
ENCODING 43239
SWIDTH 903 0
DWIDTH 24 0
BBX 24 24 0 -2
BITMAP
000000
000000
000000
007F00
01C1C0
030060
061C30
0C3C18
0CFC18
181C0C
181C0C
181C0C
181C0C
181C0C
181C0C
0C1C18
0C1C18
06FF30
030060
01C1C0
007F00
000000
000000
000000
ENDCHAR

STARTCHAR kor_A8E8
ENCODING 43240
SWIDTH 903 0
DWIDTH 24 0
BBX 24 24 0 -2
BITMAP
000000
000000
000000
007F00
01C1C0
030060
063E30
0C7798
0CC398
18C38C
18038C
18070C
180E0C
180C0C
18180C
0C3198
0C6198
06FFB0
030060
01C1C0
007F00
000000
000000
000000
ENDCHAR

STARTCHAR kor_A8E9
ENCODING 43241
SWIDTH 903 0
DWIDTH 24 0
BBX 24 24 0 -2
BITMAP
000000
000000
000000
007F00
01C1C0
030060
063E30
0C7718
0CC398
18038C
18078C
183F0C
18070C
18038C
18038C
0CC398
0C6798
063F30
030060
01C1C0
007F00
000000
000000
000000
ENDCHAR

STARTCHAR kor_A8EA
ENCODING 43242
SWIDTH 903 0
DWIDTH 24 0
BBX 24 24 0 -2
BITMAP
000000
000000
000000
007F00
01C1C0
030060
060730
0C0F18
0C1718
18170C
18370C
18670C
18670C
18C70C
18FFCC
0C0718
0C0718
061FB0
030060
01C1C0
007F00
000000
000000
000000
ENDCHAR

STARTCHAR kor_A8EB
ENCODING 43243
SWIDTH 903 0
DWIDTH 24 0
BBX 24 24 0 -2
BITMAP
000000
000000
000000
007F00
01C1C0
030060
06FFB0
0CFF18
0CC018
18C00C
18BE0C
18E70C
18C38C
18038C
18038C
0CC398
0C6718
063E30
030060
01C1C0
007F00
000000
000000
000000
ENDCHAR

STARTCHAR kor_A8EC
ENCODING 43244
SWIDTH 903 0
DWIDTH 24 0
BBX 24 24 0 -2
BITMAP
000000
000000
000000
007F00
01C1C0
030060
063E30
0C7318
0CE198
18E00C
18DE0C
18F70C
18E38C
18E38C
18E38C
0CE398
0C7718
063E30
030060
01C1C0
007F00
000000
000000
000000
ENDCHAR

STARTCHAR kor_A8ED
ENCODING 43245
SWIDTH 903 0
DWIDTH 24 0
BBX 24 24 0 -2
BITMAP
000000
000000
000000
007F00
01C1C0
030060
067FB0
0C7F98
0C6398
18630C
18030C
18060C
18060C
180E0C
180E0C
0C1C18
0C1C18
061C30
030060
01C1C0
007F00
000000
000000
000000
ENDCHAR

STARTCHAR kor_A8EE
ENCODING 43246
SWIDTH 903 0
DWIDTH 24 0
BBX 24 24 0 -2
BITMAP
000000
000000
000000
007F00
01C1C0
030060
063E30
0C7718
0CE398
18E38C
18630C
183E0C
18770C
18E38C
18E38C
0CE398
0C7718
063E30
030060
01C1C0
007F00
000000
000000
000000
ENDCHAR

STARTCHAR kor_A8EF
ENCODING 43247
SWIDTH 903 0
DWIDTH 24 0
BBX 24 24 0 -2
BITMAP
000000
000000
000000
007F00
01C1C0
030060
063E30
0C7718
0CE398
18E38C
18E38C
18E38C
18678C
183B8C
18038C
0CC398
0C6718
063E30
030060
01C1C0
007F00
000000
000000
000000
ENDCHAR

STARTCHAR kor_A8F0
ENCODING 43248
SWIDTH 903 0
DWIDTH 24 0
BBX 24 24 0 -2
BITMAP
000000
000000
000000
007F00
01C1C0
030060
05C7B0
0FCCD8
0DDCD8
19DCEC
19DCEC
19DCEC
19DCEC
19DCEC
19DCEC
0DDCD8
0DCCD8
07E7B0
030060
01C1C0
007F00
000000
000000
000000
ENDCHAR

STARTCHAR kor_A8F1
ENCODING 43249
SWIDTH 903 0
DWIDTH 24 0
BBX 24 24 0 -2
BITMAP
000000
000000
000000
007F00
01C1C0
030060
06E3B0
0BEF98
0CE398
18E38C
18E38C
18E38C
18E38C
18E38C
18E38C
0CE398
0CE398
05F7B0
030060
01C1C0
007F00
000000
000000
000000
ENDCHAR

STARTCHAR kor_A8F2
ENCODING 43250
SWIDTH 903 0
DWIDTH 24 0
BBX 24 24 0 -2
BITMAP
000000
000000
000000
007F00
01C1C0
030060
06E7B0
0BEDD8
0CD8D8
18E0EC
18E0EC
18E1CC
18E38C
18E30C
18E60C
0CEC58
0CD858
05DFF0
030060
01C1C0
007F00
000000
000000
000000
ENDCHAR

STARTCHAR kor_A8F3
ENCODING 43251
SWIDTH 903 0
DWIDTH 24 0
BBX 24 24 0 -2
BITMAP
000000
000000
000000
007F00
01C1C0
030060
06E7B0
0BECD8
0CD8D8
18E0EC
18E0CC
18E78C
18E1CC
18E0EC
18E0EC
0CD8D8
0CECD8
05F7B0
030060
01C1C0
007F00
000000
000000
000000
ENDCHAR

STARTCHAR kor_A8F4
ENCODING 43252
SWIDTH 903 0
DWIDTH 24 0
BBX 24 24 0 -2
BITMAP
000000
000000
000000
007F00
01C1C0
030060
06E1B0
0BE1D8
0CE3D8
18E3CC
18E5CC
18E5CC
18EDCC
18EDCC
18DFEC
0CE1D8
0CE1D8
07F3F0
030060
01C1C0
007F00
000000
000000
000000
ENDCHAR

STARTCHAR kor_A8F5
ENCODING 43253
SWIDTH 903 0
DWIDTH 24 0
BBX 24 24 0 -2
BITMAP
000000
000000
000000
007F00
01C1C0
030060
06EFF0
0BEFD8
0CEC18
18EC0C
18EB8C
18EEEC
18ECEC
18E0EC
18E0EC
0CE0D8
0CEDD8
05F7B0
030060
01C1C0
007F00
000000
000000
000000
ENDCHAR

STARTCHAR kor_A8F6
ENCODING 43254
SWIDTH 903 0
DWIDTH 24 0
BBX 24 24 0 -2
BITMAP
000000
000000
000000
038070
0F80E0
0381C0
0381C0
038380
038700
038E00
038E00
0FDC00
0039E0
007370
007738
00E038
01C070
0380E0
0381C0
070380
0E07F8
000000
000000
000000
ENDCHAR

STARTCHAR kor_A8F7
ENCODING 43255
SWIDTH 903 0
DWIDTH 24 0
BBX 24 24 0 -2
BITMAP
000000
000000
000000
038070
0F80E0
0381C0
0381C0
038380
038700
038E00
038E00
0FDC00
0039E0
007370
007738
00E038
01C0F0
038078
038638
070738
0E03F0
000000
000000
000000
ENDCHAR

STARTCHAR kor_A8F8
ENCODING 43256
SWIDTH 903 0
DWIDTH 24 0
BBX 24 24 0 -2
BITMAP
000000
000000
000000
03C070
06E0E0
0E71C0
0071C0
00E380
038700
070E00
0FEE00
001C00
0039E0
007370
007738
00E038
01C0F0
038078
038638
070738
0E03F0
000000
000000
000000
ENDCHAR

STARTCHAR kor_A8F9
ENCODING 43257
SWIDTH 903 0
DWIDTH 24 0
BBX 24 24 0 -2
BITMAP
000000
000000
000000
038070
0F80E0
0381C0
0381C0
038380
038700
038E00
038E00
0FDC00
0038E0
0071E0
0072E0
00E2E0
01C6E0
0386E0
038FF8
0700E0
0E01F0
000000
000000
000000
ENDCHAR

STARTCHAR kor_A8FA
ENCODING 43258
SWIDTH 903 0
DWIDTH 24 0
BBX 24 24 0 -2
BITMAP
000000
000000
000000
03C038
06E070
0E70E0
0070E0
01E1C0
00F380
0C7700
0E7700
07EE00
001CE0
0039E0
003AE0
0072E0
00E6E0
01C6E0
01CFF8
0380E0
0701F0
000000
000000
000000
ENDCHAR

STARTCHAR kor_A8FB
ENCODING 43259
SWIDTH 903 0
DWIDTH 24 0
BBX 24 24 0 -2
BITMAP
000000
000000
000000
038070
0F80E0
0381C0
0381C0
038380
038700
038E00
038E00
0FDC00
0039F0
007738
007738
00E738
01C1E0
038738
038738
070738
0E03F0
000000
000000
000000
ENDCHAR

STARTCHAR kor_A8FC
ENCODING 43260
SWIDTH 903 0
DWIDTH 24 0
BBX 24 24 0 -2
BITMAP
000000
000000
000000
03C038
06E070
0E70E0
0070E0
01E1C0
00F380
0C7700
0E7700
07EE00
001CF0
003B9C
003B9C
00739C
00E0F0
01C39C
01C39C
03839C
0701F8
000000
000000
000000
ENDCHAR

STARTCHAR kor_A8FD
ENCODING 43261
SWIDTH 903 0
DWIDTH 24 0
BBX 24 24 0 -2
BITMAP
000000
000000
000000
0FF038
0E0070
0E00E0
0FC0E0
0EE1C0
007380
0C7700
0EE700
07CE00
001CF0
003B9C
003B9C
00739C
00E0F0
01C39C
01C39C
03839C
0701F8
000000
000000
000000
ENDCHAR

STARTCHAR kor_A8FE
ENCODING 43262
SWIDTH 903 0
DWIDTH 24 0
BBX 24 24 0 -2
BITMAP
000000
000000
000000
0FF038
0C7070
0C60E0
00E0E0
00C1C0
01C380
01C700
01C700
01CE00
001CF0
003B9C
003B9C
00739C
00E0F0
01C39C
01C39C
03839C
0701F8
000000
000000
000000
ENDCHAR

STARTCHAR kor_A9A1
ENCODING 43425
SWIDTH 903 0
DWIDTH 24 0
BBX 24 24 0 -2
BITMAP
000000
000000
000000
000000
000000
000000
000000
000000
03FBE0
071E70
0E1C38
001C38
001C38
001C70
01FFC0
071C00
0E1C00
0E1C00
0E1C00
0E3E38
0E3770
03F3E0
000000
000000
ENDCHAR

STARTCHAR kor_A9A2
ENCODING 43426
SWIDTH 903 0
DWIDTH 24 0
BBX 24 24 0 -2
BITMAP
000000
000000
000000
0000E0
0001E0
0000E0
0000E0
007FFC
0000E0
0000E0
007EE0
01C3E0
01C1E0
0380E0
0380E0
0380E0
0380E0
0380E0
03C1E0
01C3E0
007EF0
000000
000000
000000
ENDCHAR

STARTCHAR kor_A9A3
ENCODING 43427
SWIDTH 903 0
DWIDTH 24 0
BBX 24 24 0 -2
BITMAP
000000
000000
000000
000000
000000
000000
000000
03F9C0
000F00
001F00
007380
01C380
0001C0
0001C0
0001C0
0FFFC0
0E01C0
0E01C0
070380
070380
038700
00FC00
000000
000000
ENDCHAR

STARTCHAR kor_A9A4
ENCODING 43428
SWIDTH 903 0
DWIDTH 24 0
BBX 24 24 0 -2
BITMAP
000000
000000
000000
000000
038000
078000
038000
1FFF00
038000
038000
037F80
03E1C0
03C0E0
0380E0
0380E0
0380E0
0380E0
0380E0
0380E0
0380E0
0FE3F8
000000
000000
000000
ENDCHAR

STARTCHAR kor_A9A5
ENCODING 43429
SWIDTH 903 0
DWIDTH 24 0
BBX 24 24 0 -2
BITMAP
000000
000000
000000
000000
001C00
007C00
001C00
001C00
001C00
001C00
001C00
001C00
001C00
001C00
001C00
001C00
001C00
001C00
001C00
001C00
007F00
000000
000000
000000
ENDCHAR

STARTCHAR kor_A9A6
ENCODING 43430
SWIDTH 903 0
DWIDTH 24 0
BBX 24 24 0 -2
BITMAP
000000
000000
000000
000000
000000
0380E0
0380E0
000000
000000
0380E0
0781E0
0380E0
0380E0
0380E0
0380E0
0380E0
0380E0
0380E0
0380E0
03B8E0
0FB9E0
001FE0
000FC0
000000
ENDCHAR

STARTCHAR kor_A9A7
ENCODING 43431
SWIDTH 903 0
DWIDTH 24 0
BBX 24 24 0 -2
BITMAP
000000
000000
000000
000000
000000
000000
000000
0FE7E0
038180
038300
038C00
03B800
035800
03CC00
038600
038300
038180
0FE3F0
000000
000000
000000
000000
000000
000000
ENDCHAR

STARTCHAR kor_A9A8
ENCODING 43432
SWIDTH 903 0
DWIDTH 24 0
BBX 24 24 0 -2
BITMAP
000000
000000
000000
000000
007000
01F000
007000
007000
007000
007000
0071E0
0073F0
0071E0
007000
007000
007000
007000
007000
007000
007000
01FC00
000000
000000
000000
ENDCHAR

STARTCHAR kor_A9A9
ENCODING 43433
SWIDTH 903 0
DWIDTH 24 0
BBX 24 24 0 -2
BITMAP
000000
000000
000000
000000
001C00
007C00
001C00
001C00
001C00
001C00
001DE0
001F00
007C00
03DC00
001C00
001C00
001C00
001C00
001C00
001C00
007F00
000000
000000
000000
ENDCHAR

STARTCHAR kor_A9AA
ENCODING 43434
SWIDTH 903 0
DWIDTH 24 0
BBX 24 24 0 -2
BITMAP
000000
000000
000000
0000C0
000180
007D80
01C380
0385C0
0385C0
070CE0
070CE0
0718E0
0718E0
0730E0
0730E0
0361C0
0361C0
01C380
00FE00
018000
018000
030000
000000
000000
ENDCHAR

STARTCHAR kor_A9AB
ENCODING 43435
SWIDTH 903 0
DWIDTH 24 0
BBX 24 24 0 -2
BITMAP
000000
000000
000000
000000
000000
000000
000000
000000
03C1F0
0E771C
1C371C
1C3E0E
381C0E
381C0E
381FFE
381C00
381C00
381C00
1C3E00
1C3E0E
0E771C
03C1F0
000000
000000
ENDCHAR

STARTCHAR kor_A9AC
ENCODING 43436
SWIDTH 903 0
DWIDTH 24 0
BBX 24 24 0 -2
BITMAP
000000
000000
000000
000000
001E00
007380
00C1C0
00C1C0
0181C0
018380
018700
019C00
018700
018380
0181C0
0180E0
0180E0
0180E0
01C0E0
0173C0
019F00
018000
000000
000000
ENDCHAR

STARTCHAR kor_A9AD
ENCODING 43437
SWIDTH 903 0
DWIDTH 24 0
BBX 24 24 0 -2
BITMAP
000000
000000
000000
000000
07F000
01C000
01C000
01C000
01C000
01FF00
01C1C0
01C0E0
01C0E0
01C0E0
01C0E0
01C1C0
01C380
01FE00
01C000
01C000
07F000
000000
000000
000000
ENDCHAR

STARTCHAR kor_A9AE
ENCODING 43438
SWIDTH 903 0
DWIDTH 24 0
BBX 24 24 0 -2
BITMAP
000000
000000
000000
000000
003800
0037C0
007C00
07B800
003800
01FF80
003800
003800
003800
003800
003800
003800
003800
003800
0038C0
001CC0
000F80
000000
000000
000000
ENDCHAR

STARTCHAR kor_A9AF
ENCODING 43439
SWIDTH 903 0
DWIDTH 24 0
BBX 24 24 0 -2
BITMAP
000000
000000
000000
000000
01CF80
07B9C0
01E0E0
01C0E0
01C0E0
01C0E0
01C0E0
01C0E0
01C0E0
01C0E0
01C0E0
01C0E0
01C0E0
07F0E0
0000E0
0000E0
0000E0
001FC0
000F80
000000
ENDCHAR

STARTCHAR kor_A9B0
ENCODING 43440
SWIDTH 903 0
DWIDTH 24 0
BBX 24 24 0 -2
BITMAP
000000
000000
000000
01E000
03C000
070000
0E0000
180000
01CFC0
03B8E0
01E070
01C070
01C070
01C070
01C070
01C070
01C070
01C070
01C070
01C070
01C070
07F1FC
000000
000000
ENDCHAR

STARTCHAR kor_A9B1
ENCODING 43441
SWIDTH 903 0
DWIDTH 24 0
BBX 24 24 0 -2
BITMAP
000000
000000
060030
0C0018
0C0018
18000C
1B038C
19FFCC
30C386
300386
300386
300386
300386
300386
300386
300386
18038C
18038C
18030C
0C0318
0C0018
060030
000000
000000
ENDCHAR

STARTCHAR kor_A9B2
ENCODING 43442
SWIDTH 903 0
DWIDTH 24 0
BBX 24 24 0 -2
BITMAP
000000
000000
060030
0C0018
0C0018
18000C
18000C
18000C
33C006
30E006
30E006
30E006
30E006
30E006
30E006
30E006
18E1CC
187FEC
18000C
0C0018
0C0018
060030
000000
000000
ENDCHAR

STARTCHAR kor_A9B3
ENCODING 43443
SWIDTH 903 0
DWIDTH 24 0
BBX 24 24 0 -2
BITMAP
000000
000000
060030
0C0018
0C0018
18000C
18000C
1BC18C
30FFC6
30E006
30E006
30E006
30E006
30E006
30E006
30E006
18E1CC
187FEC
18000C
0C0018
0C0018
060030
000000
000000
ENDCHAR

STARTCHAR kor_A9B4
ENCODING 43444
SWIDTH 903 0
DWIDTH 24 0
BBX 24 24 0 -2
BITMAP
000000
000000
060030
0C0018
0C0018
18000C
1981CC
18FFEC
3061C6
3001C6
300186
300186
31FFC6
30E006
30E006
30E006
18E00C
18E0CC
187FEC
0C0018
0C0018
060030
000000
000000
ENDCHAR

STARTCHAR kor_A9B5
ENCODING 43445
SWIDTH 903 0
DWIDTH 24 0
BBX 24 24 0 -2
BITMAP
000000
000000
060030
0C0018
0C0018
18000C
1BC1CC
18FFEC
30E1C6
30E1C6
30E1C6
30E1C6
30E1C6
30E186
30E186
30E186
18FFCC
18E00C
18600C
0C0018
0C0018
060030
000000
000000
ENDCHAR

STARTCHAR kor_A9B6
ENCODING 43446
SWIDTH 903 0
DWIDTH 24 0
BBX 24 24 0 -2
BITMAP
000000
000000
060030
0C0018
0C0018
18000C
18060C
18038C
31C1C6
30E1C6
30E1C6
30E1C6
30FFC6
30E1C6
30E1C6
30E1C6
18E1CC
18FFCC
18E1CC
0C6198
0C0018
060030
000000
000000
ENDCHAR

STARTCHAR kor_A9B7
ENCODING 43447
SWIDTH 903 0
DWIDTH 24 0
BBX 24 24 0 -2
BITMAP
000000
000000
060030
0C0018
0C0018
18000C
181E0C
180F0C
300F06
300E06
300E06
301C06
301C06
303606
307386
30E1C6
1981EC
1700EC
18000C
0C0018
0C0018
060030
000000
000000
ENDCHAR

STARTCHAR kor_A9B8
ENCODING 43448
SWIDTH 903 0
DWIDTH 24 0
BBX 24 24 0 -2
BITMAP
000000
000000
060030
0C0018
0C0018
18000C
183C0C
181C0C
303B06
307386
30E1C6
31C0E6
31C0E6
31C0E6
31C0E6
30E1C6
18738C
181E0C
18000C
0C0018
0C0018
060030
000000
000000
ENDCHAR

STARTCHAR kor_A9B9
ENCODING 43449
SWIDTH 903 0
DWIDTH 24 0
BBX 24 24 0 -2
BITMAP
000000
000000
060030
0C0018
0C0018
18000C
19838C
18FFCC
306386
300386
300706
300706
300E06
301B86
3039E6
3070F6
18C0EC
1B806C
18000C
0C0018
0C0018
060030
000000
000000
ENDCHAR

STARTCHAR kor_A9BA
ENCODING 43450
SWIDTH 903 0
DWIDTH 24 0
BBX 24 24 0 -2
BITMAP
000000
000000
060030
0C0018
0C6018
183E0C
18000C
19838C
30FFC6
3063C6
300786
300706
300E06
301C06
303386
3061E6
18C0EC
1B806C
18000C
0C0018
0C0018
060030
000000
000000
ENDCHAR

STARTCHAR kor_A9BB
ENCODING 43451
SWIDTH 903 0
DWIDTH 24 0
BBX 24 24 0 -2
BITMAP
000000
000000
060030
0C0018
0C0018
18000C
19838C
18FFCC
300386
300386
300386
300386
33FF86
31C386
300386
300386
18038C
18038C
18030C
0C0318
0C0018
060030
000000
000000
ENDCHAR

STARTCHAR kor_A9BC
ENCODING 43452
SWIDTH 903 0
DWIDTH 24 0
BBX 24 24 0 -2
BITMAP
000000
000000
060030
0C0018
0C0018
18000C
1BC18C
18FFCC
30E006
30E006
30E006
30E306
30FF86
30E006
30E006
30E006
18E1CC
187FEC
18000C
0C0018
0C0018
060030
000000
000000
ENDCHAR

STARTCHAR kor_A9BD
ENCODING 43453
SWIDTH 903 0
DWIDTH 24 0
BBX 24 24 0 -2
BITMAP
000000
000000
060030
0C0018
0C0018
18000C
1B00CC
19FFEC
300006
300606
300386
30E386
307386
307706
307706
303606
1836EC
1BFFEC
19C00C
0C0018
0C0018
060030
000000
000000
ENDCHAR

STARTCHAR kor_A9BE
ENCODING 43454
SWIDTH 903 0
DWIDTH 24 0
BBX 24 24 0 -2
BITMAP
000000
000000
060030
0C0018
0C7C18
181E0C
18000C
18006C
37FFF6
330006
300C06
303E06
307706
30E386
30E386
30E386
18E38C
18770C
183E0C
0C0018
0C0018
060030
000000
000000
ENDCHAR

STARTCHAR kor_A9BF
ENCODING 43455
SWIDTH 903 0
DWIDTH 24 0
BBX 24 24 0 -2
BITMAP
000000
000000
060030
0C0618
0C0398
1801CC
1801CC
1B19CC
31FDC6
3039C6
3039C6
3039B6
3071F6
3071C6
3061C6
30C1C6
1981CC
1701CC
1801CC
0C0198
0C0198
060030
000000
000000
ENDCHAR

STARTCHAR kor_A9C0
ENCODING 43456
SWIDTH 903 0
DWIDTH 24 0
BBX 24 24 0 -2
BITMAP
000000
000000
060030
0C0618
0C0398
1801CC
1801CC
1801CC
3001C6
33C1C6
30E1C6
30E1B6
30E1F6
30E1C6
30E1C6
30EDC6
1879CC
1801CC
1801CC
0C0198
0C0198
060030
000000
000000
ENDCHAR

STARTCHAR kor_A9C1
ENCODING 43457
SWIDTH 903 0
DWIDTH 24 0
BBX 24 24 0 -2
BITMAP
000000
000000
060030
0C0618
0C0398
1801CC
1801CC
1781CC
31F9C6
31C1C6
31C1C6
31C1B6
31C1F6
31C1C6
31C1C6
31DDC6
18F1CC
1801CC
1801CC
0C0198
0C0198
060030
000000
000000
ENDCHAR

STARTCHAR kor_A9C2
ENCODING 43458
SWIDTH 903 0
DWIDTH 24 0
BBX 24 24 0 -2
BITMAP
000000
000000
060030
0C0618
0C0398
1801CC
1B19CC
19FDCC
3039C6
3039C6
3031C6
3031B6
33F9F6
31C1C6
31C1C6
31C1C6
19C1CC
19CDCC
18F9CC
0C0198
0C0198
060030
000000
000000
ENDCHAR

STARTCHAR kor_A9C3
ENCODING 43459
SWIDTH 903 0
DWIDTH 24 0
BBX 24 24 0 -2
BITMAP
000000
000000
060030
0C0618
0C0398
1801CC
1801CC
179DCC
31FDC6
319DC6
319DC6
319DB6
3199F6
3199C6
3199C6
31FDC6
1981CC
1801CC
1801CC
0C0198
0C0198
060030
000000
000000
ENDCHAR

STARTCHAR kor_A9C4
ENCODING 43460
SWIDTH 903 0
DWIDTH 24 0
BBX 24 24 0 -2
BITMAP
000000
000000
060030
0C0618
0C0398
1801CC
1839CC
181DCC
331DC6
319DC6
319DC6
319DB6
31FDF6
319DC6
319DC6
319DC6
19FDCC
1999CC
1801CC
0C0198
0C0198
060030
000000
000000
ENDCHAR

STARTCHAR kor_A9C5
ENCODING 43461
SWIDTH 903 0
DWIDTH 24 0
BBX 24 24 0 -2
BITMAP
000000
000000
060030
0C0618
0C0398
1801CC
1801CC
1879CC
3039C6
3039C6
3071C6
3071B6
30F9F6
30DDC6
318DC6
330DC6
1601CC
1801CC
1801CC
0C0198
0C0198
060030
000000
000000
ENDCHAR

STARTCHAR kor_A9C6
ENCODING 43462
SWIDTH 903 0
DWIDTH 24 0
BBX 24 24 0 -2
BITMAP
000000
000000
060030
0C0618
0C0398
1801CC
1801CC
18C1CC
30E1C6
33B9C6
371DC6
371DB6
371DF6
371DC6
33B9C6
31F1C6
1801CC
1801CC
1801CC
0C0198
0C0198
060030
000000
000000
ENDCHAR

STARTCHAR kor_A9C7
ENCODING 43463
SWIDTH 903 0
DWIDTH 24 0
BBX 24 24 0 -2
BITMAP
000000
000000
060030
0C0618
0C0398
1801CC
1801CC
1839CC
33FDC6
31B9C6
3039C6
3031B6
3071F6
30E1C6
30BDC6
319DC6
1B0DCC
1601CC
1801CC
0C0198
0C0198
060030
000000
000000
ENDCHAR

STARTCHAR kor_A9C8
ENCODING 43464
SWIDTH 903 0
DWIDTH 24 0
BBX 24 24 0 -2
BITMAP
000000
000000
060030
0C0618
0D8398
18F1CC
1801CC
1819CC
33FDC6
31B9C6
3039C6
3071B6
3071F6
30F9C6
30DDC6
318DC6
170DCC
1801CC
1801CC
0C0198
0C0198
060030
000000
000000
ENDCHAR

STARTCHAR kor_A9C9
ENCODING 43465
SWIDTH 903 0
DWIDTH 24 0
BBX 24 24 0 -2
BITMAP
000000
000000
060030
0C0618
0C0398
1801CC
1B19CC
19FDCC
3039C6
3039C6
3039C6
37F9B6
3371F6
3071C6
3061C6
30C1C6
1981CC
1701CC
1801CC
0C0198
0C0198
060030
000000
000000
ENDCHAR

STARTCHAR kor_A9CA
ENCODING 43466
SWIDTH 903 0
DWIDTH 24 0
BBX 24 24 0 -2
BITMAP
000000
000000
060030
0C0618
0C0398
1801CC
1801CC
1F31CC
33F9C6
3381C6
3381C6
3381B6
33F9F6
3381C6
3381C6
3381C6
1BBDCC
19E1CC
1801CC
0C0198
0C0198
060030
000000
000000
ENDCHAR

STARTCHAR kor_A9CB
ENCODING 43467
SWIDTH 903 0
DWIDTH 24 0
BBX 24 24 0 -2
BITMAP
000000
000000
060030
0C0618
0C0398
1801CC
1801CC
1601CC
33FDC6
3001C6
3031C6
339DB6
31DDF6
31D9C6
31B1C6
31BDC6
19F1CC
1781CC
1801CC
0C0198
0C0198
060030
000000
000000
ENDCHAR

STARTCHAR kor_A9CC
ENCODING 43468
SWIDTH 903 0
DWIDTH 24 0
BBX 24 24 0 -2
BITMAP
000000
000000
060030
0C0618
0C0398
1801CC
19E1CC
18F1CC
3601C6
33FDC6
3001C6
30F1B6
3199F6
339DC6
339DC6
339DC6
1999CC
18F1CC
1801CC
0C0198
0C0198
060030
000000
000000
ENDCHAR

STARTCHAR kor_A9CD
ENCODING 43469
SWIDTH 903 0
DWIDTH 24 0
BBX 24 24 0 -2
BITMAP
000000
000000
060030
0C0018
0C0018
18000C
18000C
18000C
300006
300006
303F06
306186
30E1C6
3001C6
307FC6
30E1C6
18E1CC
18E1CC
1863AC
0C3ED8
0C0018
060030
000000
000000
ENDCHAR

STARTCHAR kor_A9CE
ENCODING 43470
SWIDTH 903 0
DWIDTH 24 0
BBX 24 24 0 -2
BITMAP
000000
000000
060030
0C0018
0C0018
18E00C
1BE00C
18E00C
30E006
30E006
30EF06
30FB86
30E1C6
30E1C6
30E1C6
30E1C6
18E1CC
18E1CC
18F38C
0CDF18
0C0018
060030
000000
000000
ENDCHAR

STARTCHAR kor_A9CF
ENCODING 43471
SWIDTH 903 0
DWIDTH 24 0
BBX 24 24 0 -2
BITMAP
000000
000000
060030
0C0018
0C0018
18000C
18000C
18000C
300006
300006
303F06
307186
30E1C6
30E1C6
30E006
30E006
18E00C
18E0CC
18718C
0C3F18
0C0018
060030
000000
000000
ENDCHAR

STARTCHAR kor_A9D0
ENCODING 43472
SWIDTH 903 0
DWIDTH 24 0
BBX 24 24 0 -2
BITMAP
000000
000000
060030
0C0018
0C0018
1801CC
1807CC
1801CC
3001C6
3001C6
303DC6
3077C6
30E1C6
30E1C6
30E1C6
30E1C6
18E1CC
18E1CC
1873CC
0C3ED8
0C0018
060030
000000
000000
ENDCHAR

STARTCHAR kor_A9D1
ENCODING 43473
SWIDTH 903 0
DWIDTH 24 0
BBX 24 24 0 -2
BITMAP
000000
000000
060030
0C0018
0C0018
18000C
18000C
18000C
300006
300006
303F06
307386
30E1C6
30E1C6
30FFC6
30E006
18E00C
18E0CC
18718C
0C3F18
0C0018
060030
000000
000000
ENDCHAR

STARTCHAR kor_A9D2
ENCODING 43474
SWIDTH 903 0
DWIDTH 24 0
BBX 24 24 0 -2
BITMAP
000000
000000
060030
0C0018
0C0018
18078C
180CEC
181CEC
301C06
301C06
30FF86
301C06
301C06
301C06
301C06
301C06
181C0C
181C0C
181C0C
0C7F18
0C0018
060030
000000
000000
ENDCHAR

STARTCHAR kor_A9D3
ENCODING 43475
SWIDTH 903 0
DWIDTH 24 0
BBX 24 24 0 -2
BITMAP
000000
000000
060030
0C0018
0C0018
18000C
18000C
18000C
3000E6
307DE6
30E706
30E386
30E386
303F06
307006
303F06
18EF8C
19C3CC
19C1CC
0DC1D8
0CE398
067F30
000000
000000
ENDCHAR

STARTCHAR kor_A9D4
ENCODING 43476
SWIDTH 903 0
DWIDTH 24 0
BBX 24 24 0 -2
BITMAP
000000
000000
060030
0C0018
0C0018
18E00C
1BE00C
18E00C
30E006
30E006
30DF06
30FB86
30E1C6
30E1C6
30E1C6
30E1C6
18E1CC
18E1CC
18E1CC
0BFBD8
0C0018
060030
000000
000000
ENDCHAR

STARTCHAR kor_A9D5
ENCODING 43477
SWIDTH 903 0
DWIDTH 24 0
BBX 24 24 0 -2
BITMAP
000000
000000
060030
0C0018
0C0018
181C0C
181C0C
181C0C
300006
300006
307C06
301C06
301C06
301C06
301C06
301C06
181C0C
181C0C
181C0C
0C7F18
0C0018
060030
000000
000000
ENDCHAR

STARTCHAR kor_A9D6
ENCODING 43478
SWIDTH 903 0
DWIDTH 24 0
BBX 24 24 0 -2
BITMAP
000000
000000
060030
0C0018
0C0018
180E0C
180E0C
180E0C
300006
300006
303E06
300E06
300E06
300E06
300E06
300E06
180E0C
180E0C
19CE0C
0DCE18
0CDC18
067830
000000
000000
ENDCHAR

STARTCHAR kor_A9D7
ENCODING 43479
SWIDTH 903 0
DWIDTH 24 0
BBX 24 24 0 -2
BITMAP
000000
000000
060030
0C0018
0C0018
1BF00C
18E00C
18E00C
30E006
30E006
30E7C6
30E306
30E606
30EC06
30F806
30FC06
18EE0C
18E70C
18E38C
0BF7D8
0C0018
060030
000000
000000
ENDCHAR

STARTCHAR kor_A9D8
ENCODING 43480
SWIDTH 903 0
DWIDTH 24 0
BBX 24 24 0 -2
BITMAP
000000
000000
060030
0C0018
0C0018
181C0C
187C0C
181C0C
301C06
301C06
301C06
301C06
301C06
301C06
301C06
301C06
181C0C
181C0C
181C0C
0C7F18
0C0018
060030
000000
000000
ENDCHAR

STARTCHAR kor_A9D9
ENCODING 43481
SWIDTH 903 0
DWIDTH 24 0
BBX 24 24 0 -2
BITMAP
000000
000000
060030
0C0018
0C0018
18000C
18000C
18000C
300006
300006
317786
37DDC6
31DDC6
31DDC6
31DDC6
31DDC6
19DDCC
19DDCC
19DDCC
0FDBD8
0C0018
060030
000000
000000
ENDCHAR

STARTCHAR kor_A9DA
ENCODING 43482
SWIDTH 903 0
DWIDTH 24 0
BBX 24 24 0 -2
BITMAP
000000
000000
060030
0C0018
0C0018
18000C
18000C
18000C
300006
300006
30DE06
33F706
30E386
30E386
30E386
30E386
18E38C
18E38C
18E38C
0BF7D8
0C0018
060030
000000
000000
ENDCHAR

STARTCHAR kor_A9DB
ENCODING 43483
SWIDTH 903 0
DWIDTH 24 0
BBX 24 24 0 -2
BITMAP
000000
000000
060030
0C0018
0C0018
18000C
18000C
18000C
300006
300006
303E06
30E386
31E3C6
31C1C6
31C1C6
31C1C6
19C1CC
19E3CC
18E38C
0C3E18
0C0018
060030
000000
000000
ENDCHAR

STARTCHAR kor_A9DC
ENCODING 43484
SWIDTH 903 0
DWIDTH 24 0
BBX 24 24 0 -2
BITMAP
000000
000000
060030
0C0018
0C0018
18000C
18000C
18000C
300006
30DF06
33F386
30E1C6
30E1C6
30E1C6
30E1C6
30E1C6
18F38C
18DF0C
18E00C
0CE018
0CE018
07F830
000000
000000
ENDCHAR

STARTCHAR kor_A9DD
ENCODING 43485
SWIDTH 903 0
DWIDTH 24 0
BBX 24 24 0 -2
BITMAP
000000
000000
060030
0C0018
0C0018
18000C
18000C
18000C
300006
307D86
30E786
31C386
31C386
31C386
31C386
31C386
18E78C
187B8C
18038C
0C0398
0C0398
060FF0
000000
000000
ENDCHAR

STARTCHAR kor_A9DE
ENCODING 43486
SWIDTH 903 0
DWIDTH 24 0
BBX 24 24 0 -2
BITMAP
000000
000000
060030
0C0018
0C0018
18000C
18000C
18000C
300006
300006
303BC6
30F7E6
303676
303C76
303C06
303806
18380C
18380C
18380C
0CFE18
0C0018
060030
000000
000000
ENDCHAR

STARTCHAR kor_A9DF
ENCODING 43487
SWIDTH 903 0
DWIDTH 24 0
BBX 24 24 0 -2
BITMAP
000000
000000
060030
0C0018
0C0018
18000C
18000C
18000C
300006
300006
303EC6
30F1C6
30E0C6
30F0C6
303E06
300F86
1803CC
18C1CC
18E3CC
0CBF18
0C0018
060030
000000
000000
ENDCHAR

STARTCHAR kor_A9E0
ENCODING 43488
SWIDTH 903 0
DWIDTH 24 0
BBX 24 24 0 -2
BITMAP
000000
000000
060030
0C0018
0C0018
18380C
18380C
18380C
303806
303806
31FF86
303806
303806
303806
303806
3038C6
1838CC
18198C
180F0C
0C0018
0C0018
060030
000000
000000
ENDCHAR

STARTCHAR kor_A9E1
ENCODING 43489
SWIDTH 903 0
DWIDTH 24 0
BBX 24 24 0 -2
BITMAP
000000
000000
060030
0C0018
0C0018
18000C
18000C
18000C
300006
300006
30E1C6
33E3C6
30E1C6
30E1C6
30E1C6
30E1C6
18E1CC
18E1CC
1873CC
0C3ED8
0C0018
060030
000000
000000
ENDCHAR

STARTCHAR kor_A9E2
ENCODING 43490
SWIDTH 903 0
DWIDTH 24 0
BBX 24 24 0 -2
BITMAP
000000
000000
060030
0C0018
0C0018
18000C
18000C
18000C
300006
300006
33F1F6
31E0C6
30E0C6
307186
307186
303B06
183B0C
181E0C
180E0C
0C0C18
0C0018
060030
000000
000000
ENDCHAR

STARTCHAR kor_A9E3
ENCODING 43491
SWIDTH 903 0
DWIDTH 24 0
BBX 24 24 0 -2
BITMAP
000000
000000
060030
0C0018
0C0018
18000C
18000C
18000C
300006
300006
37DEF6
31DC66
31DC66
30EE66
30EEC6
30EEC6
1876CC
18778C
18338C
0C3318
0C0018
060030
000000
000000
ENDCHAR

STARTCHAR kor_A9E4
ENCODING 43492
SWIDTH 903 0
DWIDTH 24 0
BBX 24 24 0 -2
BITMAP
000000
000000
060030
0C0018
0C0018
18000C
18000C
18000C
300006
300006
31F3C6
30E186
307306
303606
301C06
301C06
182E0C
18670C
18C38C
0DE7D8
0C0018
060030
000000
000000
ENDCHAR

STARTCHAR kor_A9E5
ENCODING 43493
SWIDTH 903 0
DWIDTH 24 0
BBX 24 24 0 -2
BITMAP
000000
000000
060030
0C0018
0C0018
18000C
18000C
18000C
300006
300006
30F9E6
3070C6
303986
303986
301B06
301B06
180E0C
18060C
180C0C
0DCC18
0DD818
06F030
000000
000000
ENDCHAR

STARTCHAR kor_A9E6
ENCODING 43494
SWIDTH 903 0
DWIDTH 24 0
BBX 24 24 0 -2
BITMAP
000000
000000
060030
0C0018
0C0018
18000C
18000C
18000C
300006
300006
30FF86
30C386
318706
300E06
301C06
303806
18700C
18E18C
19C30C
0DFF18
0C0018
060030
000000
000000
ENDCHAR

STARTCHAR kor_A9E7
ENCODING 43495
SWIDTH 903 0
DWIDTH 24 0
BBX 24 24 0 -2
BITMAP
000000
000000
060030
0C0018
0C0018
181C0C
183C0C
18FC0C
301C06
301C06
301C06
301C06
301C06
301C06
301C06
301C06
181C0C
181C0C
181C0C
0CFF98
0C0018
060030
000000
000000
ENDCHAR

STARTCHAR kor_A9E8
ENCODING 43496
SWIDTH 903 0
DWIDTH 24 0
BBX 24 24 0 -2
BITMAP
000000
000000
060030
0C0018
0C0018
183E0C
18738C
18C1CC
30C1C6
3001C6
300386
300386
300706
300606
300C06
301806
18300C
1860CC
18C0CC
0CFFD8
0C0018
060030
000000
000000
ENDCHAR

STARTCHAR kor_A9E9
ENCODING 43497
SWIDTH 903 0
DWIDTH 24 0
BBX 24 24 0 -2
BITMAP
000000
000000
060030
0C0018
0C0018
183F0C
18738C
18E1CC
3001C6
3001C6
300186
301F06
300786
3003C6
3001C6
3001C6
1801CC
19C1CC
18E38C
0C7F18
0C0018
060030
000000
000000
ENDCHAR

STARTCHAR kor_A9EA
ENCODING 43498
SWIDTH 903 0
DWIDTH 24 0
BBX 24 24 0 -2
BITMAP
000000
000000
060030
0C0018
0C0018
18070C
18070C
180F0C
301706
301706
303706
306706
306706
30C706
318706
31FFE6
18070C
18070C
18070C
0C1FD8
0C0018
060000
000000
000000
ENDCHAR

STARTCHAR kor_A9EB
ENCODING 43499
SWIDTH 903 0
DWIDTH 24 0
BBX 24 24 0 -2
BITMAP
000000
000000
060030
0C0018
0C0018
18FFCC
18FF0C
18C00C
30C006
30C006
30C006
30BF06
30E386
30C1C6
3001C6
3001C6
1801CC
18C1CC
18638C
0C3E18
0C0018
060030
000000
000000
ENDCHAR

STARTCHAR kor_A9EC
ENCODING 43500
SWIDTH 903 0
DWIDTH 24 0
BBX 24 24 0 -2
BITMAP
000000
000000
060030
0C0018
0C0018
183F0C
18718C
18E0CC
30E006
30E006
30DF06
30F386
30E1C6
30E1C6
30E1C6
30E1C6
18E1CC
1871CC
187B8C
0C1F18
0C0018
060030
000000
000000
ENDCHAR

STARTCHAR kor_A9ED
ENCODING 43501
SWIDTH 903 0
DWIDTH 24 0
BBX 24 24 0 -2
BITMAP
000000
000000
060030
0C0018
0C0018
18FFCC
18FFCC
18C0CC
30C186
30C186
300306
300306
300606
300606
300E06
300E06
181C0C
181C0C
181C0C
0C1C18
0C0018
060030
000000
000000
ENDCHAR

STARTCHAR kor_A9EE
ENCODING 43502
SWIDTH 903 0
DWIDTH 24 0
BBX 24 24 0 -2
BITMAP
000000
000000
060030
0C0018
0C0018
183F0C
18738C
18E1CC
30E1C6
30E1C6
307386
303F06
307F86
30F3C6
31C0E6
31C0E6
19C0EC
19E1EC
18E1CC
0C3F18
0C0018
060030
000000
000000
ENDCHAR

STARTCHAR kor_A9EF
ENCODING 43503
SWIDTH 903 0
DWIDTH 24 0
BBX 24 24 0 -2
BITMAP
000000
000000
060030
0C0018
0C0018
181F0C
18738C
18E1CC
30E1C6
30E1C6
30E1C6
30E1C6
3073C6
303DC6
3001C6
3001C6
1801CC
18C1CC
18638C
0C3F18
0C0018
060030
000000
000000
ENDCHAR

STARTCHAR kor_A9F0
ENCODING 43504
SWIDTH 903 0
DWIDTH 24 0
BBX 24 24 0 -2
BITMAP
000000
000000
060030
0C0018
0C0018
19C3CC
1BC6EC
17CE6C
31CE76
31CE76
31CE76
31CE76
31CE76
31CE76
31CE76
31CE76
19CE6C
19CE6C
19C6EC
0FF3D8
0C0018
060030
000000
000000
ENDCHAR

STARTCHAR kor_A9F1
ENCODING 43505
SWIDTH 903 0
DWIDTH 24 0
BBX 24 24 0 -2
BITMAP
000000
000000
060030
0C0018
0C0018
18E1CC
19E3CC
1BE7CC
30E1C6
30E1C6
30E1C6
30E1C6
30E1C6
30E1C6
30E1C6
30E1C6
18E1CC
18E1CC
18E1CC
0BF7F8
0C0018
060030
000000
000000
ENDCHAR

STARTCHAR kor_A9F2
ENCODING 43506
SWIDTH 903 0
DWIDTH 24 0
BBX 24 24 0 -2
BITMAP
000000
000000
060030
0C0018
0C0018
19CF8C
1BDDCC
17B8EC
31B8E6
31C0E6
31C0C6
31C0C6
31C186
31C306
31C606
31CC06
19CC6C
19D86C
19D86C
0FFFD8
0C0018
060030
000000
000000
ENDCHAR

STARTCHAR kor_A9F3
ENCODING 43507
SWIDTH 903 0
DWIDTH 24 0
BBX 24 24 0 -2
BITMAP
000000
000000
060030
0C0018
0C0018
19CF8C
1BDDCC
17B8EC
31C0E6
31C0E6
31C0C6
31C786
31C0C6
31C0E6
31C0E6
31C0E6
19C0EC
19B0EC
19D9CC
0FEF98
0C0018
060030
000000
000000
ENDCHAR

STARTCHAR kor_A9F4
ENCODING 43508
SWIDTH 903 0
DWIDTH 24 0
BBX 24 24 0 -2
BITMAP
000000
000000
060030
0C0018
0C0018
19C1CC
1BC1CC
17C3CC
31C3C6
31C5C6
31C5C6
31C5C6
31CDC6
31CDC6
31D9C6
31D9C6
19BFEC
19C1CC
19C1CC
0FF7F8
0C0018
060030
000000
000000
ENDCHAR

STARTCHAR kor_A9F5
ENCODING 43509
SWIDTH 903 0
DWIDTH 24 0
BBX 24 24 0 -2
BITMAP
000000
000000
060030
0C0018
0C0018
19DFEC
1BDFEC
17DC0C
31DC06
31DC06
31DC06
31DB86
31DEE6
31D866
31C076
31C076
19C06C
19D86C
19CCEC
0FF798
0C0018
060030
000000
000000
ENDCHAR

STARTCHAR kor_A9F6
ENCODING 43510
SWIDTH 903 0
DWIDTH 24 0
BBX 24 24 0 -2
BITMAP
000000
000018
000078
000018
000018
000018
000018
000018
00007E
000000
000000
000000
000000
000000
000000
000000
000000
000000
000000
000000
000000
000000
000000
000000
ENDCHAR

STARTCHAR kor_A9F7
ENCODING 43511
SWIDTH 903 0
DWIDTH 24 0
BBX 24 24 0 -2
BITMAP
000000
00003E
000063
000003
000006
00000C
000018
000030
00007F
000000
000000
000000
000000
000000
000000
000000
000000
000000
000000
000000
000000
000000
000000
000000
ENDCHAR

STARTCHAR kor_A9F8
ENCODING 43512
SWIDTH 903 0
DWIDTH 24 0
BBX 24 24 0 -2
BITMAP
000000
00003E
000063
000003
00000E
000003
000003
000063
00003E
000000
000000
000000
000000
000000
000000
000000
000000
000000
000000
000000
000000
000000
000000
000000
ENDCHAR

STARTCHAR kor_A9F9
ENCODING 43513
SWIDTH 903 0
DWIDTH 24 0
BBX 24 24 0 -2
BITMAP
000000
00000C
00001C
00002C
00002C
00006C
0000FF
00000C
00001E
000000
000000
000000
000000
000000
000000
000000
000000
000000
000000
000000
000000
000000
000000
000000
ENDCHAR

STARTCHAR kor_A9FA
ENCODING 43514
SWIDTH 903 0
DWIDTH 24 0
BBX 24 24 0 -2
BITMAP
000000
0001BC
0000E6
0000C6
0000C6
0000C6
0000C6
0000C6
0001EF
000000
000000
000000
000000
000000
000000
000000
000000
000000
000000
000000
000000
000000
000000
000000
ENDCHAR

STARTCHAR kor_A9FB
ENCODING 43515
SWIDTH 903 0
DWIDTH 24 0
BBX 24 24 0 -2
BITMAP
000000
000000
000000
000000
000000
000000
000000
000000
000000
000000
000000
000000
000000
000000
000000
000018
000078
000018
000018
000018
000018
000018
00007E
000000
ENDCHAR

STARTCHAR kor_A9FC
ENCODING 43516
SWIDTH 903 0
DWIDTH 24 0
BBX 24 24 0 -2
BITMAP
000000
000000
000000
000000
000000
000000
000000
000000
000000
000000
000000
000000
000000
000000
000000
00003E
000063
000003
000006
00000C
000018
000030
00007F
000000
ENDCHAR

STARTCHAR kor_A9FD
ENCODING 43517
SWIDTH 903 0
DWIDTH 24 0
BBX 24 24 0 -2
BITMAP
000000
000000
000000
000000
000000
000000
000000
000000
000000
000000
000000
000000
000000
000000
000000
00003E
000063
000003
00000E
000003
000003
000063
00003E
000000
ENDCHAR

STARTCHAR kor_A9FE
ENCODING 43518
SWIDTH 903 0
DWIDTH 24 0
BBX 24 24 0 -2
BITMAP
000000
000000
000000
000000
000000
000000
000000
000000
000000
000000
000000
000000
000000
000000
000000
00000C
00001C
00002C
00002C
00006C
0000FF
00000C
00001E
000000
ENDCHAR

STARTCHAR kor_AAA1
ENCODING 43681
SWIDTH 903 0
DWIDTH 24 0
BBX 24 24 0 -2
BITMAP
000000
000000
000000
000000
000000
006000
003800
003800
003780
07FF00
006000
006600
006600
007F80
01E6E0
036C70
076C38
065838
0C7038
0CF038
0DB070
0F30E0
000780
000000
ENDCHAR

STARTCHAR kor_AAA2
ENCODING 43682
SWIDTH 903 0
DWIDTH 24 0
BBX 24 24 0 -2
BITMAP
000000
00E000
007800
007000
007380
187FC0
0FFE00
00E000
00C600
00C700
00BF00
01EDC0
02CC70
061C38
0CD838
18B01C
30E01C
30E01C
316038
377038
3E7070
3800E0
000380
000000
ENDCHAR

STARTCHAR kor_AAA3
ENCODING 43683
SWIDTH 903 0
DWIDTH 24 0
BBX 24 24 0 -2
BITMAP
000000
000000
000000
000000
000000
000000
000000
000000
000000
0C0000
060380
0600E0
060060
060070
060030
063038
066038
076038
02C0F8
03C038
03C000
01C000
000000
000000
ENDCHAR

STARTCHAR kor_AAA4
ENCODING 43684
SWIDTH 903 0
DWIDTH 24 0
BBX 24 24 0 -2
BITMAP
000000
000000
000000
300000
180000
1801C0
1C0060
1C0030
1C0038
1C0018
1C001C
1C001C
1C600C
1C600E
1CE00E
0EC03E
0DC01E
0F800E
078000
078000
038000
000000
000000
000000
ENDCHAR

STARTCHAR kor_AAA5
ENCODING 43685
SWIDTH 903 0
DWIDTH 24 0
BBX 24 24 0 -2
BITMAP
000000
000000
000000
000000
000000
003000
001C00
000F00
000700
000000
000000
018F00
00FB80
00E1C0
0001C0
0001C0
0001C0
0001C0
000380
000380
000700
000E00
003800
000000
ENDCHAR

STARTCHAR kor_AAA6
ENCODING 43686
SWIDTH 903 0
DWIDTH 24 0
BBX 24 24 0 -2
BITMAP
000000
007000
001E00
000780
000380
000000
000000
000000
001F00
067980
03E0C0
0380E0
0000E0
0000E0
0000E0
0000E0
0000E0
0001C0
0001C0
000380
000700
001C00
00F000
000000
ENDCHAR

STARTCHAR kor_AAA7
ENCODING 43687
SWIDTH 903 0
DWIDTH 24 0
BBX 24 24 0 -2
BITMAP
000000
000000
000000
000000
000000
001800
000E00
000780
000380
000000
000300
00CF80
007B80
006700
000E00
001C00
003800
007000
00D800
01CC00
03CE00
0387F8
0003F0
000000
ENDCHAR

STARTCHAR kor_AAA8
ENCODING 43688
SWIDTH 903 0
DWIDTH 24 0
BBX 24 24 0 -2
BITMAP
000000
003000
001C00
000F00
000700
000000
000000
000300
031F80
01FB80
01C700
000E00
001C00
003000
006000
00E000
01C000
037000
071800
0F1800
1E1C00
1C0FFC
0003FC
000000
ENDCHAR

STARTCHAR kor_AAA9
ENCODING 43689
SWIDTH 903 0
DWIDTH 24 0
BBX 24 24 0 -2
BITMAP
000000
000000
000000
000000
000000
000000
018000
00E000
00E000
00C1E0
00DC38
06FC38
03C060
00C000
00CF80
00B8E0
00E070
01C070
03C070
16C070
0EC0E0
05CF80
00C000
000000
ENDCHAR

STARTCHAR kor_AAAA
ENCODING 43690
SWIDTH 903 0
DWIDTH 24 0
BBX 24 24 0 -2
BITMAP
000000
038000
01E000
01C000
01C070
01C01C
01DC0E
39FC0E
1FE038
018000
018000
0183E0
019E78
01701C
01C00E
03800E
07800E
6D800E
7D801C
3D803C
17CCF8
03C7E0
018000
000000
ENDCHAR

STARTCHAR kor_AAAB
ENCODING 43691
SWIDTH 903 0
DWIDTH 24 0
BBX 24 24 0 -2
BITMAP
000000
01C000
00E000
00F000
00E000
00C000
00C0E0
01FC38
67C71C
7D830E
3B830E
03830F
03030F
07037F
07070E
0E0700
0E0600
1C0E00
1C0E00
399C00
78FC00
707800
007000
000000
ENDCHAR

STARTCHAR kor_AAAC
ENCODING 43692
SWIDTH 903 0
DWIDTH 24 0
BBX 24 24 0 -2
BITMAP
00000E
01C007
00E077
00F038
00E038
00C000
00C1C0
01FC70
67C738
7D831C
3B831C
03831E
03031E
07037E
07071C
0E0700
0E0600
1C0E00
1C0E00
399C00
78FC00
707800
007000
000000
ENDCHAR

STARTCHAR kor_AAAD
ENCODING 43693
SWIDTH 903 0
DWIDTH 24 0
BBX 24 24 0 -2
BITMAP
000000
01E000
00F000
007780
183F00
0FF800
079C00
000CF0
000FE0
0C1E00
07F300
038380
0001C0
0000E0
00FCF0
0387F0
060070
0C0000
0C0000
0E0000
078000
03FF00
00FF00
000000
ENDCHAR

STARTCHAR kor_AAAE
ENCODING 43694
SWIDTH 903 0
DWIDTH 24 0
BBX 24 24 0 -2
BITMAP
000000
03C00E
01C007
00E077
00EF38
307E38
1FF000
0F3800
001DE0
183F80
0FE600
070700
000380
0001C0
01F9E0
070FE0
0C00E0
180000
180000
1C0000
0F0000
07FE00
01FE00
000000
ENDCHAR

STARTCHAR kor_AAAF
ENCODING 43695
SWIDTH 903 0
DWIDTH 24 0
BBX 24 24 0 -2
BITMAP
000000
0000C0
0000E0
0001E0
0003C0
000F00
003C00
007000
01C000
070000
0C0000
0C0000
060000
038000
01E000
007000
003800
001E00
000F00
000780
0003C0
0001E0
0000E0
000000
ENDCHAR

STARTCHAR kor_AAB0
ENCODING 43696
SWIDTH 903 0
DWIDTH 24 0
BBX 24 24 0 -2
BITMAP
000000
000300
000380
00078E
000F07
001E77
003838
00E038
038000
0E0000
180000
180000
0C0000
070000
03C000
00E000
007000
003C00
001E00
000F00
000700
000780
000380
000000
ENDCHAR

STARTCHAR kor_AAB1
ENCODING 43697
SWIDTH 903 0
DWIDTH 24 0
BBX 24 24 0 -2
BITMAP
000000
1C0780
0E01E0
0E00E0
0E00E0
1C00E0
1C00EE
1CC3FF
187FE0
1838E0
3800E0
3800E0
3B00E0
3B00E0
3600C0
3601C0
1E01C0
1C01C0
1C0180
1C0380
0C0300
000600
000C00
000000
ENDCHAR

STARTCHAR kor_AAB2
ENCODING 43698
SWIDTH 903 0
DWIDTH 24 0
BBX 24 24 0 -2
BITMAP
00000E
380007
1C1E77
1C07B8
1C03B8
380380
380380
38039C
330FFE
31FF80
70E380
700380
760380
760380
760300
6C0700
6C0700
3C0700
380600
380E00
380C00
181800
003000
000000
ENDCHAR

STARTCHAR kor_AAB3
ENCODING 43699
SWIDTH 903 0
DWIDTH 24 0
BBX 24 24 0 -2
BITMAP
000000
000000
030000
01F800
007FE0
0007E0
001E00
007000
000000
000000
000000
000000
000000
000000
0C0000
180000
180000
180000
180000
0E0000
07FFF8
01FFF8
000000
000000
ENDCHAR

ENDFONT
